<svg width="40" height="40" viewBox="0 0 40 40" fill="none" xmlns="http://www.w3.org/2000/svg">
<path d="M24.1036 30.7931H37.0001V33.1379H24.1036V30.7931ZM24.1036 26.1034H37.0001V28.4483H24.1036V26.1034ZM37.0001 23.7586H24.1036V14.3793H37.0001V23.7586ZM26.4484 21.4138H34.6553V16.7241H26.4484V21.4138ZM24.1036 9.68965H37.0001V12.0345H24.1036V9.68965ZM24.1036 5H37.0001V7.34483H24.1036V5ZM13.8954 22.2427L11.207 19.5547V14.3793H13.5519V18.5832L15.5532 20.5849L13.8954 22.2427Z" fill="#353C45"/>
<path d="M12.3793 28.4483C7.20768 28.4483 3 24.2406 3 19.069C3 13.8974 7.20768 9.6897 12.3793 9.6897C17.5509 9.6897 21.7586 13.8974 21.7586 19.069C21.7586 24.2406 17.5509 28.4483 12.3793 28.4483ZM12.3793 12.0345C8.50061 12.0345 5.34483 15.1903 5.34483 19.069C5.34483 22.9477 8.50061 26.1035 12.3793 26.1035C16.258 26.1035 19.4138 22.9477 19.4138 19.069C19.4138 15.1903 16.258 12.0345 12.3793 12.0345Z" fill="#353C45"/>
</svg>
