<svg width="40" height="40" viewBox="0 0 40 40" fill="none" xmlns="http://www.w3.org/2000/svg">
<path d="M29.3226 25.4167H29.299C29.0647 25.4114 28.8383 25.3322 28.6529 25.1908C28.4674 25.0494 28.3325 24.8531 28.268 24.6306L24.7941 12.6225L22.6723 18.2133C22.5939 18.4198 22.4536 18.5978 22.27 18.7235C22.0865 18.8492 21.8685 18.9166 21.6452 18.9167H17.2581V16.75H20.8847L23.9084 8.78631C23.9895 8.57291 24.1367 8.39021 24.329 8.2642C24.5214 8.13819 24.749 8.07528 24.9796 8.08443C25.2102 8.09357 25.432 8.17429 25.6135 8.31512C25.795 8.45595 25.9269 8.64972 25.9905 8.86886L29.4029 20.6686L31.5729 14.2406C31.6456 14.0249 31.7851 13.8373 31.9718 13.7043C32.1585 13.5714 32.3828 13.4999 32.6129 13.5H37V15.6667H33.4033L30.3625 24.6761C30.29 24.8918 30.1504 25.0795 29.9638 25.2124C29.7771 25.3454 29.5527 25.4168 29.3226 25.4167ZM18.3548 33H16.1613V25.4167C16.1603 24.555 15.8134 23.7289 15.1965 23.1196C14.5797 22.5103 13.7433 22.1676 12.871 22.1667H8.48387C7.61152 22.1676 6.77517 22.5103 6.15832 23.1196C5.54147 23.7289 5.19451 24.555 5.19355 25.4167V33H3V25.4167C3.00171 23.9806 3.58003 22.6038 4.60808 21.5884C5.63613 20.5729 7.02998 20.0017 8.48387 20H12.871C14.3249 20.0017 15.7187 20.5729 16.7468 21.5884C17.7748 22.6038 18.3531 23.9806 18.3548 25.4167V33ZM10.6774 9.16667C11.3282 9.16667 11.9643 9.35728 12.5054 9.71439C13.0465 10.0715 13.4682 10.5791 13.7173 11.1729C13.9663 11.7668 14.0315 12.4203 13.9045 13.0507C13.7776 13.6811 13.4642 14.2602 13.004 14.7148C12.5439 15.1693 11.9576 15.4788 11.3193 15.6042C10.6811 15.7296 10.0195 15.6653 9.41827 15.4193C8.81704 15.1733 8.30316 14.7567 7.94162 14.2223C7.58007 13.6878 7.3871 13.0595 7.3871 12.4167C7.3871 11.5547 7.73375 10.7281 8.35081 10.1186C8.96787 9.50908 9.80477 9.16667 10.6774 9.16667ZM10.6774 7C9.59281 7 8.53256 7.31768 7.63074 7.91287C6.72893 8.50806 6.02604 9.35403 5.61098 10.3438C5.19592 11.3336 5.08732 12.4227 5.29892 13.4734C5.51052 14.5241 6.0328 15.4893 6.79974 16.2468C7.56667 17.0044 8.5438 17.5203 9.60757 17.7293C10.6713 17.9383 11.774 17.831 12.776 17.421C13.7781 17.011 14.6345 16.3168 15.2371 15.426C15.8397 14.5352 16.1613 13.488 16.1613 12.4167C16.1613 10.9801 15.5835 9.60233 14.5551 8.5865C13.5267 7.57068 12.1318 7 10.6774 7Z" fill="#353C45"/>
</svg>
