<svg width="24" height="24" viewBox="0 0 24 24" fill="none" xmlns="http://www.w3.org/2000/svg">
<path d="M9.68475 13.7137C9.12546 13.7138 8.57869 13.548 8.11362 13.2373C7.64854 12.9267 7.28605 12.485 7.07199 11.9683C6.85794 11.4516 6.80193 10.883 6.91107 10.3344C7.0202 9.78589 7.28957 9.28202 7.6851 8.88658L10.6027 5.96952C11.133 5.43917 11.8522 5.14121 12.6022 5.14119C13.3522 5.14116 14.0714 5.43907 14.6018 5.96938C15.1321 6.49969 15.4301 7.21895 15.4301 7.96895C15.4301 8.71895 15.1322 9.43823 14.6019 9.96858L14.2863 10.2844L13.4772 9.47693L13.7959 9.15809C14.1106 8.84179 14.2871 8.41362 14.2867 7.96742C14.2863 7.52122 14.109 7.09338 13.7937 6.77766C13.4726 6.47128 13.0459 6.30033 12.6021 6.30033C12.1584 6.30033 11.7317 6.47128 11.4106 6.77766L8.49339 9.69455C8.3369 9.85097 8.21276 10.0367 8.12807 10.2411C8.04337 10.4455 7.99978 10.6646 7.99978 10.8859C7.99978 11.1071 8.04337 11.3262 8.12807 11.5307C8.21276 11.7351 8.3369 11.9208 8.49339 12.0772C8.81443 12.3836 9.24115 12.5545 9.68492 12.5545C10.1287 12.5545 10.5554 12.3836 10.8765 12.0772L11.6847 12.8856C11.4226 13.149 11.1109 13.3578 10.7676 13.4999C10.4244 13.642 10.0563 13.7147 9.68475 13.7137Z" fill="#F2F3F5"/>
<path d="M14.2565 12.5707C13.6972 12.5709 13.1504 12.4051 12.6853 12.0944C12.2203 11.7837 11.8578 11.3421 11.6437 10.8254C11.4296 10.3087 11.3736 9.74007 11.4828 9.19151C11.5919 8.64296 11.8613 8.13909 12.2568 7.74365L12.5726 7.42784L13.3808 8.23627L13.065 8.55191C12.9086 8.70833 12.7845 8.89405 12.6998 9.09844C12.6152 9.30284 12.5716 9.52191 12.5716 9.74315C12.5716 9.96439 12.6152 10.1835 12.6998 10.3879C12.7845 10.5923 12.9086 10.778 13.065 10.9344C13.3861 11.2408 13.8128 11.4117 14.2566 11.4117C14.7004 11.4117 15.1271 11.2408 15.4481 10.9344C15.5967 10.7858 18.1508 8.23164 18.3657 8.01722C18.6811 7.70105 18.8583 7.27266 18.8583 6.82603C18.8583 6.37941 18.6811 5.95101 18.3657 5.63485C18.0446 5.32846 17.6179 5.15752 17.1741 5.15752C16.7304 5.15752 16.3037 5.32846 15.9826 5.63485L15.1744 4.82648C15.7049 4.29694 16.4239 3.99967 17.1734 4C17.9229 4.00033 18.6417 4.29823 19.1717 4.82823C19.7017 5.35824 19.9996 6.07699 20 6.82654C20.0004 7.5761 19.7031 8.29514 19.1736 8.82565C18.9585 9.04053 16.4054 11.5933 16.2569 11.7423C15.9948 12.0057 15.683 12.2146 15.3397 12.3568C14.9963 12.499 14.6281 12.5717 14.2565 12.5707Z" fill="#F2F3F5"/>
<path d="M16.5725 20H5.14295C4.83992 19.9997 4.54939 19.8792 4.33511 19.6649C4.12084 19.4506 4.00032 19.1601 4 18.857V7.42721C4.00032 7.12417 4.12084 6.83364 4.33511 6.61936C4.54939 6.40507 4.83992 6.28455 5.14295 6.28423H7.42886V7.42721H5.14295V18.857H16.5725V13.1421H17.7155V18.857C17.7151 19.1601 17.5946 19.4506 17.3803 19.6649C17.1661 19.8792 16.8755 19.9997 16.5725 20Z" fill="#F2F3F5"/>
</svg>
