<svg width="68" height="68" viewBox="0 0 68 68" fill="none" xmlns="http://www.w3.org/2000/svg">
<path d="M30.3496 6.16277L5.00946 16.6482C3.60029 17.2314 3.61489 19.233 5.0329 19.795L30.4791 29.8859C32.715 30.7726 35.2049 30.7726 37.4405 29.8859L62.8871 19.795C64.3047 19.233 64.3197 17.2314 62.9101 16.6482L37.5703 6.16277C35.2583 5.20616 32.6613 5.20616 30.3496 6.16277Z" fill="#FFBF00"/>
<path d="M36.2168 35.3968V60.6052C36.2168 61.8042 37.4258 62.6252 38.5403 62.1834L66.8952 51.1774C67.5425 50.9208 67.967 50.2953 67.967 49.5992V24.3908C67.967 23.1918 66.758 22.3708 65.6435 22.8126L37.2887 33.8186C36.6417 34.0752 36.2168 34.7007 36.2168 35.3968Z" fill="#26B5F8"/>
<path d="M29.5965 36.697L21.1814 40.7601L20.327 41.1731L2.56325 49.6847C1.43722 50.2279 0 49.4073 0 48.1564V24.4962C0 24.0437 0.232045 23.653 0.543232 23.3587C0.673085 23.2284 0.820226 23.1212 0.97313 23.0363C1.39765 22.7816 2.00312 22.7136 2.51792 22.9172L29.4551 33.5902C30.8244 34.1334 30.9319 36.052 29.5965 36.697Z" fill="#ED3049"/>
<path d="M29.5963 36.697L21.1812 40.7601L0.542969 23.3587C0.672822 23.2284 0.819963 23.1212 0.972867 23.0363C1.39739 22.7816 2.00286 22.7136 2.51766 22.9172L29.4549 33.5902C30.8241 34.1334 30.9317 36.052 29.5963 36.697Z" fill="black" fill-opacity="0.25"/>
</svg>
