<svg width="68" height="68" viewBox="0 0 68 68" fill="none" xmlns="http://www.w3.org/2000/svg">
    <path d="M15.385 61.8326L0.592875 36.2115C-0.197625 34.843 -0.197625 33.1558 0.592875 31.7873L15.385 6.1672C16.1744 4.79977 17.6322 3.9572 19.21 3.95508H48.8081C50.3806 3.96252 51.8309 4.80508 52.6171 6.1672L67.4071 31.7873C68.1976 33.1558 68.1976 34.843 67.4071 36.2115L52.615 61.8326C51.8256 63.2001 50.3678 64.0426 48.79 64.0448H19.1994C17.6237 64.0395 16.1713 63.1969 15.3818 61.8326H15.385Z" fill="#4386FA"/>
    <path d="M43.2406 25.7491C43.2406 25.7491 47.3524 35.6123 41.7467 41.2031C36.1409 46.794 25.9335 43.2155 25.9335 43.2155L46.6969 64.0363H48.8049C50.3837 64.0341 51.8415 63.1905 52.6299 61.8242L62.4219 44.8688L43.2406 25.7491Z" fill="#4373C5"/>
    <path d="M48.0962 45.9313L43.5625 41.387C43.5132 41.3364 43.4566 41.2934 43.3946 41.2595C45.3231 38.7755 46.2319 35.6497 45.936 32.519C45.6401 29.3882 44.1617 26.4881 41.802 24.4094C39.4422 22.3307 36.3788 21.2299 33.2357 21.3313C30.0927 21.4326 27.1065 22.7285 24.8856 24.9549C22.6647 27.1812 21.3762 30.1706 21.2826 33.3139C21.1889 36.4572 22.2973 39.5179 24.3817 41.8725C26.4662 44.2271 29.3699 45.6984 32.5014 45.9866C35.6329 46.2748 38.7564 45.3583 41.2356 43.4238C41.268 43.4823 41.3084 43.5359 41.3557 43.5831L45.9 48.1275C46.0335 48.2608 46.2144 48.3357 46.4031 48.3357C46.5918 48.3357 46.7727 48.2608 46.9062 48.1275L48.0962 46.9375C48.2295 46.804 48.3044 46.623 48.3044 46.4344C48.3044 46.2457 48.2295 46.0648 48.0962 45.9313ZM33.6175 42.9924C31.7787 42.9926 29.9811 42.4475 28.452 41.426C26.923 40.4046 25.7312 38.9526 25.0275 37.2538C24.3237 35.5549 24.1395 33.6856 24.4981 31.882C24.8568 30.0785 25.7423 28.4219 27.0426 27.1216C28.3428 25.8214 29.9995 24.9359 31.803 24.5772C33.6065 24.2185 35.4759 24.4027 37.1747 25.1065C38.8735 25.8103 40.3255 27.0021 41.347 28.5311C42.3684 30.0601 42.9135 31.8577 42.9133 33.6966C42.913 36.1619 41.9336 38.5262 40.1903 40.2694C38.4471 42.0126 36.0828 42.9921 33.6175 42.9924ZM27.6749 33.2004V37.0424C28.2668 38.0868 29.1231 38.9581 30.1591 39.5658V33.177L27.6749 33.2004ZM32.3234 30.015V40.3978C33.1445 40.5491 33.9864 40.5491 34.8075 40.3978V30.015H32.3234ZM39.5101 37.0339V34.758H37.0281V39.5393C38.0626 38.9331 38.9193 38.0654 39.5123 37.0233L39.5101 37.0339Z" fill="white"/>
</svg>
