<svg width="68" height="68" viewBox="0 0 68 68" fill="none" xmlns="http://www.w3.org/2000/svg">
<g clip-path="url(#clip0_6623_25433)">
<path d="M0.806324 0H6.71937C7.12253 0 7.52569 0.403162 7.52569 0.806324V67.1937C7.52569 67.5968 7.12253 68 6.71937 68H0.806324C0.403162 68 0 67.7312 0 67.1937V0.806324C0 0.403162 0.403162 0 0.806324 0Z" fill="black"/>
<path d="M15.8571 0H21.7702C22.1733 0 22.5765 0.403162 22.5765 0.806324V67.1937C22.5765 67.5968 22.1733 68 21.7702 68H15.8571C15.4539 68 15.0508 67.5968 15.0508 67.1937V0.806324C15.1852 0.403162 15.4539 0 15.8571 0Z" fill="black"/>
<path d="M31.0427 0H36.9557C37.3589 0 37.762 0.403162 37.762 0.806324V67.1937C37.762 67.5968 37.3589 68 36.9557 68H31.0427C30.6395 68 30.2363 67.5968 30.2363 67.1937V0.806324C30.2363 0.403162 30.6395 0 31.0427 0Z" fill="black"/>
<path d="M46.0954 0H52.0084C52.4116 0 52.8148 0.403162 52.8148 0.806324V67.1937C52.8148 67.5968 52.4116 68 52.0084 68H46.0954C45.6922 68 45.2891 67.5968 45.2891 67.1937V0.806324C45.2891 0.403162 45.6922 0 46.0954 0Z" fill="black"/>
<path d="M61.2809 26.4746H67.194C67.5971 26.4746 68.0003 26.8778 68.0003 27.2809V40.8541C68.0003 41.2572 67.5971 41.6604 67.194 41.6604H61.2809C60.8778 41.6604 60.4746 41.2572 60.4746 40.8541V27.2809C60.4746 26.8778 60.8778 26.4746 61.2809 26.4746Z" fill="black"/>
<path d="M52.0428 43.487C53.6778 43.487 54.2838 42.484 54.2838 41.244C54.2838 40.004 53.6808 39 52.0438 39C50.4048 39 49.8008 40.003 49.8008 41.244C49.8008 42.484 50.4048 43.487 52.0418 43.487H52.0428Z" fill="#0033FF"/>
<path d="M59.883 43.9699V45.4129H56.204V48.6159H59.884V56.6279H53.801V45.4099H45.801V48.6129H50.281V56.6249H45V59.8279H69V56.6249H63.4V48.6129H69V45.4099H63.4V42.2059H69V39.0029H64.839C63.523 39.0053 62.2616 39.5296 61.3316 40.4607C60.4015 41.3919 59.8788 42.6539 59.878 43.9699H59.883Z" fill="#0033FF"/>
</g>
<defs>
<clipPath id="clip0_6623_25433">
<rect width="68" height="68" fill="white"/>
</clipPath>
</defs>
</svg>
