<svg width="68" height="68" viewBox="0 0 68 68" fill="none" xmlns="http://www.w3.org/2000/svg">
<g clip-path="url(#clip0_6623_25448)">
<path d="M2.47292 51.1613C1.74007 52.3176 1.02071 53.4824 0.314982 54.6554C-0.299143 55.6823 0.00791922 57.0184 1.03429 57.6357L15.1039 66.2685C16.1314 66.8847 17.4643 66.575 18.081 65.5487C18.7416 64.3697 19.4264 63.2044 20.1349 62.0536C25.6822 52.9092 31.3288 53.9361 41.3923 58.7672L55.3605 65.3409C56.4888 65.8562 57.7229 65.3409 58.2345 64.314L64.9118 49.2106C65.4234 48.181 64.9118 46.8476 63.8817 46.3323C60.9046 44.9957 55.0534 42.2204 49.9178 39.6529C30.9203 30.5053 14.7947 31.1226 2.47398 51.1613H2.47292Z" fill="url(#paint0_linear_6623_25448)"/>
<path d="M65.5267 16.839C66.2597 15.6827 66.9792 14.5179 67.6851 13.3449C68.3014 12.318 67.9917 10.9819 66.9653 10.3646L52.8957 1.73179C51.8688 1.11554 50.5353 1.42526 49.9185 2.45164C49.2592 3.6312 48.5746 4.7965 47.8653 5.94673C42.3174 15.0911 36.6708 14.0642 26.6073 9.23304L12.6391 2.65936C11.5108 2.14404 10.2799 2.65936 9.76507 3.68626L3.09045 18.7897C2.5762 19.8193 3.09045 21.1559 4.11735 21.668C7.09448 23.0046 12.9489 25.7799 18.0813 28.3474C37.0825 37.393 53.2049 36.8772 65.5256 16.839H65.5267Z" fill="url(#paint1_linear_6623_25448)"/>
</g>
<defs>
<linearGradient id="paint0_linear_6623_25448" x1="64.5738" y1="70.7402" x2="22.0768" y2="46.3396" gradientUnits="userSpaceOnUse">
<stop stop-color="#0052CC"/>
<stop offset="0.918" stop-color="#2380FB"/>
<stop offset="1" stop-color="#2684FF"/>
</linearGradient>
<linearGradient id="paint1_linear_6623_25448" x1="3.42578" y1="-2.76793" x2="45.9228" y2="21.6355" gradientUnits="userSpaceOnUse">
<stop stop-color="#0052CC"/>
<stop offset="0.918" stop-color="#2380FB"/>
<stop offset="1" stop-color="#2684FF"/>
</linearGradient>
<clipPath id="clip0_6623_25448">
<rect width="68" height="68" fill="white"/>
</clipPath>
</defs>
</svg>
