<svg width="68" height="68" viewBox="0 0 68 68" fill="none" xmlns="http://www.w3.org/2000/svg">
<g clip-path="url(#clip0_6623_25456)">
<path fill-rule="evenodd" clip-rule="evenodd" d="M4.42768 67.9058H0.0214844V57.7623H4.42768C7.60215 57.7623 9.1915 59.361 9.1915 62.5575C9.1915 66.121 7.60215 67.9058 4.42768 67.9058ZM1.90561 66.2731H4.14311C6.25234 66.2731 7.30568 65.0346 7.30568 62.5558C7.30568 60.4457 6.25234 59.3907 4.14311 59.3907H1.90561V66.2731ZM11.1657 67.9058H9.23143L13.5459 57.7623H15.571L19.9798 67.9058H17.9529L16.6736 65.139H13.4176L14.0649 63.5089H16.1767L14.5126 59.6982L11.1657 67.9058ZM18.9145 57.7623H26.6277V59.3932H23.7132V67.9058H21.8299V59.3932H18.9137L18.9145 57.7623ZM27.5961 67.9058H25.6619L29.9772 57.7623H32.0023L36.4102 67.9058H34.3834L33.1041 65.139H29.848L30.4936 63.5089H32.6054L30.9413 59.6982L27.5961 67.9058ZM42.066 67.9058H37.6598V57.7623H42.066C45.2421 57.7623 46.8298 59.361 46.8298 62.5575C46.8298 66.121 45.2421 67.9058 42.066 67.9058ZM39.543 66.2731H41.7822C43.8898 66.2731 44.9457 65.0346 44.9457 62.5558C44.9457 60.4457 43.8898 59.3907 41.7822 59.3907H39.543V66.2731ZM48.1048 62.848C48.1048 59.4085 49.808 57.6892 53.2101 57.6892C56.5604 57.6892 58.2347 59.4085 58.2347 62.848C58.2347 66.2671 56.5604 67.9788 53.2101 67.9788C49.9584 67.978 48.2586 66.2671 48.1048 62.848ZM53.2101 66.3436C55.2565 66.3436 56.2801 65.1645 56.2801 62.8047C56.2801 60.4814 55.2565 59.3185 53.2101 59.3185C51.1103 59.3185 50.0612 60.4814 50.0612 62.8047C50.062 65.1645 51.1111 66.3436 53.2101 66.3436ZM66.0949 63.8011V66.1754C65.66 66.2892 65.2701 66.3444 64.9294 66.3444C62.6248 66.3444 61.4746 65.1272 61.4746 62.6917C61.4746 60.4432 62.6962 59.3193 65.135 59.3193C66.1544 59.3193 67.1015 59.5088 67.9782 59.8876V58.1844C67.1024 57.854 66.1076 57.6875 64.9931 57.6875C61.3447 57.6875 59.5191 59.3542 59.5191 62.6909C59.5191 66.2128 61.3132 67.9771 64.9005 67.9771C66.1348 67.9771 67.1601 67.797 67.979 67.4369V62.1302H64.9371L64.3008 63.7994H66.0949V63.8011Z" fill="#632CA6"/>
<path fill-rule="evenodd" clip-rule="evenodd" d="M50.9995 38.2885L46.516 35.3306L42.7758 41.5785L38.4257 40.3068L34.5954 46.1529L34.7916 47.9928L55.6181 44.1549L54.4084 31.1419L50.9995 38.2885ZM31.5781 32.6786L34.9199 32.219C35.4602 32.462 35.8365 32.5546 36.4846 32.7194C37.4946 32.9819 38.6627 33.2342 40.393 32.3626C40.7957 32.163 41.635 31.3959 41.9739 30.9584L55.6639 28.4754L57.0605 45.3782L33.6058 49.6051L31.5781 32.6786ZM57.0078 26.5879L55.6563 26.8453L53.0603 0.0224609L8.82422 5.15156L14.2744 49.3766L19.4528 48.6248C19.0391 48.0345 18.3952 47.32 17.296 46.406C15.7712 45.1395 16.3097 42.9869 17.2102 41.6278C18.4003 39.3316 24.5326 36.4137 24.1852 32.744C24.0603 31.4095 23.8488 29.6732 22.6094 28.4822C22.5627 28.9766 22.6468 29.4515 22.6468 29.4515C22.6468 29.4515 22.1379 28.8025 21.8848 27.9182C21.6334 27.5784 21.4354 27.4705 21.1679 27.0169C20.9767 27.541 21.0022 28.1492 21.0022 28.1492C21.0022 28.1492 20.586 27.1664 20.5189 26.3365C20.2725 26.7077 20.2105 27.4127 20.2105 27.4127C20.2105 27.4127 19.6702 25.8633 19.7934 25.0283C19.5471 24.302 18.8157 22.8604 19.0221 19.5849C20.3719 20.5303 23.3442 20.3061 24.502 18.5995C24.886 18.0338 25.1502 16.4911 24.31 13.45C23.7706 11.5005 22.4353 8.597 21.9145 7.49524L21.8525 7.54026C22.1269 8.42796 22.6927 10.2874 22.9101 11.1904C23.5676 13.9257 23.7434 14.8788 23.4351 16.1403C23.1726 17.237 22.5431 17.9539 20.9478 18.7558C19.3525 19.5602 17.2348 17.6022 17.1014 17.4943C15.5512 16.2592 14.3517 14.2451 14.2183 13.2657C14.079 12.1945 14.8359 11.5515 15.2173 10.6757C14.6711 10.8311 14.0629 11.1089 14.0629 11.1089C14.0629 11.1089 14.7892 10.3571 15.6845 9.70726C16.0557 9.46176 16.2732 9.30546 16.664 8.98096C16.0982 8.97162 15.6387 8.98776 15.6387 8.98776C15.6387 8.98776 16.5824 8.47808 17.5602 8.10686C16.8449 8.07543 16.1594 8.10176 16.1594 8.10176C16.1594 8.10176 18.2652 7.1597 19.9276 6.46908C21.071 6.00017 22.1881 6.13864 22.8158 7.04672C23.6398 8.23598 24.5054 8.88157 26.3394 9.28167C27.4658 8.78219 27.8073 8.5265 29.2225 8.13999C30.4678 6.76979 31.4456 6.5931 31.4456 6.5931C31.4456 6.5931 30.9605 7.03823 30.8306 7.73734C31.5365 7.18094 32.3103 6.71628 32.3103 6.71628C32.3103 6.71628 32.0105 7.0858 31.731 7.67363L31.7956 7.77047C32.6195 7.27608 33.5879 6.88702 33.5879 6.88702C33.5879 6.88702 33.311 7.237 32.9865 7.68977C33.6083 7.68467 34.8681 7.7161 35.3574 7.77132C38.2447 7.83503 38.8436 4.68859 39.9513 4.29359C41.3385 3.79835 41.9586 3.49849 44.3227 5.82094C46.3504 7.81549 47.9355 11.3833 47.148 12.1826C46.488 12.846 45.1866 11.9235 43.7442 10.126C42.9822 9.17379 42.4054 8.04824 42.1353 6.61774C41.9076 5.41064 41.0208 4.71068 41.0208 4.71068C41.0208 4.71068 41.5347 5.85746 41.5347 6.86748C41.5347 7.41964 41.6035 9.483 42.4887 10.6417C42.4012 10.8107 42.3604 11.4793 42.2636 11.6075C41.234 10.363 39.0228 9.4728 38.6618 9.21032C39.8825 10.2101 42.6875 12.5071 43.7646 14.7098C44.7839 16.7918 44.1834 18.7006 44.699 19.1941C44.846 19.3351 46.8906 21.8835 47.2839 23.1637C47.9703 25.3944 47.3247 27.7398 46.4268 29.1941L43.9183 29.5848C43.5514 29.4829 43.3042 29.4319 42.9754 29.2416C43.1572 28.9205 43.5174 28.1203 43.5208 27.9547L43.3789 27.7067C42.5983 28.8127 41.2909 29.8864 40.2045 30.5031C38.7824 31.3093 37.1438 31.1844 36.0769 30.8548C33.0494 29.9212 30.1858 27.8749 29.4952 27.3371C29.4952 27.3371 29.474 27.7661 29.6039 27.863C30.3668 28.7243 32.1158 30.2814 33.8071 31.3679L30.2028 31.7646L31.9068 45.0307C31.1517 45.1386 31.0336 45.1921 30.2071 45.3094C29.4782 42.7346 28.0842 41.0535 26.5603 40.0741C25.2164 39.2102 23.3629 39.0156 21.5892 39.3673L21.4754 39.4998C22.7088 39.3716 24.1648 39.55 25.6607 40.4971C27.1286 41.4256 28.3119 43.8236 28.7477 45.2669C29.3058 47.1119 29.6914 49.0861 28.1896 51.1783C27.1218 52.6658 24.0042 53.4872 21.4847 51.7093C22.1575 52.7915 23.0664 53.6758 24.2914 53.8423C26.1092 54.0895 27.8345 53.7735 29.022 52.5545C30.0355 51.5122 30.574 49.3324 30.4322 47.0372L32.0368 46.8044L32.6161 50.9243L59.1748 47.7261L57.0078 26.5879ZM40.8492 15.3996C40.7753 15.5686 40.6581 15.6799 40.8331 16.2303L40.8433 16.2618L40.8713 16.3331L40.9443 16.4979C41.2595 17.1427 41.6052 17.75 42.1846 18.0609C42.3341 18.0355 42.4895 18.0185 42.6501 18.0108C43.1937 17.987 43.5369 18.0728 43.7535 18.1901C43.7731 18.0813 43.7773 17.9233 43.7654 17.6897C43.723 16.8734 43.9268 15.4853 42.3579 14.7548C41.7658 14.4804 40.935 14.5645 40.6581 14.9077C40.7082 14.9145 40.7532 14.9247 40.7889 14.9366C41.2085 15.0818 40.9248 15.2263 40.8492 15.3996ZM45.2478 23.0159C45.0422 22.9021 44.0806 22.9471 43.4044 23.0278C42.1166 23.1798 40.726 23.6258 40.4219 23.8637C39.8681 24.2918 40.1195 25.0376 40.529 25.3443C41.6766 26.2014 42.6824 26.7765 43.7433 26.6363C44.3949 26.5505 44.97 25.5184 45.3769 24.5823C45.6555 23.9376 45.6555 23.2418 45.2478 23.0159ZM33.847 16.4096C34.2098 16.0647 32.0385 15.6119 30.3532 16.7612C29.1104 17.609 29.0705 19.4269 30.2606 20.4573C30.3795 20.5592 30.478 20.6314 30.5689 20.6909C30.9164 20.5269 31.3122 20.3622 31.7684 20.2143C32.538 19.9646 33.1785 19.8355 33.7043 19.7667C33.9558 19.4855 34.2488 18.9903 34.1758 18.0932C34.0755 16.8759 33.1547 17.0688 33.847 16.4096Z" fill="#632CA6"/>
</g>
<defs>
<clipPath id="clip0_6623_25456">
<rect width="68" height="68" fill="white"/>
</clipPath>
</defs>
</svg>
