<svg width="68" height="68" viewBox="0 0 68 68" fill="none" xmlns="http://www.w3.org/2000/svg">
<path d="M33.2322 24.8896C38.2755 24.8896 42.3555 29.2781 42.1603 34.3655C41.9777 39.2011 37.8537 43.1489 33.0118 43.1489H26.6274C26.1992 43.1489 25.8529 42.7963 25.8529 42.3744V25.6704C25.8529 25.2422 26.2055 24.8959 26.6274 24.8959H33.2322M33.2322 14.5952H17.6929C16.4085 14.5952 15.3633 15.6403 15.3633 16.9248V51.1074C15.3633 52.3918 16.4085 53.437 17.6929 53.437H33.2322C43.9548 53.437 52.6562 44.7418 52.6562 34.0129C52.6562 23.2841 43.9611 14.5889 33.2322 14.5889V14.5952Z" fill="#273552"/>
</svg>
