<svg width="68" height="68" viewBox="0 0 68 68" fill="none" xmlns="http://www.w3.org/2000/svg">
<path d="M19.9558 18.3802C24.5883 18.3802 26.3053 15.5383 26.3053 12.025C26.3053 8.51166 24.5968 5.66699 19.9587 5.66699C15.3148 5.66699 13.6035 8.50883 13.6035 12.025C13.6035 15.5383 15.3148 18.3802 19.953 18.3802H19.9558Z" fill="#0033FF"/>
<path d="M42.1685 19.748V23.8365H31.7447V32.9116H42.1713V55.6123H24.9362V23.828H2.2695V32.9031H14.9628V55.6038H0V64.679H68V55.6038H52.1333V32.9031H68V23.828H52.1333V14.75H68V5.6748H56.2105C52.4817 5.68156 48.9078 7.16697 46.2727 9.80523C43.6377 12.4435 42.1566 16.0192 42.1543 19.748H42.1685Z" fill="#0033FF"/>
</svg>
