<svg width="68" height="68" viewBox="0 0 68 68" fill="none" xmlns="http://www.w3.org/2000/svg">
    <path fill-rule="evenodd" clip-rule="evenodd" d="M33.9854 68V54.8219C47.9342 54.8219 58.762 40.989 53.4054 26.3077C52.4216 23.6106 50.8601 21.1612 48.8302 19.1311C46.8003 17.1009 44.351 15.5391 41.6541 14.5551C26.9728 9.23799 13.1399 20.0263 13.1399 33.9751H0C0 11.7438 21.5016 -5.59607 44.8132 1.68524C54.9863 4.8853 63.1161 12.9755 66.2766 23.15C73.5592 46.4984 56.2576 68 33.9854 68Z" fill="#0080FF"/>
    <path fill-rule="evenodd" clip-rule="evenodd" d="M20.9232 54.8601H34.0236V41.7597H20.9246L20.9232 54.8601ZM10.8278 64.9554H20.9218V54.8614H10.8278V64.9554ZM2.38846 54.8614H10.8278V46.4207H2.38846V54.8614Z" fill="#0080FF"/>
</svg>
