<svg width="68" height="68" viewBox="0 0 68 68" fill="none" xmlns="http://www.w3.org/2000/svg">
<g clip-path="url(#clip0_6623_25473)">
<path d="M43.5725 8C42.908 9.1902 42.3113 10.4215 41.7689 11.6801C36.6156 10.9003 31.3674 10.9003 26.2007 11.6801C25.6718 10.4215 25.0615 9.1902 24.397 8C19.5557 8.83455 14.8364 10.2983 10.3612 12.3641C1.49216 25.6206 -0.908173 38.5351 0.285226 51.2717C5.47914 55.1434 11.2969 58.0984 17.4944 59.9863C18.8912 58.0984 20.1253 56.0873 21.183 53.9942C19.1759 53.2418 17.2367 52.2978 15.3788 51.2034C15.867 50.8477 16.3417 50.4783 16.8027 50.1226C27.6924 55.2939 40.3043 55.2939 51.2075 50.1226C51.6685 50.5057 52.1432 50.875 52.6314 51.2034C50.7735 52.3115 48.8343 53.2418 46.8137 54.0079C47.8714 56.101 49.1055 58.1121 50.5023 60C56.6996 58.1121 62.5173 55.1707 67.7117 51.2992C69.1217 36.5241 65.2976 23.719 57.6081 12.3778C53.1467 10.3121 48.4274 8.8482 43.5861 8.02735L43.5725 8ZM22.7019 43.4328C19.3523 43.4328 16.5722 40.3683 16.5722 36.5788C16.5722 32.7893 19.2438 29.7111 22.6883 29.7111C26.1329 29.7111 28.8722 32.803 28.818 36.5788C28.7637 40.3547 26.1193 43.4328 22.7019 43.4328ZM45.2948 43.4328C41.9316 43.4328 39.1787 40.3683 39.1787 36.5788C39.1787 32.7893 41.8503 29.7111 45.2948 29.7111C48.7394 29.7111 51.4652 32.803 51.4109 36.5788C51.3566 40.3547 48.7122 43.4328 45.2948 43.4328Z" fill="#5865F2"/>
</g>
<defs>
<clipPath id="clip0_6623_25473">
<rect width="68" height="52" fill="white" transform="translate(0 8)"/>
</clipPath>
</defs>
</svg>
