<svg width="68" height="68" viewBox="0 0 68 68" fill="none" xmlns="http://www.w3.org/2000/svg">
    <path d="M4 18.5251L17.2134 26.0926V41.2177L4 33.6503V18.5251Z" fill="#B70F5C"/>
    <path d="M4 36.3897L17.2035 43.9474V59.0726L4 51.5149V36.3897Z" fill="#B70F5C"/>
    <path d="M32.8024 33.6503V18.5251L19.5988 26.0926V41.2177L32.8024 33.6503Z" fill="#B70F5C"/>
    <path d="M19.5988 45.3171L32.8024 52.8749V68L19.5988 60.4423V45.3171Z" fill="#B70F5C"/>
    <path d="M33.9902 50.8349L47.2134 43.2674L34 35.7L20.7867 43.2674L33.9902 50.8349Z" fill="#B70F5C"/>
    <path d="M62.8024 16.4754L34 0L5.18783 16.4754L18.4012 24.0429L34 15.096L49.589 24.0429L62.8024 16.4754Z" fill="#B70F5C"/>
    <path d="M35.1878 33.6503L48.4012 41.2177V26.0926L35.1976 18.5251L35.1878 33.6503Z" fill="#B70F5C"/>
    <path d="M35.1976 52.8749L48.4012 45.3171V60.4423L35.1976 68V52.8749Z" fill="#B70F5C"/>
    <path d="M64 18.5251V33.6503L50.7867 41.2177V26.0926L64 18.5251Z" fill="#B70F5C"/>
    <path d="M50.7867 43.9474L64 36.3897V51.5149L50.7867 59.0726V43.9474Z" fill="#B70F5C"/>
</svg>
