<svg width="68" height="68" viewBox="0 0 68 68" fill="none" xmlns="http://www.w3.org/2000/svg">
<path d="M34 4.25C17.8048 4.25 4.6875 17.4124 4.6875 33.6631C4.6875 46.6784 13.0782 57.6716 24.7299 61.5688C26.1955 61.8262 26.7452 60.9438 26.7452 60.1717C26.7452 59.4731 26.7085 57.1568 26.7085 54.6935C19.3438 56.0539 17.4384 52.8919 16.8522 51.2375C16.5224 50.3918 15.0934 47.7814 13.8477 47.0828C12.8217 46.5314 11.3561 45.171 13.811 45.1342C16.1194 45.0975 17.7682 47.2667 18.3178 48.1491C20.9559 52.5978 25.1696 51.3478 26.8551 50.5757C27.1116 48.6638 27.881 47.377 28.7237 46.6417C22.2017 45.9063 15.3866 43.3694 15.3866 32.1189C15.3866 28.9203 16.5224 26.2731 18.3911 24.2142C18.098 23.4788 17.072 20.464 18.6842 16.4197C18.6842 16.4197 21.1391 15.6476 26.7452 19.4345C29.0902 18.7727 31.5817 18.4418 34.0733 18.4418C36.5648 18.4418 39.0564 18.7727 41.4014 19.4345C47.0074 15.6108 49.4623 16.4197 49.4623 16.4197C51.0745 20.464 50.0486 23.4788 49.7555 24.2142C51.6241 26.2731 52.76 28.8835 52.76 32.1189C52.76 43.4062 45.9082 45.9063 39.3862 46.6417C40.4487 47.5608 41.3648 49.3256 41.3648 52.0831C41.3648 56.0171 41.3281 59.179 41.3281 60.1717C41.3281 60.9438 41.8777 61.8629 43.3434 61.5688C49.1624 59.5976 54.2189 55.8449 57.8012 50.839C61.3834 45.833 63.3109 39.8259 63.3125 33.6631C63.3125 17.4124 50.1952 4.25 34 4.25Z" fill="black"/>
</svg>
