<svg width="68" height="68" viewBox="0 0 68 68" fill="none" xmlns="http://www.w3.org/2000/svg">
    <path d="M14.7637 61.2098L0.818391 37.0538C-0.272797 35.1637 -0.272797 32.8352 0.818391 30.945L14.7637 6.78906C15.8549 4.89887 17.8715 3.73438 20.0544 3.73438H47.945C50.1274 3.73438 52.144 4.89887 53.2358 6.78906L67.1811 30.945C68.2723 32.8352 68.2723 35.1637 67.1811 37.0538L53.2358 61.2098C52.1446 63.1 50.128 64.2639 47.945 64.2639H20.0544C17.872 64.2639 15.8549 63.0994 14.7637 61.2098Z" fill="url(#paint0_linear_118_2389)"/>
    <path d="M14.7637 61.2098L0.818391 37.0538C-0.272797 35.1637 -0.272797 32.8352 0.818391 30.945L14.7637 6.78906C15.8549 4.89887 17.8715 3.73438 20.0544 3.73438H47.945C50.1274 3.73438 52.144 4.89887 53.2358 6.78906L67.1811 30.945C68.2723 32.8352 68.2723 35.1637 67.1811 37.0538L53.2358 61.2098C52.1446 63.1 50.128 64.2639 47.945 64.2639H20.0544C17.872 64.2639 15.8549 63.0994 14.7637 61.2098Z" fill="#4386FA"/>
    <path d="M64.0356 42.5023L47.6157 25.7329L33.9997 19.6554L20.9841 26.7263L20.4385 42.3132L42.925 64.2639H47.945C50.2975 63.9671 51.4683 63.3607 53.2358 61.2098L64.0356 42.5023Z" fill="#4386FA"/>
    <path d="M47.2969 25.4954L34.719 18.2333C34.2754 17.9772 33.7288 17.9772 33.2852 18.2333L20.7073 25.4954C20.2637 25.7515 19.9907 26.2248 19.9907 26.737V41.2608C19.9907 41.7729 20.2637 42.2463 20.7073 42.5023L33.2852 49.7645C33.7288 50.0206 34.2754 50.0206 34.719 49.7645L47.2969 42.5023C47.7405 42.2463 48.0136 41.7729 48.0136 41.2608V26.737C48.0136 26.2248 47.7405 25.7515 47.2969 25.4954ZM45.5714 39.8711L41.1833 37.3375V30.6634L34.7031 34.4034V41.8887L40.4826 38.552L44.8707 41.0855L34.0019 47.3606L23.133 41.0855L27.5211 38.552L33.3011 41.8887V34.4034L26.8209 30.6634V37.3375L22.4328 39.8711V27.3208L33.3017 21.0457V26.1128L27.5217 29.4495L34.0019 33.1895L40.482 29.4495L34.7026 26.1128V21.0457L45.5714 27.3208V39.8711Z" fill="white"/>
    <defs>
        <linearGradient id="paint0_linear_118_2389" x1="-0.000264762" y1="3.73384" x2="-0.000264762" y2="64.1688" gradientUnits="userSpaceOnUse">
            <stop stop-color="#4373C5"/>
            <stop offset="1" stop-color="#4683EA"/>
        </linearGradient>
    </defs>
</svg>
