<svg width="68" height="68" viewBox="0 0 68 68" fill="none" xmlns="http://www.w3.org/2000/svg">
<path d="M55.25 21.2503V59.5003C55.25 61.0657 53.9821 62.3337 52.4167 62.3337H15.5833C14.0179 62.3337 12.75 61.0657 12.75 59.5003V8.50033C12.75 6.93491 14.0179 5.66699 15.5833 5.66699H39.6667L55.25 21.2503Z" fill="url(#paint0_linear_6623_25516)"/>
<path d="M39.666 5.66699V19.8337C39.666 20.6157 40.3007 21.2503 41.0827 21.2503H55.2493L39.666 5.66699Z" fill="#107C42"/>
<path opacity="0.05" d="M22.6673 46.7503C21.1047 46.7503 19.834 45.4796 19.834 43.917V29.7503C19.834 28.1877 21.1047 26.917 22.6673 26.917H45.334C46.8966 26.917 48.1673 28.1877 48.1673 29.7503V43.917C48.1673 45.4796 46.8966 46.7503 45.334 46.7503H22.6673ZM42.5007 41.0837V39.667H36.834V41.0837H42.5007ZM31.1673 41.0837V39.667H25.5007V41.0837H31.1673ZM42.5007 34.0003V32.5837H36.834V34.0003H42.5007ZM31.1673 34.0003V32.5837H25.5007V34.0003H31.1673Z" fill="black"/>
<path opacity="0.07" d="M22.666 46.0417C21.4944 46.0417 20.541 45.0882 20.541 43.9167V29.75C20.541 28.5784 21.4944 27.625 22.666 27.625H45.3327C46.5043 27.625 47.4577 28.5784 47.4577 29.75V43.9167C47.4577 45.0882 46.5043 46.0417 45.3327 46.0417H22.666ZM43.2077 41.7917V38.9583H36.1243V41.7917H43.2077ZM31.8743 41.7917V38.9583H24.791V41.7917H31.8743ZM43.2077 34.7083V31.875H36.1243V34.7083H43.2077ZM31.8743 34.7083V31.875H24.791V34.7083H31.8743Z" fill="black"/>
<path d="M45.3333 28.333H22.6667C21.8832 28.333 21.25 28.9677 21.25 29.7497V43.9163C21.25 44.6983 21.8832 45.333 22.6667 45.333H45.3333C46.1167 45.333 46.75 44.6983 46.75 43.9163V29.7497C46.75 28.9677 46.1167 28.333 45.3333 28.333ZM43.9167 35.4163H35.4167V31.1663H43.9167V35.4163ZM32.5833 31.1663V35.4163H24.0833V31.1663H32.5833ZM24.0833 38.2497H32.5833V42.4997H24.0833V38.2497ZM35.4167 42.4997V38.2497H43.9167V42.4997H35.4167Z" fill="white"/>
<defs>
<linearGradient id="paint0_linear_6623_25516" x1="34" y1="18.2328" x2="34" y2="134.356" gradientUnits="userSpaceOnUse">
<stop stop-color="#21AD64"/>
<stop offset="1" stop-color="#088242"/>
</linearGradient>
</defs>
</svg>
