<svg width="68" height="68" viewBox="0 0 68 68" fill="none" xmlns="http://www.w3.org/2000/svg">
<path d="M54.6684 55.25C53.9105 56.5675 54.2462 57.63 52.9755 58.3624C51.7047 59.0962 50.2413 59.5 48.7184 59.5H19.2801C17.7586 59.5 16.2966 59.0963 15.0244 58.3638C13.7522 57.6314 14.088 56.5675 13.3301 55.25L24.1959 42.5H43.8026L54.6684 55.25Z" fill="#1E88E5"/>
<path d="M38.905 9.91562C40.4251 9.91278 41.8857 8.90128 43.1565 9.63512C44.4272 10.3704 45.5081 11.4343 46.2689 12.7532L60.988 38.2475C61.7488 39.565 62.1313 41.0341 62.1327 42.5004C62.1341 43.9695 60.3378 45.4371 59.5742 46.7518L43.811 42.4947L34.002 25.5046L38.905 9.91562Z" fill="#FBC02D"/>
<path d="M62.1344 42.5C62.1344 43.9733 61.7519 45.4325 60.9869 46.75L55.7877 55.7458C55.0369 56.8508 54.0736 57.7292 52.9686 58.3667L43.8027 42.5H62.1344Z" fill="#E53935"/>
<path d="M8.42569 46.7517C7.66352 45.437 5.86719 43.9693 5.86719 42.5017C5.8686 41.034 6.24969 39.5649 7.01185 38.246L21.731 12.7517C22.4918 11.4342 23.5727 10.3688 24.842 9.635C26.1128 8.89975 27.5748 9.91125 29.0949 9.91408L33.9951 25.5102L24.1889 42.4946L8.42569 46.7517Z" fill="#4CAF50"/>
<path d="M24.1969 42.5L15.0311 58.3667C13.9261 57.7292 12.9627 56.8508 12.2119 55.7458L7.01273 46.75C6.24773 45.4325 5.86523 43.9733 5.86523 42.5H24.1969Z" fill="#1565C0"/>
<path d="M43.1515 9.63333L33.9998 25.5L24.834 9.63333C25.939 8.99583 27.1856 8.59917 28.5173 8.51417L38.9015 8.5C40.4315 8.5 41.8906 8.89667 43.1515 9.63333Z" fill="#2E7D32"/>
</svg>
