<svg width="68" height="68" viewBox="0 0 68 68" fill="none" xmlns="http://www.w3.org/2000/svg">
<path d="M63.7507 22.9502L56.6673 26.846L49.584 33.5752V56.6669H59.5007C61.8481 56.6669 63.7507 54.7643 63.7507 52.4169V22.9502Z" fill="#4CAF50"/>
<path d="M4.25 22.9502L9.36983 25.3727L18.4167 33.5752V56.6669H8.5C6.15258 56.6669 4.25 54.7643 4.25 52.4169V22.9502Z" fill="#1E88E5"/>
<path d="M49.5833 15.8662L34 27.5537L18.4167 15.8662L17 24.0829L18.4167 33.5745L34 45.262L49.5833 33.5745L51 24.0829L49.5833 15.8662Z" fill="#E53935"/>
<path d="M4.25 17.4218V22.9497L18.4167 33.5747V15.8663L13.991 12.5499C12.937 11.7594 11.6563 11.333 10.3388 11.333C6.97567 11.333 4.25 14.0587 4.25 17.4218Z" fill="#C62828"/>
<path d="M63.7507 17.4218V22.9497L49.584 33.5747V15.8663L54.0097 12.5499C55.0637 11.7594 56.3443 11.333 57.6618 11.333C61.025 11.333 63.7507 14.0587 63.7507 17.4218Z" fill="#FBC02D"/>
</svg>
