<svg width="68" height="68" viewBox="0 0 68 68" fill="none" xmlns="http://www.w3.org/2000/svg">
<path d="M36.7417 0C31.477 3.4 30.4889 7.89703 30.4889 7.89703C30.4889 7.89703 30.4899 8.00647 30.4352 8.11591C30.1058 8.17116 29.8864 8.28059 29.6123 8.33531C29.2288 8.44475 28.8447 8.55472 28.4606 8.77413L27.3088 9.26819C26.5412 9.65175 25.7735 9.98059 25.0053 10.4194C24.2924 10.8582 23.58 11.2418 22.867 11.7353C22.8073 11.7073 22.752 11.6706 22.7029 11.6264C15.6287 8.88463 9.377 12.1741 9.377 12.1741C8.82875 19.7418 12.2282 24.4035 12.8864 25.2811C12.7218 25.7747 12.5571 26.2129 12.3924 26.6517C11.8413 28.3658 11.456 30.1288 11.2417 31.9164C11.187 32.1358 11.1864 32.4652 11.1317 32.6841C4.60584 35.9194 2.6875 42.5547 2.6875 42.5547C8.11634 48.8065 14.4775 49.19 14.4775 49.19C15.2452 50.6164 16.2317 52.0423 17.274 53.3035C17.7123 53.8517 18.2069 54.3448 18.6457 54.893C16.6716 60.5413 18.9746 65.3124 18.9746 65.3124C25.0616 65.5318 29.0641 62.6801 29.8864 61.9671C30.4899 62.1318 31.0934 62.3517 31.6964 62.5164C33.5419 63.0046 35.4371 63.2807 37.3452 63.3393H39.8123C42.6641 67.4523 47.7093 68 47.7093 68C51.274 64.2159 51.4934 60.5423 51.4934 59.6647V59.3353C52.2064 58.7865 52.9188 58.2388 53.687 57.6353C55.1128 56.3741 56.3193 54.8388 57.4163 53.3035C57.5258 53.1935 57.5805 52.9741 57.7447 52.8647C61.8029 53.0841 64.5994 50.3423 64.5994 50.3423C63.9406 46.1194 61.5288 44.0906 61.0347 43.707L60.98 43.6517L60.9253 43.5965L60.87 43.5418C60.87 43.3224 60.9253 43.0477 60.9253 42.7741C60.98 42.2801 60.98 41.8418 60.98 41.4035V39.5935C60.98 39.4841 60.98 39.3741 60.9253 39.21L60.87 38.8259L60.8153 38.4418C60.76 37.9482 60.6506 37.51 60.5959 37.0712C60.1576 35.2617 59.4452 33.5065 58.5676 32.0253C57.5805 30.4353 56.4287 29.1189 55.1123 27.9124C53.7964 26.7607 52.3158 25.7741 50.7805 25.1159C49.1899 24.403 47.6546 23.9647 46.0099 23.8005C45.2417 23.6906 44.3641 23.6906 43.5959 23.6906H42.3347C41.8964 23.7453 41.5134 23.7995 41.1287 23.8542C39.484 24.1836 38.0034 24.7871 36.6875 25.5547C35.3711 26.3229 34.2193 27.3647 33.2322 28.5164C32.2452 29.6677 31.5322 30.8741 31.0382 32.1906C30.5502 33.4527 30.2724 34.7863 30.2158 36.1383V37.5642C30.2158 37.7288 30.2158 37.8935 30.2711 38.0582C30.3258 38.7159 30.4357 39.3194 30.6546 39.9229C31.0387 41.1288 31.5875 42.2253 32.3004 43.1582C32.978 44.0482 33.792 44.8255 34.7123 45.4612C35.6452 46.0647 36.5228 46.5024 37.5099 46.7771C38.4969 47.0512 39.374 47.2159 40.2511 47.1607H41.5134C41.6228 47.1607 41.7323 47.107 41.8422 47.107C41.9517 47.107 42.0069 47.0518 42.1711 47.0518C42.3358 46.997 42.6093 46.9418 42.774 46.8871C43.1576 46.7771 43.487 46.5577 43.8705 46.4482C44.2546 46.2836 44.5293 46.0647 44.8034 45.9C44.8581 45.8453 44.9676 45.79 45.0223 45.7353C45.3517 45.5159 45.4064 45.0776 45.1323 44.7483C44.9128 44.5288 44.5288 44.4189 44.1994 44.5836C44.1447 44.6383 44.0905 44.6388 43.9805 44.6935C43.7611 44.803 43.4323 44.9129 43.2128 45.0224C42.8835 45.0771 42.6099 45.1871 42.281 45.2423C42.1163 45.2423 41.9517 45.2965 41.787 45.2965H40.4163C40.3616 45.2965 40.2517 45.297 40.1964 45.2423C39.5382 45.1329 38.8258 44.9129 38.1681 44.6383C37.5099 44.3094 36.8517 43.9264 36.3034 43.3776C35.7049 42.8329 35.1879 42.2049 34.7681 41.5129C34.3293 40.8005 34.1093 39.9776 33.9999 39.21C33.9452 38.7712 33.8899 38.3865 33.9452 37.9482V37.29C33.9452 37.0706 33.9999 36.8517 34.0552 36.6323C34.384 34.8229 35.2611 33.0677 36.6323 31.7518C37.0163 31.3677 37.3452 31.0941 37.784 30.8199C38.2228 30.4906 38.6058 30.2717 39.0447 30.107C39.4835 29.9423 39.9775 29.7229 40.4163 29.6129C40.9104 29.5035 41.4034 29.393 41.8422 29.393C42.0616 29.393 42.3358 29.3393 42.5552 29.3393H43.2128C43.7611 29.3941 44.3099 29.4482 44.8034 29.5582C45.8452 29.7776 46.8328 30.1612 47.8198 30.71C49.7393 31.8065 51.3835 33.4512 52.3705 35.4259C52.8646 36.4129 53.1929 37.4552 53.4123 38.607C53.467 38.9364 53.4676 39.1542 53.5223 39.4288V40.9094C53.5223 41.2388 53.4676 41.5129 53.4676 41.8423C53.4123 42.1717 53.4134 42.4447 53.3587 42.7741C53.3034 43.103 53.2482 43.3776 53.1934 43.7065C53.084 44.31 52.8099 44.8582 52.6457 45.4612C52.2069 46.6129 51.6029 47.7094 50.8899 48.6413C49.4641 50.6159 47.4358 52.2617 45.2428 53.3035C44.0905 53.797 42.9387 54.2358 41.7323 54.4C41.1351 54.509 40.5293 54.564 39.9223 54.5642H38.9899C38.6606 54.5642 38.3323 54.5652 38.0029 54.51C36.687 54.4005 35.4263 54.1253 34.1651 53.7965C32.9034 53.4124 31.6964 52.9741 30.5447 52.3706C28.2417 51.1647 26.2134 49.41 24.5681 47.4358C23.8004 46.3941 23.0317 45.2965 22.4287 44.1995C21.8253 43.103 21.387 41.8418 21.0581 40.6353C20.674 39.4294 20.5099 38.1677 20.4552 36.9059V34.9865C20.4552 34.3836 20.5093 33.7264 20.6193 33.0687C20.674 32.41 20.7835 31.8065 20.9482 31.1488C21.0576 30.4906 21.2775 29.8871 21.4422 29.2288C21.8258 27.9677 22.2093 26.7617 22.7576 25.61C23.8541 23.307 25.2253 21.2776 26.8705 19.6323C27.2836 19.2197 27.7235 18.835 28.1875 18.4806C28.3522 18.3159 28.7905 17.9318 29.284 17.6577C29.7775 17.3836 30.2711 17.0542 30.8193 16.8348C31.0392 16.7253 31.3134 16.6154 31.5875 16.4512C31.6969 16.3965 31.8058 16.3418 32.0252 16.2871C32.1352 16.2323 32.2452 16.1771 32.4641 16.1224C33.0128 15.903 33.5616 15.6841 34.1099 15.5194C34.2198 15.4647 34.4392 15.4642 34.5487 15.4094C34.6587 15.3547 34.877 15.3553 34.9864 15.3005C35.3158 15.2458 35.5352 15.19 35.8099 15.0806C35.9193 15.0253 36.1387 15.0253 36.2482 14.9706C36.3581 14.9706 36.5775 14.9164 36.6875 14.9164C36.7969 14.9164 37.0169 14.8617 37.1263 14.8617L37.3452 14.8065L37.5641 14.7517C37.6735 14.7517 37.8934 14.6965 38.0029 14.6965C38.1676 14.6965 38.3323 14.6412 38.4969 14.6412C38.6064 14.6412 38.88 14.5876 38.9899 14.5876C39.0994 14.5876 39.1552 14.5876 39.3193 14.5323H39.7034C39.8681 14.5323 40.0317 14.5323 40.1964 14.4776H42.6651C43.7616 14.5323 44.8581 14.6423 45.8452 14.8617C47.8746 15.2453 49.9029 15.9035 51.6576 16.7811C53.4128 17.6035 55.0576 18.6995 56.3735 19.8517C56.4287 19.9059 56.5387 19.9617 56.5934 20.0712C56.6487 20.1259 56.7581 20.1806 56.8123 20.29C56.977 20.4 57.1417 20.6194 57.3064 20.7288C57.4711 20.8388 57.6358 21.0582 57.8004 21.1682C57.9099 21.3329 58.1287 21.4965 58.2382 21.6607C58.8417 22.2642 59.3905 22.9224 59.884 23.5253C60.7932 24.6863 61.5834 25.9357 62.2428 27.2547C62.2969 27.3094 62.2959 27.3647 62.3511 27.4747C62.4058 27.5294 62.4064 27.5836 62.4611 27.6935C62.5158 27.803 62.5705 28.0229 62.68 28.1323C62.7352 28.2418 62.7905 28.4617 62.8447 28.5712C62.8999 28.6811 62.9552 28.9005 63.0099 29.01C63.2293 29.5587 63.4487 30.1065 63.6128 30.6547C63.9422 31.4771 64.1064 32.2448 64.2711 32.8488C64.3258 33.0677 64.6004 33.2871 64.8198 33.2871C65.1487 33.2871 65.3123 33.0671 65.3123 32.7383C65.1476 31.8059 65.1487 31.0393 65.0934 30.107C64.984 28.9552 64.7646 27.6383 64.4358 26.1577C64.1064 24.6771 63.4476 23.1418 62.68 21.4418C61.8576 19.797 60.8158 18.0418 59.4447 16.4512C58.8964 15.793 58.2934 15.1906 57.6905 14.5323C58.6775 10.7488 56.5387 7.40297 56.5387 7.40297C52.8646 7.18409 50.5606 8.55472 49.7382 9.15769C49.6287 9.10297 49.4099 9.04878 49.3004 8.99406C48.6969 8.77466 48.0387 8.5 47.381 8.28113C46.7223 8.11644 46.0646 7.84178 45.4064 7.73234C44.7482 7.56766 44.0358 7.40297 43.2676 7.293C43.1581 7.293 43.0482 7.23828 42.884 7.23828C41.3482 2.193 36.7417 0 36.7417 0Z" fill="url(#paint0_linear_6623_25488)"/>
<defs>
<linearGradient id="paint0_linear_6623_25488" x1="33.9443" y1="83.3324" x2="33.9443" y2="21.2746" gradientUnits="userSpaceOnUse">
<stop stop-color="#FCEE1F"/>
<stop offset="1" stop-color="#F15B2A"/>
</linearGradient>
</defs>
</svg>
