<svg width="68" height="68" viewBox="0 0 68 68" fill="none" xmlns="http://www.w3.org/2000/svg">
    <path d="M38.9955 38.8341C37.248 38.8698 35.4991 38.845 33.7508 38.845V38.9146C32.0983 38.9146 30.4456 38.9199 28.7932 38.9133C27.0379 38.9063 25.6745 39.6933 24.6125 41.0336C23.0806 42.9672 21.8784 45.2016 19.5481 46.3899C19.2905 46.5214 19.0835 47.0331 19.1114 47.3454C19.1282 47.5363 19.6185 47.7496 19.929 47.84C22.6936 48.6457 25.5015 48.7627 28.3169 48.1931C32.3039 47.387 35.8986 45.8064 38.4887 42.5032C39.0824 41.7458 39.4907 40.812 39.8434 39.9039C40.0926 39.2629 39.8182 38.8173 38.9955 38.8341ZM6.21669 33.7903C5.80391 33.2201 5.355 32.6142 4.92124 31.9974C4.58017 31.5124 4.25877 31.4028 3.7671 31.8596C1.69974 33.7807 0.959978 38.6463 2.35238 41.081L6.21669 33.7903ZM61.7391 34.8289C60.7366 34.6316 60.6402 34.2145 60.2048 33.6729C57.9308 30.8436 56.2417 28.2203 53.2582 25.2904C48.4568 20.2631 42.4893 17.6644 35.5254 17.2772C31.7469 17.0674 28.0218 17.3892 24.3105 17.9562C22.5258 18.2287 21.3554 17.5303 20.4924 16.0924C20.1665 15.5495 19.819 14.9745 19.6846 14.3689C19.1885 12.1329 18.7568 9.88167 18.3448 7.62804C18.1958 6.81309 17.9653 6.62322 17.2106 6.95763C15.9686 7.5083 15.1462 8.48858 14.7751 9.755C14.4556 10.8459 14.1695 12.003 14.1867 13.1257C14.2266 15.7084 14.4224 18.2911 14.6303 20.8672C14.7459 22.3008 14.544 23.5437 13.5554 24.6864C12.4312 25.9859 11.4638 27.4216 10.4202 28.7923C6.64965 33.7449 3.51077 39.0506 1.47476 44.968C0.43962 47.9755 -0.355128 51.0204 0.162574 54.2575C0.338417 55.3567 0.427402 56.4698 0.557823 57.5765C0.714542 58.9077 2.53274 60.5072 3.86777 60.4848C5.40016 60.4594 6.72828 59.8191 7.88693 58.9103C9.93277 57.3058 12.1919 56.098 14.5047 54.9514C17.2584 53.586 19.7877 51.882 21.9228 49.6366C22.08 49.4707 22.2052 49.2745 22.3661 49.0654C21.2765 48.8014 20.2749 48.607 19.304 48.311C18.2458 47.9883 18.0359 47.1931 18.7491 46.3299C18.9879 46.0408 19.3284 45.8384 19.6097 45.5822C20.4281 44.8368 21.2991 44.1376 22.0375 43.3189C22.7385 42.5416 23.274 41.6168 23.9253 40.7912C25.0941 39.3093 26.614 38.4738 28.5217 38.4365C29.6671 38.4138 30.8138 38.3954 31.9589 38.4215C32.8644 38.4421 33.5882 38.1501 34.3004 37.5642C36.0444 36.1295 37.5314 34.6929 39.3993 33.4319C42.3615 31.7692 44.5837 31.0572 47.432 31.3444C52.5474 31.8604 56.3647 34.5791 59.4566 38.5143C59.5705 38.6591 59.6672 38.8613 59.6462 39.0693C59.6253 39.2773 59.3267 39.1773 59.3267 39.1773C59.3267 39.1773 56.8426 36.5679 55.6775 35.3473C55.0371 36.2418 54.7038 36.8543 54.1749 37.5047C53.4529 38.3919 52.5668 39.1629 51.9476 40.1127C50.9423 41.6541 51.3704 43.9541 52.7299 44.8483C52.8457 44.6696 53.0367 44.5019 53.0638 44.3107C53.1687 43.5715 53.2285 43.0141 54.1019 42.9571C54.4982 42.9312 54.215 42.4674 54.9667 42.4269C55.2013 42.445 55.1832 42.6445 55.4178 42.6264C55.6074 42.5992 55.6916 42.2717 55.8962 42.1824C56.3023 42.0056 56.8423 42.0277 57.2421 42.044C57.9832 42.0746 58.3372 41.684 58.4337 41.2066C58.4974 40.8922 58.5264 40.645 58.6799 40.093C59.0348 41.5157 59.957 41.945 61.1013 41.9349C61.6424 41.9301 62.1989 41.817 62.7206 41.9109C63.9916 41.992 64.2166 42.2781 64.9327 42.5514C66.0369 42.9723 67.0402 43.4797 67.4213 44.7917C67.5342 44.7563 67.7552 44.7283 67.8726 44.5019C67.9898 44.2752 67.9871 43.968 67.9964 43.5821C68.1013 39.2215 65.9081 36.1319 61.7391 34.8289ZM16.8818 41.6397C17.8858 41.6237 18.0372 41.8546 17.6149 42.733C17.5206 42.9285 17.4263 43.1429 17.4096 43.3549C17.2757 45.0563 16.443 46.2734 14.9727 47.1155C14.2295 47.5411 13.5785 48.1299 12.8307 48.5457C12.4206 48.7737 11.782 49.0177 11.4561 48.8478C11.2806 48.7566 11.1815 48.5166 11.0991 48.2441C10.9416 47.7201 10.9015 47.1592 11.0253 46.6262C11.6468 43.9507 14.1854 41.684 16.8818 41.6397ZM10.8343 50.7438C10.8449 50.5166 11.8883 49.6153 12.1526 49.6579C12.4166 49.7006 12.4018 49.8881 12.4028 50.1609C12.4039 50.4334 11.3584 51.3737 10.855 51.0596C10.7376 50.9585 10.8048 50.7878 10.8343 50.7438ZM20.7137 49.8339C19.3869 51.0662 17.906 52.0532 16.4663 52.9647C15.3414 53.6761 14.1148 54.2244 12.9723 54.9108C11.2327 55.9562 9.52477 57.0543 7.80671 58.1359C6.52667 58.9421 5.28222 59.8373 3.63508 59.7949C3.66085 59.6575 3.65739 59.5605 3.68422 59.5509C5.41689 58.9405 6.69481 57.7871 7.87737 56.3898C8.59137 55.5463 9.6613 54.9633 10.6518 54.4084C12.7242 53.2468 14.4032 51.714 15.6825 49.6995C16.5954 48.2622 16.631 48.3195 18.1443 48.9833C18.9228 49.3249 19.5903 49.4462 20.7137 49.8339ZM45.0998 29.4438C47.0859 29.4025 47.9954 29.6342 49.4038 29.9649C50.5194 30.2363 51.299 30.9854 51.7548 31.591C49.9783 31.0454 49.0797 30.7518 47.3213 30.5945C43.542 30.1414 40.2243 31.326 37.3149 33.7127C36.0846 34.722 34.8645 35.7586 33.7556 36.8967C33.1 37.569 33.087 37.745 31.5113 37.645C32.9048 35.4804 34.1752 33.2879 35.4197 31.1161C39.4447 24.092 49.5599 25.2947 53.0359 29.3681C53.1777 29.5345 53.3932 29.9755 53.3932 29.9755C53.3932 29.9755 50.1037 28.2089 47.6844 28.2089C46.2272 28.2089 45.8619 28.3169 44.9612 28.4723C44.7235 28.5134 44.3261 28.7203 44.3293 29.0697C44.3327 29.419 44.8308 29.4057 45.0998 29.4438ZM66.3161 42.2192C65.2599 40.5773 63.6641 40.9328 62.1699 40.9261C61.7248 40.924 61.2793 40.9496 60.8338 40.9661C60.0819 40.993 59.4475 40.8168 59.1195 40.0397C59.035 39.8399 58.8233 39.5309 58.6475 39.4994C58.4759 39.5466 58.4188 39.6589 58.3882 39.7242C57.7101 41.1722 56.3945 41.401 55.0286 41.4301C54.2387 41.4469 53.5916 41.5568 53.203 42.3442C53.1278 42.497 52.7435 42.6725 52.677 42.6189C52.5086 42.4829 52.302 42.1749 52.3548 42.02C52.5565 41.4301 52.7703 40.8112 53.1334 40.3165C54.0543 39.0618 55.0584 37.8685 56.1145 36.5436C56.6123 37.0703 57.1584 37.6618 57.7197 38.2381C58.163 38.6933 58.5774 39.2026 59.0977 39.5458C59.3721 39.7271 59.9655 39.7546 60.1926 39.5725C60.3887 39.4154 60.4131 38.7858 60.2609 38.5013C59.9501 37.9199 59.459 37.4375 59.0627 36.8994C58.7668 36.4978 58.5033 36.0727 58.151 35.5468C61.708 34.9095 66.9908 39.2455 66.3161 42.2192Z" fill="black"/>
</svg>
