<svg width="68" height="68" viewBox="0 0 68 68" fill="none" xmlns="http://www.w3.org/2000/svg">
    <path d="M3.40039 3.40039L33.8925 64.6004L64.6004 3.40039H3.40039ZM37.5243 15.662H41.0841V19.2218H37.5243V15.662ZM30.4406 29.8653H26.9167V26.3414H30.4406V29.8653ZM30.4406 24.5435H26.9167V21.0197H30.4406V24.5435ZM30.4406 19.2218H26.9167V15.662H30.4406V19.2218ZM35.7983 35.187H32.2744V31.6272H35.7983V35.187ZM35.7983 29.8653H32.2744V26.3414H35.7983V29.8653ZM35.7983 24.5435H32.2744V21.0197H35.7983V24.5435ZM35.7983 19.2218H32.2744V15.662H35.7983V19.2218ZM37.5243 21.0197H41.0841V24.5435H37.5243V21.0197ZM37.5243 29.8653V26.3414H41.0841V29.8653H37.5243Z" fill="black"/>
</svg>
