<svg width="68" height="68" viewBox="0 0 68 68" fill="none" xmlns="http://www.w3.org/2000/svg">
    <path d="M33.7193 0C31.5395 0 29.4843 1.18331 28.4879 3.17623C27.4914 5.10688 27.5537 7.47348 28.7993 9.27957L31.3527 6.72613C31.2904 6.47702 31.2281 6.2279 31.2281 5.91651C31.2281 4.54637 32.3492 3.42535 33.7193 3.42535C35.0894 3.42535 36.2104 4.54637 36.2104 5.91651C36.2104 7.28664 35.0894 8.40767 33.7193 8.40767C33.4702 8.40767 33.2211 8.34539 32.9097 8.28311L30.3562 10.8365C32.4737 12.269 35.2763 12.2067 37.2692 10.6497C39.2621 9.09274 40.134 6.41474 39.3244 4.04814C38.5771 1.61925 36.2727 0 33.7193 0Z" fill="#31A853"/>
    <path d="M31.3531 17.3138C31.3531 15.3209 30.7303 13.328 29.4848 11.771L26.184 15.0718C27.1804 16.9402 26.869 19.3068 25.3121 20.8015L27.1182 25.161C29.7339 23.4172 31.3531 20.4901 31.3531 17.3138Z" fill="#FBBC08"/>
    <path d="M22.1352 22.0469H22.0729C20.08 22.0469 18.2739 20.7391 17.5888 18.8707C16.9038 17.0023 17.5888 14.8226 19.1458 13.577C20.7651 12.3314 22.9448 12.2691 24.6264 13.3902L27.8649 10.1517C24.6887 7.59822 20.2046 7.3491 16.8415 9.65342C13.4784 11.9577 11.9837 16.1304 13.167 20.054C14.3503 23.9776 17.9625 26.6556 22.0107 26.6556C22.6334 26.6556 23.2562 26.5933 23.879 26.4688L22.1352 22.0469Z" fill="#E84336"/>
    <path d="M33.8442 25.7838C31.789 25.7838 29.7338 26.0952 27.7408 26.6557L30.3565 33.0081C31.4776 32.759 32.6609 32.5722 33.8442 32.5722C40.6326 32.5722 46.4868 37.3677 47.7947 44.0315C49.1025 50.6954 45.5526 57.3592 39.3247 59.9127C33.0968 62.4661 25.8102 60.4109 22.0112 54.8058C18.2744 49.2007 18.9595 41.6649 23.755 36.8694C24.7514 35.873 25.8725 35.001 27.118 34.3783L24.5646 28.0258C14.9736 32.759 10.365 43.9069 13.9772 53.9961C17.5893 64.0854 28.1768 69.8773 38.5774 67.4484C49.0402 65.0195 55.9532 55.1795 54.7699 44.5297C53.5866 33.88 44.6184 25.7838 33.8442 25.7838Z" fill="#517BBD"/>
</svg>
