<svg width="62" height="68" viewBox="0 0 62 68" fill="none" xmlns="http://www.w3.org/2000/svg">
<path fill-rule="evenodd" clip-rule="evenodd" d="M41.2259 6.80578C39.8862 5.47345 38.0906 4.72797 36.2212 4.72797C34.3518 4.72797 32.5561 5.47345 31.2165 6.80578L4.52654 33.5522C4.07991 33.9958 3.48161 34.244 2.85877 34.244C2.23593 34.244 1.63763 33.9958 1.191 33.5522C0.972332 33.3349 0.798521 33.075 0.679835 32.7879C0.56115 32.5008 0.5 32.1922 0.5 31.8806C0.5 31.5689 0.56115 31.2603 0.679835 30.9732C0.798521 30.6861 0.972332 30.4262 1.191 30.2089L27.8809 3.46247C30.1135 1.24227 33.1059 0 36.2212 0C39.3365 0 42.3288 1.24227 44.5614 3.46247C45.8533 4.74626 46.8292 6.32439 47.4095 8.06771C47.9897 9.81102 48.1577 11.67 47.8997 13.4924C49.7068 13.2297 51.5488 13.3946 53.2838 13.9743C55.0187 14.5539 56.6002 15.5329 57.9064 16.8357L58.045 16.9774C59.1383 18.0639 60.0074 19.3633 60.6008 20.799C61.1942 22.2346 61.5 23.7772 61.5 25.3356C61.5 26.894 61.1942 28.4367 60.6008 29.8723C60.0074 31.3079 59.1383 32.6073 58.045 33.6939L33.906 57.8818C33.8331 57.9542 33.7752 58.0407 33.7356 58.1364C33.6961 58.232 33.6757 58.3347 33.6757 58.4386C33.6757 58.5424 33.6961 58.6451 33.7356 58.7408C33.7752 58.8364 33.8331 58.923 33.906 58.9953L38.8635 63.9649C39.0822 64.1822 39.256 64.4421 39.3747 64.7292C39.4934 65.0164 39.5545 65.3249 39.5545 65.6366C39.5545 65.9483 39.4934 66.2568 39.3747 66.5439C39.256 66.831 39.0822 67.0909 38.8635 67.3082C38.4169 67.7518 37.8186 68 37.1958 68C36.5729 68 35.9746 67.7518 35.528 67.3082L30.5704 62.3414C30.0598 61.8344 29.6539 61.2279 29.3767 60.5578C29.0996 59.8876 28.9567 59.1675 28.9567 58.44C28.9567 57.7124 29.0996 56.9923 29.3767 56.3222C29.6539 55.652 30.0598 55.0455 30.5704 54.5385L54.7095 30.3477C55.3651 29.6956 55.8862 28.9159 56.2421 28.0545C56.5979 27.1932 56.7813 26.2677 56.7813 25.3328C56.7813 24.3978 56.5979 23.4724 56.2421 22.611C55.8862 21.7497 55.3651 20.9699 54.7095 20.3178L54.5708 20.179C53.2326 18.8481 51.4394 18.1026 49.572 18.1011C47.7046 18.0995 45.9101 18.8418 44.5697 20.1705L24.684 40.1L24.6785 40.1056L24.4067 40.3805C23.96 40.8249 23.3611 41.0736 22.7376 41.0736C22.1141 41.0736 21.5152 40.8249 21.0684 40.3805C20.8498 40.1632 20.6759 39.9033 20.5573 39.6162C20.4386 39.329 20.3774 39.0205 20.3774 38.7088C20.3774 38.3971 20.4386 38.0886 20.5573 37.8015C20.6759 37.5144 20.8498 37.2545 21.0684 37.0372L41.2342 16.8272C41.888 16.1746 42.4074 15.395 42.7618 14.5341C43.1162 13.6732 43.2983 12.7486 43.2976 11.8147C43.2968 10.8808 43.1131 9.95645 42.7573 9.09621C42.4015 8.23596 41.8808 7.45719 41.2259 6.80578Z" fill="#24292F"/>
<path fill-rule="evenodd" clip-rule="evenodd" d="M37.8903 13.4924C38.109 13.2751 38.2828 13.0152 38.4015 12.7281C38.5202 12.4409 38.5813 12.1324 38.5813 11.8207C38.5813 11.509 38.5202 11.2005 38.4015 10.9134C38.2828 10.6263 38.109 10.3664 37.8903 10.1491C37.4436 9.70463 36.8447 9.45593 36.2212 9.45593C35.5976 9.45593 34.9988 9.70463 34.552 10.1491L14.8132 29.9312C13.7199 31.0178 12.8508 32.3172 12.2574 33.7528C11.664 35.1884 11.3582 36.7311 11.3582 38.2895C11.3582 39.8479 11.664 41.3905 12.2574 42.8262C12.8508 44.2618 13.7199 45.5612 14.8132 46.6478C17.0462 48.8673 20.0384 50.1091 23.1535 50.1091C26.2686 50.1091 29.2608 48.8673 31.4937 46.6478L51.2353 26.8656C51.4539 26.6483 51.6278 26.3884 51.7464 26.1013C51.8651 25.8142 51.9263 25.5056 51.9263 25.1939C51.9263 24.8823 51.8651 24.5737 51.7464 24.2866C51.6278 23.9995 51.4539 23.7396 51.2353 23.5223C50.7885 23.0778 50.1896 22.8291 49.5661 22.8291C48.9426 22.8291 48.3437 23.0778 47.897 23.5223L28.1582 43.3044C26.8185 44.6368 25.0229 45.3823 23.1535 45.3823C21.2841 45.3823 19.4885 44.6368 18.1488 43.3044C17.4931 42.6523 16.972 41.8726 16.6162 41.0112C16.2603 40.1499 16.077 39.2244 16.077 38.2895C16.077 37.3545 16.2603 36.4291 16.6162 35.5677C16.972 34.7064 17.4931 33.9267 18.1488 33.2745L37.8903 13.4924Z" fill="#24292F"/>
</svg>
