<svg version="1.1" id="Layer_1" xmlns:x="ns_extend;" xmlns:i="ns_ai;" xmlns:graph="ns_graphs;" xmlns="http://www.w3.org/2000/svg" xmlns:xlink="http://www.w3.org/1999/xlink" x="0px" y="0px" viewBox="0 0 50.9 56" style="enable-background:new 0 0 50.9 56;" xml:space="preserve">
 <style type="text/css">
  .st0{fill:url(#SVGID_1_);}
	.st1{fill:url(#SVGID_2_);}
	.st2{fill:url(#SVGID_3_);}
	.st3{fill:url(#SVGID_4_);}
	.st4{fill:url(#SVGID_5_);}
	.st5{fill:url(#SVGID_6_);}
	.st6{fill:url(#SVGID_7_);}
	.st7{fill:url(#SVGID_8_);}
 </style>
 <metadata>
  <sfw xmlns="ns_sfw;">
   <slices>
   </slices>
   <sliceSourceBounds bottomLeftOrigin="true" height="56" width="50.9" x="27.9" y="-337.3">
   </sliceSourceBounds>
  </sfw>
 </metadata>
 <g>
  <g>
   <radialGradient id="SVGID_1_" cx="-9.3666" cy="128.8453" r="1.4931" gradientTransform="matrix(-9.9735 26.6356 46.4579 17.3958 -6062.2207 -1980.8879)" gradientUnits="userSpaceOnUse">
    <stop offset="6.441000e-02" style="stop-color:#AE7FE2">
    </stop>
    <stop offset="1" style="stop-color:#0078D4">
    </stop>
   </radialGradient>
   <path class="st0" d="M20.5,1.3l-0.3,0.2c-0.5,0.3-0.9,0.6-1.3,0.9l0.8-0.6h7l1.3,9.6l-6.4,6.4l-6.4,4.4v5.1c0,3.6,1.9,6.9,4.9,8.7
			l6.7,4.1l-14.2,8.3H10l-5.1-3.1c-3-1.8-4.9-5.1-4.9-8.7V19.4c0-3.6,1.9-6.9,4.9-8.7l15.3-9.2C20.3,1.4,20.4,1.4,20.5,1.3z">
   </path>
   <linearGradient id="SVGID_2_" gradientUnits="userSpaceOnUse" x1="210.2598" y1="-656.236" x2="201.171" y2="-640.5163" gradientTransform="matrix(0.6667 0 0 -0.6667 -114.9763 -396.4654)">
    <stop offset="0" style="stop-color:#114A8B">
    </stop>
    <stop offset="1" style="stop-color:#0078D4;stop-opacity:0">
    </stop>
   </linearGradient>
   <path class="st1" d="M20.5,1.3l-0.3,0.2c-0.5,0.3-0.9,0.6-1.3,0.9l0.8-0.6h7l1.3,9.6l-6.4,6.4l-6.4,4.4v5.1c0,3.6,1.9,6.9,4.9,8.7
			l6.7,4.1l-14.2,8.3H10l-5.1-3.1c-3-1.8-4.9-5.1-4.9-8.7V19.4c0-3.6,1.9-6.9,4.9-8.7l15.3-9.2C20.3,1.4,20.4,1.4,20.5,1.3z">
   </path>
   <radialGradient id="SVGID_3_" cx="-21.2446" cy="81.6108" r="1.4931" gradientTransform="matrix(26.1862 -3.8515 -2.5442 -17.2977 772.1304 1373.5771)" gradientUnits="userSpaceOnUse">
    <stop offset="0.1339" style="stop-color:#D59DFF">
    </stop>
    <stop offset="1" style="stop-color:#5E438F">
    </stop>
   </radialGradient>
   <path class="st2" d="M35.6,21.6v5.7c0,3.6-1.9,6.9-4.9,8.7l-15.3,9.2c-3.1,1.9-7,2-10.2,0.2l14.9,9c3.2,2,7.3,2,10.5,0L46,45.3
			c3-1.8,4.9-5.1,4.9-8.7v-4.1l-1.3-1.9L35.6,21.6z">
   </path>
   <linearGradient id="SVGID_4_" gradientUnits="userSpaceOnUse" x1="232.59" y1="-632.849" x2="222.8506" y2="-646.8142" gradientTransform="matrix(0.6667 0 0 -0.6667 -114.9763 -396.4654)">
    <stop offset="0" style="stop-color:#493474">
    </stop>
    <stop offset="1" style="stop-color:#8C66BA;stop-opacity:0">
    </stop>
   </linearGradient>
   <path class="st3" d="M35.6,21.6v5.7c0,3.6-1.9,6.9-4.9,8.7l-15.3,9.2c-3.1,1.9-7,2-10.2,0.2l14.9,9c3.2,2,7.3,2,10.5,0L46,45.3
			c3-1.8,4.9-5.1,4.9-8.7v-4.1l-1.3-1.9L35.6,21.6z">
   </path>
   <radialGradient id="SVGID_5_" cx="-46.0572" cy="135.1046" r="1.4931" gradientTransform="matrix(-20.593 -5.2215 -8.79 34.6664 286.2731 -4892.8984)" gradientUnits="userSpaceOnUse">
    <stop offset="5.849960e-02" style="stop-color:#50E6FF">
    </stop>
    <stop offset="1" style="stop-color:#436DCD">
    </stop>
   </radialGradient>
   <path class="st4" d="M46,10.7L30.7,1.5c-3.1-1.9-7-2-10.2-0.2l-0.3,0.2c-3,1.8-4.9,5.1-4.9,8.7v12.1l4.9-3c3.2-2,7.3-2,10.5,0
			L46,28.5c3,1.8,4.8,4.9,4.9,8.4c0-0.1,0-0.2,0-0.3V19.4C50.9,15.9,49,12.6,46,10.7z">
   </path>
   <linearGradient id="SVGID_6_" gradientUnits="userSpaceOnUse" x1="197.2375" y1="-622.3778" x2="211.5773" y2="-622.3778" gradientTransform="matrix(0.6667 0 0 -0.6667 -114.9763 -396.4654)">
    <stop offset="0" style="stop-color:#2D3F80">
    </stop>
    <stop offset="1" style="stop-color:#436DCD;stop-opacity:0">
    </stop>
   </linearGradient>
   <path class="st5" d="M46,10.7L30.7,1.5c-3.1-1.9-7-2-10.2-0.2l-0.3,0.2c-3,1.8-4.9,5.1-4.9,8.7v12.1l4.9-3c3.2-2,7.3-2,10.5,0
			L46,28.5c3,1.8,4.8,4.9,4.9,8.4c0-0.1,0-0.2,0-0.3V19.4C50.9,15.9,49,12.6,46,10.7z">
   </path>
   <radialGradient id="SVGID_7_" cx="-43.9717" cy="135.5837" r="0" gradientTransform="matrix(-20.593 -5.2215 -8.79 34.6664 286.2731 -4892.8984)" gradientUnits="userSpaceOnUse">
    <stop offset="5.849960e-02" style="stop-color:#50E6FF">
    </stop>
    <stop offset="1" style="stop-color:#436DCD">
    </stop>
   </radialGradient>
   <path class="st6" d="M0,36.9L0,36.9z">
   </path>
   <linearGradient id="SVGID_8_" gradientUnits="userSpaceOnUse" x1="172.4726" y1="-650.0573" x2="172.4726" y2="-650.0573" gradientTransform="matrix(0.6667 0 0 -0.6667 -114.9763 -396.4654)">
    <stop offset="0" style="stop-color:#2D3F80">
    </stop>
    <stop offset="1" style="stop-color:#436DCD;stop-opacity:0">
    </stop>
   </linearGradient>
   <path class="st7" d="M0,36.9L0,36.9z">
   </path>
  </g>
 </g>
</svg>