<svg width="68" height="68" viewBox="0 0 68 68" fill="none" xmlns="http://www.w3.org/2000/svg">
<path fill-rule="evenodd" clip-rule="evenodd" d="M55.727 45.9924C51.2347 45.9924 47.102 42.235 47.102 36.8085C47.102 31.382 51.227 27.6246 55.727 27.6246C58.2449 27.6246 60.4413 28.7374 61.6046 30.5741V27.9524H65.0332V40.7336C65.0332 41.9301 65.2934 42.4484 66.3572 42.4484H67V45.6799H65.5077C63.6327 45.6799 62.1556 44.933 61.8878 42.8981C60.5026 44.994 58.3061 46 55.727 46V45.9924ZM61.6352 36.8085C61.6352 33.6227 59.2092 31.0467 56.2092 31.0467C53.2015 31.0467 50.7755 33.6227 50.7755 36.8085C50.7755 39.9943 53.2015 42.5703 56.2092 42.5703C59.2092 42.5703 61.6352 39.9943 61.6352 36.8085ZM38.0867 22H41.6684V27.9524H46.2296V31.1839H41.6684V40.7336C41.6684 41.9682 41.9286 42.4484 43.1913 42.4484H46.2296V45.6799H42.0587C39.8929 45.6799 38.0867 44.4757 38.0867 41.5719V22ZM21.7704 22H25.352V34.7812H26.4541L31.3444 27.9447H35.3776L29.4005 36.0311L37.1837 45.6723H32.6531L26.5536 38.0737H25.352V45.6723H21.7704V22ZM10.1378 45.9924C5.08674 45.9924 1 41.892 1 36.8085C1 31.7326 5.08674 27.6323 10.1378 27.6323C15.1964 27.6323 19.2832 31.7326 19.2832 36.8085C19.2832 41.892 15.1964 45.9924 10.1378 45.9924ZM15.602 36.8085C15.602 33.6227 13.1607 31.0467 10.1378 31.0467C7.12245 31.0467 4.68113 33.6227 4.68113 36.8085C4.68113 40.0019 7.12245 42.578 10.1378 42.578C13.1607 42.578 15.602 40.0019 15.602 36.8085Z" fill="black"/>
</svg>
