<svg width="80" height="68" viewBox="0 0 80 68" fill="none" xmlns="http://www.w3.org/2000/svg">
    <path d="M25.2401 9.00003C21.9241 8.99476 18.6396 9.64402 15.575 10.9106C12.5103 12.1771 9.72581 14.0361 7.38101 16.3809C5.03621 18.7257 3.17724 21.5102 1.91068 24.5749C0.644113 27.6395 -0.00523596 30.924 3.17949e-05 34.24C3.17949e-05 40.9341 2.65931 47.354 7.39273 52.0874C12.1261 56.8208 18.5461 59.48 25.2401 59.48H54.76C58.0746 59.48 61.3567 58.8272 64.419 57.5587C67.4812 56.2903 70.2637 54.4311 72.6074 52.0874C74.9512 49.7436 76.8103 46.9612 78.0787 43.899C79.3472 40.8367 80 37.5546 80 34.24C80 27.546 77.3408 21.1261 72.6074 16.3927C67.874 11.6592 61.4541 9.00003 54.76 9.00003H25.2401ZM54.2001 18.04C56.3782 18.0505 58.5328 18.4905 60.5405 19.335C62.5483 20.1794 64.3698 21.4116 65.9006 22.961C67.4315 24.5104 68.6415 26.3466 69.4617 28.3644C70.2818 30.3822 70.6959 32.542 70.6801 34.72C70.659 39.0843 68.916 43.2639 65.83 46.3499C62.7439 49.436 58.5644 51.179 54.2001 51.2H26.2001C24.0254 51.2105 21.8699 50.7926 19.8567 49.9701C17.8435 49.1476 16.0121 47.9366 14.4669 46.4063C12.9218 44.876 11.6931 43.0563 10.8512 41.0512C10.0093 39.0461 9.57057 36.8947 9.56009 34.72C9.58112 30.3557 11.3241 26.1762 14.4102 23.0901C17.4962 20.0041 21.6758 18.2611 26.0401 18.24L54.2001 18.04Z" fill="#E30613"/>
</svg>
