<svg width="68" height="68" viewBox="0 0 68 68" fill="none" xmlns="http://www.w3.org/2000/svg">
    <path fill-rule="evenodd" clip-rule="evenodd" d="M0 50.6516H34.3689L68 17H0V50.6516Z" fill="#225FBC"/>
    <path fill-rule="evenodd" clip-rule="evenodd" d="M40.3527 23.3325H33.6511V39.2566L27.8102 23.3325H22.0103L17.0302 36.6333C16.4973 33.2722 13.0338 32.1246 10.2876 31.2433C8.48408 30.6695 6.57812 29.8087 6.59861 28.866C6.6191 28.0872 7.62332 27.3699 9.63176 27.4929C10.9844 27.5748 12.1731 27.6773 14.5299 28.8045L16.8662 24.7466C14.7143 23.6399 11.7222 22.9636 9.28336 22.9431H9.26287C6.41416 22.9431 4.03683 23.8654 2.56124 25.3819C1.53652 26.4476 0.983178 27.8003 0.962684 29.2759C0.921696 31.3253 1.67998 32.7804 3.25804 33.9485C4.59017 34.9323 6.31169 35.5676 7.80777 36.039C9.67275 36.6128 11.1893 37.1047 11.1688 38.1704C11.1688 38.5598 11.0049 38.9287 10.7385 39.2156C10.2671 39.6869 9.57028 39.8714 8.58655 39.8919C6.68059 39.9329 5.28698 39.6255 3.0531 38.3138L0.983178 42.4127C3.21705 43.6833 5.86082 44.4211 8.56606 44.4211H8.91446C11.2713 44.3801 13.1568 43.7038 14.6734 42.4947C14.7553 42.4332 14.8373 42.3512 14.9193 42.2897L14.243 44.0932H20.2888L21.3135 40.9986C22.3792 41.3675 23.5884 41.5724 24.8795 41.5724C26.1297 41.5724 27.3183 41.388 28.3635 41.0396L29.3473 44.1137H39.2665V37.699H41.4389C46.6649 37.699 49.7596 35.0347 49.7596 30.567C49.7596 25.6074 46.7674 23.3325 40.3527 23.3325ZM24.8795 36.9407C24.1007 36.9407 23.3629 36.7973 22.7276 36.5718L24.859 29.8702H24.9L26.9699 36.5923C26.3551 36.8177 25.6583 36.9407 24.8795 36.9407ZM40.7626 33.1083H39.287V27.6978H40.7626C42.73 27.6978 44.2876 28.3536 44.2876 30.3621C44.2876 32.4525 42.73 33.1083 40.7626 33.1083Z" fill="white"/>
    <path d="M42.5864 48.4574C42.5864 47.4327 43.3652 46.6335 44.3694 46.6335C45.3532 46.6335 46.132 47.4122 46.132 48.4574C46.132 49.5026 45.3532 50.2814 44.3694 50.2814C43.3652 50.2814 42.5864 49.5026 42.5864 48.4574ZM44.3694 50.6503C45.5581 50.6503 46.5828 49.7281 46.5828 48.4574C46.5828 47.2073 45.5581 46.285 44.3694 46.285C43.1603 46.285 42.1561 47.2073 42.1561 48.4574C42.1561 49.7281 43.1603 50.6503 44.3694 50.6503ZM43.8981 48.6214H44.3285L44.9843 49.7076H45.4147L44.6974 48.6009C45.0662 48.5599 45.3532 48.355 45.3532 47.9041C45.3532 47.4122 45.0662 47.1868 44.4719 47.1868H43.5087V49.7076H43.8981V48.6214ZM43.8981 48.314V47.5352H44.4104C44.6769 47.5352 44.9433 47.5967 44.9433 47.9041C44.9433 48.2935 44.6564 48.314 44.3285 48.314H43.8981Z" fill="#225FBC"/>
</svg>
