<svg width="68" height="68" viewBox="0 0 68 68" fill="none" xmlns="http://www.w3.org/2000/svg">
    <path d="M56.9836 31.169C56.8438 31.6585 56.6882 32.1436 56.519 32.6196C56.3407 33.1206 56.149 33.6124 55.9393 34.0975L48.9217 33.9501C48.9217 34.0929 48.9217 34.2335 48.9171 34.3763L67.9917 34.7775C68.0161 33.6464 67.987 32.5176 67.899 31.3979L56.9836 31.169Z" fill="black"/>
    <path d="M42.2583 0.861332L42.0665 1.3396C43.1245 1.73853 44.1486 2.21226 45.1343 2.74946L38.3469 19.6565C38.7597 19.7835 39.1725 19.9308 39.5807 20.0963C39.601 20.1053 39.6213 20.1121 39.6394 20.1212L46.7743 2.346C46.7539 2.33693 46.7336 2.33013 46.7156 2.32106C45.2449 1.72493 43.7561 1.23987 42.2583 0.861332Z" fill="black"/>
    <path d="M49.0818 5.43773C49.9322 6.14719 50.7353 6.9133 51.4841 7.73162L41.8003 21.2183C42.1387 21.4268 42.468 21.6467 42.7838 21.8779L53.9474 6.33307C52.7496 5.46266 51.4841 4.66253 50.1555 3.94399L49.0818 5.43773Z" fill="black"/>
    <path d="M54.2068 11.3175C54.7843 12.2423 55.3008 13.2079 55.7542 14.2098L44.7508 23.6006C44.9809 23.8408 45.202 24.0879 45.4162 24.344L59.9567 11.934C59.0566 10.8642 58.0889 9.84642 57.0558 8.88762L54.2068 11.3175Z" fill="black"/>
    <path d="M62.5124 15.3975L57.128 18.0948C57.3987 19.1307 57.604 20.1937 57.7393 21.2795L47.0066 26.656C47.1374 26.8917 47.2637 27.1297 47.381 27.37L64.4501 18.8201C63.8704 17.6437 63.2252 16.5013 62.5124 15.3975Z" fill="black"/>
    <path d="M57.9265 24.9243C57.904 25.9987 57.8115 27.0595 57.6536 28.0976L48.4277 30.1784C48.4795 30.3779 48.5292 30.5774 48.572 30.7791L67.1837 26.5812C66.9179 25.389 66.5907 24.2126 66.2005 23.0566L57.9265 24.9243Z" fill="black"/>
    <path d="M67.4883 39.9002L54.7685 36.4639C54.2903 37.3094 53.7647 38.1276 53.194 38.9074L48.475 37.6335C48.4479 37.74 48.4208 37.8443 48.3915 37.9508L66.8118 42.9262C67.0849 41.9198 67.3103 40.9134 67.4883 39.9002Z" fill="black"/>
    <path d="M51.7571 40.6958C51.1751 41.3554 50.557 41.9832 49.9074 42.5748L47.1644 41.0539C47.1215 41.1355 47.0765 41.2171 47.0313 41.2987L63.7327 50.558C64.1816 49.7398 64.6012 48.8988 64.9891 48.033L51.7571 40.6958Z" fill="black"/>
    <path d="M48.3149 43.9121C47.6878 44.3949 47.0359 44.846 46.3636 45.2676L45.0666 44.064C45.0192 44.1184 44.9696 44.1705 44.92 44.2249L58.9326 57.2333C59.5055 56.6145 60.0559 55.9709 60.5838 55.3045L48.3149 43.9121Z" fill="black"/>
    <path d="M54.5158 61.2431L44.6628 46.2377C44.2726 46.4395 43.8778 46.6299 43.4763 46.8112C43.4763 46.8112 42.7522 47.124 42.5876 47.192L52.6729 62.5487C53.3023 62.1339 53.9136 61.6987 54.5158 61.2431Z" fill="black"/>
    <path d="M40.9138 47.7949C40.7469 47.8471 39.6889 48.1553 39.3754 48.2324C39.3754 48.2324 39.0799 48.3049 38.9987 48.3231L45.326 66.2049C45.9486 65.9827 46.5644 65.7447 47.1734 65.4863L40.9138 47.7949Z" fill="black"/>
    <path d="M37.1107 48.6631C36.5558 48.7832 35.9941 48.8694 35.4257 48.926L37.3295 68C37.8957 67.9436 38.4596 67.8728 39.0191 67.7892L37.1107 48.6631Z" fill="black"/>
    <path d="M33.2511 48.9759C32.7774 48.9509 32.3037 48.9056 31.83 48.8353L29.1344 67.8144C29.6058 67.8824 30.0795 67.9408 30.551 67.9912L33.2511 48.9759Z" fill="black"/>
    <path d="M11.0164 36.8311C11.1563 36.3415 11.3119 35.8564 11.4811 35.3804C11.6593 34.8795 11.851 34.3876 12.0608 33.9026L19.0784 34.0499C19.0784 33.9071 19.0784 33.7666 19.0829 33.6238L0.00847745 33.2226C-0.0163378 34.3536 0.0129844 35.4824 0.100958 36.6022L11.0164 36.8311Z" fill="black"/>
    <path d="M25.744 67.1387L25.9358 66.6605C24.8778 66.2615 23.8537 65.7878 22.868 65.2505L29.6554 48.3435C29.2426 48.2165 28.8298 48.0692 28.4216 47.9037C28.4013 47.8947 28.381 47.8879 28.3629 47.8788L21.2281 65.654C21.2484 65.6631 21.2687 65.6699 21.2867 65.6789C22.7574 66.2751 24.2462 66.7602 25.744 67.1387Z" fill="black"/>
    <path d="M18.9182 62.5623C18.0679 61.8529 17.2648 61.0867 16.5159 60.2685L26.1997 46.7817C25.8614 46.5732 25.5321 46.3533 25.2162 46.1221L14.0526 61.667C15.2504 62.5373 16.5159 63.3375 17.8445 64.0561L18.9182 62.5623Z" fill="black"/>
    <path d="M13.7932 56.6826C13.2158 55.7578 12.6992 54.7922 12.2458 53.7903L23.2492 44.3995C23.0191 44.1592 22.7981 43.9122 22.5838 43.656L8.04335 56.0661C8.94339 57.1359 9.91109 58.1537 10.9442 59.1125L13.7932 56.6826Z" fill="black"/>
    <path d="M5.48988 52.6025L10.8743 49.9053C10.6036 48.8693 10.3983 47.8063 10.263 46.7205L20.9957 41.344C20.8649 41.1083 20.7386 40.8703 20.6213 40.63L3.54996 49.1799C4.12969 50.3563 4.77708 51.4987 5.48988 52.6025Z" fill="black"/>
    <path d="M10.0735 43.0758C10.096 42.0014 10.1885 40.9406 10.3464 39.9024L19.5723 37.8216C19.5205 37.6222 19.4708 37.4227 19.428 37.221L0.815992 41.4166C1.08217 42.6088 1.40925 43.7852 1.79949 44.9412L10.0735 43.0758Z" fill="black"/>
    <path d="M0.511503 28.0999L13.2315 31.5361C13.7098 30.6907 14.2353 29.8724 14.8061 29.0927L19.525 30.3665C19.5521 30.26 19.5792 30.1557 19.6085 30.0492L1.18597 25.0716C0.91302 26.078 0.689703 27.0867 0.511503 28.0999Z" fill="black"/>
    <path d="M16.2429 27.3043C16.8249 26.6447 17.443 26.0168 18.0927 25.4252L20.8356 26.9461C20.8785 26.8645 20.9236 26.7829 20.9687 26.7013L4.2673 17.4397C3.81842 18.258 3.39885 19.099 3.01087 19.9648L16.2429 27.3043Z" fill="black"/>
    <path d="M19.6874 24.0879C20.3146 23.6051 20.9664 23.154 21.6386 22.7324L22.9357 23.936C22.9831 23.8816 23.0327 23.8295 23.0823 23.7751L9.06973 10.7667C8.49675 11.3855 7.94638 12.0292 7.41854 12.6956L19.6874 24.0879Z" fill="black"/>
    <path d="M13.4865 6.7569L23.3395 21.7623C23.7297 21.5605 24.1245 21.3701 24.526 21.1888C24.526 21.1888 25.2501 20.876 25.4147 20.808L15.3316 5.45134C14.7023 5.86614 14.0887 6.30134 13.4865 6.7569Z" fill="black"/>
    <path d="M27.0862 20.2051C27.2532 20.153 28.3111 19.8447 28.6247 19.7676C28.6247 19.7676 28.9201 19.6951 29.0013 19.677L22.674 1.79521C22.0514 2.01735 21.4357 2.25535 20.8266 2.51375L27.0862 20.2051Z" fill="black"/>
    <path d="M30.8894 19.3369C31.4443 19.2168 32.006 19.1307 32.5745 19.074L30.6729 0C30.1067 0.0566665 29.5428 0.126934 28.9833 0.2108L30.8894 19.3369Z" fill="black"/>
    <path d="M34.7512 19.0241C35.2249 19.0491 35.6986 19.0944 36.1723 19.1647L38.8656 0.185848C38.3942 0.117848 37.9205 0.0589146 37.4491 0.00904808L34.7512 19.0241Z" fill="black"/>
</svg>
