<svg width="68" height="68" viewBox="0 0 68 68" fill="none" xmlns="http://www.w3.org/2000/svg">
    <path d="M58.3493 51.7425L43.9346 43.4575C41.8977 42.3632 39.3908 42.9885 38.1373 45.0207C37.6673 45.8023 37.5106 46.7402 37.6673 47.5218V63.7793C37.6673 66.1241 39.5475 68 41.8977 68C44.2479 68 46.1281 66.1241 46.1281 63.7793V54.4L54.1189 59.0897C56.1557 60.1839 58.6627 59.5586 59.9161 57.5264C61.0129 55.4943 60.3862 52.9931 58.3493 51.7425Z" fill="#29B5E8"/>
    <path d="M22.4695 34.0781C22.4695 32.5148 21.6861 31.2643 20.4326 30.4827L6.17457 22.0413C5.54784 21.7287 4.76443 21.416 4.1377 21.416C2.72757 21.416 1.31743 22.1976 0.534019 23.4482C-0.562754 25.4804 0.0639736 27.9815 2.10084 29.0758L10.405 33.9217L2.10084 38.7677C1.16075 39.393 0.534019 40.1746 0.220656 41.2689C-0.0927082 42.3631 0.0639736 43.4574 0.690701 44.3953C1.47411 45.6459 2.72756 46.4275 4.29438 46.4275C5.07779 46.4275 5.70452 46.2711 6.33125 45.8022L20.746 37.5171C21.6861 36.8919 22.6262 35.485 22.4695 34.0781Z" fill="#29B5E8"/>
    <path d="M9.30914 16.2575L23.7239 24.5425C25.4474 25.4804 27.4842 25.1678 28.7377 23.9172C29.5211 23.1356 30.1478 22.0414 30.1478 20.7908V4.22069C30.1478 1.87586 28.2676 0 25.9174 0C23.5672 0 21.687 1.87586 21.687 4.22069V13.6L13.5395 8.91034C11.5027 7.81608 8.99578 8.44137 7.74232 10.4736C6.64555 12.5057 7.27227 15.0069 9.30914 16.2575Z" fill="#29B5E8"/>
    <path d="M41.7419 34.7035C41.7419 35.0161 41.5852 35.4851 41.2718 35.6414L35.6313 41.269C35.4746 41.4253 35.0045 41.7379 34.6912 41.7379H33.281C32.9677 41.7379 32.4976 41.5816 32.341 41.269L26.7004 35.6414C26.5437 35.4851 26.2304 35.0161 26.2304 34.7035V33.2966C26.2304 32.9839 26.387 32.515 26.7004 32.3586L32.341 26.731C32.4976 26.5747 32.9677 26.2621 33.281 26.2621H34.6912C35.0045 26.2621 35.4746 26.4184 35.6313 26.731L41.2718 32.3586C41.4285 32.515 41.7419 32.9839 41.7419 33.2966V34.7035ZM36.5714 34.0782C36.5714 33.7655 36.4147 33.4529 36.258 33.2966L34.5345 31.577C34.3778 31.4207 34.0645 31.2644 33.9078 31.2644C33.7511 31.2644 33.281 31.4207 33.1244 31.577L31.4009 33.2966C31.2442 33.4529 31.0875 33.7655 31.0875 34.0782C31.0875 34.3908 31.2442 34.7035 31.4009 34.8598L33.1244 36.5793C33.281 36.7356 33.5944 36.892 33.9078 36.892C34.2211 36.892 34.5345 36.7356 34.6912 36.5793L36.4147 34.8598C36.4147 34.5471 36.5714 34.2345 36.5714 34.0782Z" fill="#29B5E8"/>
    <path d="M43.9348 24.5425L58.3495 16.2575C60.3863 15.1632 61.0131 12.5057 59.9163 10.4736C58.8195 8.44137 56.1559 7.81608 54.1191 8.91034L46.1283 13.6V4.22069C46.1283 1.87586 44.2481 0 41.8979 0C39.5477 0 37.6675 1.87586 37.6675 4.22069V20.4781C37.5108 21.2598 37.8242 22.1977 38.1375 22.9793C39.391 25.0115 41.8979 25.6368 43.9348 24.5425Z" fill="#29B5E8"/>
    <path d="M26.5441 42.9885C25.6041 42.8322 24.5073 42.9885 23.7239 43.4575L9.30914 51.7425C7.27227 52.8368 6.64555 55.4942 7.74232 57.5264C8.83909 59.5586 11.5027 60.1839 13.5395 59.0896L21.687 54.4V63.7793C21.687 66.1241 23.5672 68 25.9174 68C28.2676 68 30.1478 66.1241 30.1478 63.7793V47.2092C30.1478 45.0207 28.581 43.3011 26.5441 42.9885Z" fill="#29B5E8"/>
    <path d="M67.28 23.6045C66.1832 21.5724 63.5196 20.9471 61.4828 22.0413L47.068 30.3264C45.6579 31.108 44.8745 32.5149 45.0312 34.0781C45.0312 35.485 45.8146 37.0482 47.068 37.8298L61.4828 46.1149C63.5196 47.2091 66.0266 46.5838 67.28 44.5516C68.3768 42.5195 67.7501 40.0183 65.7132 38.7677L57.5657 34.0781L65.7132 29.3884C67.7501 28.1379 68.3768 25.6367 67.28 23.6045Z" fill="#29B5E8"/>
</svg>
