<svg width="68" height="68" viewBox="0 0 68 68" fill="none" xmlns="http://www.w3.org/2000/svg">
    <path d="M0.777035 36.9725C-0.259013 35.1317 -0.259011 32.8683 0.777038 31.0275L14.8647 5.99791C15.9084 4.1435 17.8447 3 19.9412 3H48.0588C50.1553 3 52.0916 4.14351 53.1353 5.99792L67.223 31.0276C68.259 32.8683 68.259 35.1317 67.223 36.9725L53.1353 62.0021C52.0916 63.8565 50.1553 65 48.0588 65H19.9412C17.8447 65 15.9084 63.8565 14.8647 62.0021L0.777035 36.9725Z" fill="#4285F4"/>
    <path d="M63.02 44.441L53.1353 62.0021C52.0916 63.8571 50.1552 65 48.0588 65H42.3041L21.2838 43.7036L22.0201 43.2731L19.6959 40.9176L19.391 36.7089L24.0463 33.9856L27.0951 35.9913L31.9022 33.1784V29.1778L28.6644 25.8984V20.4519L32.4151 18.6148L35.5909 21.8314L35.5907 18.6148L39.3413 20.4519L63.02 44.441Z" fill="#3E7CE4"/>
    <path fill-rule="evenodd" clip-rule="evenodd" d="M34.0014 24.0843L32.4148 23.1658L32.4151 18.6148L28.6644 20.4519L28.6644 25.8976L31.9022 27.5702L31.9022 33.1784L27.0951 35.9904L24.0463 33.9856L19.391 36.7089L19.6959 40.9176L23.5862 38.6423L25.1647 39.5751L25.1658 39.5761L25.1662 39.5776L25.1743 41.4289L21.2838 43.7042L24.7295 46.0763L29.3847 43.3534L29.1958 39.6764L33.982 36.877L38.7681 39.6764L38.5791 43.3534L43.2344 46.0763L46.6801 43.7042L42.7896 41.4289L42.7977 39.5776L42.798 39.5761L42.7992 39.5751L44.3777 38.6423L48.2679 40.918L48.5728 36.7089L43.9176 33.986L40.8688 35.9904L36.1036 33.1965V27.5702L39.3414 25.8976L39.3413 20.4519L35.5907 18.6148L35.591 23.1658L34.0043 24.0843L34.0029 24.0848L34.0014 24.0843Z" fill="white"/>
</svg>
