<svg width="68" height="68" viewBox="0 0 68 68" fill="none" xmlns="http://www.w3.org/2000/svg">
    <path d="M7.33565 37.0335C7.33565 36.7924 7.30236 36.5773 7.23578 36.3884C7.1692 36.1929 7.04815 36.0137 6.87263 35.8507C6.69711 35.6878 6.44895 35.5249 6.12817 35.362C5.80739 35.1926 5.38674 35.0199 4.86622 34.8439C4.27308 34.6354 3.70717 34.4008 3.16849 34.1401C2.63587 33.873 2.16075 33.5634 1.74312 33.2115C1.3255 32.8596 0.995639 32.4491 0.753538 31.9799C0.51749 31.5107 0.399466 30.9633 0.399466 30.3377C0.399466 29.7317 0.523542 29.1843 0.771696 28.6956C1.01985 28.2068 1.36787 27.7898 1.81575 27.4444C2.26364 27.0925 2.79021 26.8253 3.39546 26.6429C4.00071 26.4539 4.66649 26.3594 5.39279 26.3594C6.36119 26.3594 7.21157 26.5451 7.94393 26.9165C8.68233 27.2815 9.25732 27.7963 9.66889 28.461C10.0805 29.1191 10.2862 29.8848 10.2862 30.7581H7.34473C7.34473 30.3736 7.26907 30.0347 7.11776 29.7415C6.9725 29.4417 6.74855 29.2071 6.44593 29.0377C6.14935 28.8683 5.77712 28.7835 5.32924 28.7835C4.89346 28.7835 4.52728 28.8552 4.23071 28.9986C3.94019 29.1354 3.71927 29.3244 3.56796 29.5655C3.4227 29.8066 3.35007 30.0706 3.35007 30.3573C3.35007 30.5854 3.40454 30.7939 3.51348 30.9829C3.62848 31.1653 3.7919 31.338 4.00374 31.5009C4.22163 31.6573 4.48794 31.8072 4.80267 31.9506C5.1174 32.0939 5.47753 32.2308 5.88304 32.3611C6.59119 32.6022 7.21762 32.8694 7.76235 33.1627C8.31313 33.4559 8.77615 33.7882 9.1514 34.1597C9.52666 34.5311 9.8081 34.9515 9.99573 35.4206C10.1894 35.8898 10.2862 36.4209 10.2862 37.0139C10.2862 37.646 10.1713 38.2065 9.94125 38.6952C9.71731 39.184 9.39048 39.601 8.96075 39.9464C8.53707 40.2852 8.02866 40.5427 7.43551 40.7186C6.84237 40.8945 6.17962 40.9825 5.44726 40.9825C4.78149 40.9825 4.12479 40.8913 3.47717 40.7088C2.82955 40.5198 2.24246 40.2331 1.71589 39.8486C1.19537 39.4642 0.777748 38.9754 0.463017 38.3824C0.154339 37.7829 0 37.0726 0 36.2515H2.95968C2.95968 36.6816 3.01718 37.0465 3.13218 37.3463C3.24717 37.6395 3.41059 37.8774 3.62243 38.0598C3.84032 38.2423 4.1036 38.3726 4.41228 38.4508C4.72096 38.529 5.06595 38.5681 5.44726 38.5681C5.8891 38.5681 6.24619 38.503 6.51856 38.3726C6.79697 38.2358 7.00276 38.0501 7.13591 37.8155C7.26907 37.5809 7.33565 37.3202 7.33565 37.0335Z" fill="black"/>
    <path d="M14.1447 26.5549L16.7322 32.889L19.3378 26.5549H22.5335L18.2393 35.6455V40.787H15.2342V35.6455L10.9308 26.5549H14.1447Z" fill="black"/>
    <path d="M30.3413 37.0335C30.3413 36.7924 30.308 36.5773 30.2414 36.3884C30.1748 36.1929 30.0538 36.0137 29.8782 35.8507C29.7027 35.6878 29.4546 35.5249 29.1338 35.362C28.813 35.1926 28.3923 35.0199 27.8718 34.8439C27.2787 34.6354 26.7128 34.4008 26.1741 34.1401C25.6415 33.873 25.1664 33.5634 24.7487 33.2115C24.3311 32.8596 24.0012 32.4491 23.7591 31.9799C23.5231 31.5107 23.4051 30.9633 23.4051 30.3377C23.4051 29.7317 23.5292 29.1843 23.7773 28.6956C24.0255 28.2068 24.3735 27.7898 24.8214 27.4444C25.2692 27.0925 25.7958 26.8253 26.4011 26.6429C27.0063 26.4539 27.6721 26.3594 28.3984 26.3594C29.3668 26.3594 30.2172 26.5451 30.9495 26.9165C31.6879 27.2815 32.2629 27.7963 32.6745 28.461C33.0861 29.1191 33.2919 29.8848 33.2919 30.7581H30.3503C30.3503 30.3736 30.2747 30.0347 30.1234 29.7415C29.9781 29.4417 29.7542 29.2071 29.4515 29.0377C29.155 28.8683 28.7827 28.7835 28.3348 28.7835C27.8991 28.7835 27.5329 28.8552 27.2363 28.9986C26.9458 29.1354 26.7249 29.3244 26.5736 29.5655C26.4283 29.8066 26.3557 30.0706 26.3557 30.3573C26.3557 30.5854 26.4101 30.7939 26.5191 30.9829C26.6341 31.1653 26.7975 31.338 27.0093 31.5009C27.2272 31.6573 27.4935 31.8072 27.8083 31.9506C28.123 32.0939 28.4831 32.2308 28.8887 32.3611C29.5968 32.6022 30.2232 32.8694 30.768 33.1627C31.3187 33.4559 31.7818 33.7882 32.157 34.1597C32.5323 34.5311 32.8137 34.9515 33.0013 35.4206C33.195 35.8898 33.2919 36.4209 33.2919 37.0139C33.2919 37.646 33.1769 38.2065 32.9469 38.6952C32.7229 39.184 32.3961 39.601 31.9664 39.9464C31.5427 40.2852 31.0343 40.5427 30.4411 40.7186C29.848 40.8945 29.1852 40.9825 28.4529 40.9825C27.7871 40.9825 27.1304 40.8913 26.4828 40.7088C25.8352 40.5198 25.2481 40.2331 24.7215 39.8486C24.201 39.4642 23.7834 38.9754 23.4686 38.3824C23.1599 37.7829 23.0056 37.0726 23.0056 36.2515H25.9653C25.9653 36.6816 26.0228 37.0465 26.1378 37.3463C26.2528 37.6395 26.4162 37.8774 26.628 38.0598C26.8459 38.2423 27.1092 38.3726 27.4179 38.4508C27.7266 38.529 28.0716 38.5681 28.4529 38.5681C28.8947 38.5681 29.2518 38.503 29.5242 38.3726C29.8026 38.2358 30.0084 38.0501 30.1415 37.8155C30.2747 37.5809 30.3413 37.3202 30.3413 37.0335Z" fill="black"/>
    <path d="M43.6598 38.3238V40.787H36.9869V38.3238H43.6598ZM37.9947 26.5549V40.787H35.035V26.5549H37.9947Z" fill="black"/>
    <path d="M55.5348 33.3582V33.9935C55.5348 35.0753 55.3956 36.0462 55.1172 36.9064C54.8449 37.7666 54.4545 38.4997 53.9461 39.1058C53.4437 39.7118 52.8445 40.1777 52.1485 40.5036C51.4585 40.8229 50.6928 40.9825 49.8515 40.9825C49.0102 40.9825 48.2416 40.8229 47.5455 40.5036C46.8495 40.1777 46.2442 39.7118 45.7298 39.1058C45.2214 38.4997 44.8279 37.7666 44.5495 36.9064C44.2711 36.0462 44.1319 35.0753 44.1319 33.9935V33.3582C44.1319 32.2764 44.2711 31.3054 44.5495 30.4453C44.8279 29.5786 45.2183 28.8422 45.7207 28.2362C46.2291 27.6301 46.8313 27.1674 47.5274 26.8481C48.2234 26.5223 48.9921 26.3594 49.8334 26.3594C50.6747 26.3594 51.4433 26.5223 52.1394 26.8481C52.8354 27.1674 53.4346 27.6301 53.937 28.2362C54.4454 28.8422 54.8388 29.5786 55.1172 30.4453C55.3956 31.3054 55.5348 32.2764 55.5348 33.3582ZM52.5479 33.9935V33.3386C52.5479 32.6153 52.4874 31.9766 52.3664 31.4227C52.2453 30.8623 52.0698 30.3931 51.8398 30.0152C51.6098 29.6372 51.3253 29.3537 50.9864 29.1648C50.6474 28.9693 50.2631 28.8715 49.8334 28.8715C49.3855 28.8715 48.9951 28.9693 48.6622 29.1648C48.3293 29.3537 48.0479 29.6372 47.8179 30.0152C47.5939 30.3931 47.4215 30.8623 47.3004 31.4227C47.1854 31.9766 47.1279 32.6153 47.1279 33.3386V33.9935C47.1279 34.7103 47.1854 35.349 47.3004 35.9094C47.4215 36.4633 47.597 36.9325 47.827 37.317C48.057 37.7014 48.3384 37.9914 48.6713 38.1869C49.0102 38.3824 49.4036 38.4802 49.8515 38.4802C50.2813 38.4802 50.6626 38.3824 50.9955 38.1869C51.3344 37.9914 51.6189 37.7014 51.8489 37.317C52.0789 36.9325 52.2514 36.4633 52.3664 35.9094C52.4874 35.349 52.5479 34.7103 52.5479 33.9935Z" fill="black"/>
    <path d="M68 33.2702V39.008C67.7821 39.2752 67.4492 39.5619 67.0013 39.8682C66.5595 40.1745 65.9936 40.4384 65.3036 40.66C64.6136 40.875 63.7905 40.9825 62.8342 40.9825C61.9687 40.9825 61.1818 40.8326 60.4737 40.5329C59.7656 40.2266 59.1573 39.7802 58.6489 39.1937C58.1405 38.6007 57.747 37.8774 57.4686 37.0237C57.1963 36.17 57.0601 35.1926 57.0601 34.0913V33.2506C57.0601 32.1493 57.1963 31.1719 57.4686 30.3182C57.741 29.4645 58.1253 28.7444 58.6216 28.158C59.1179 27.5649 59.7081 27.1153 60.392 26.809C61.0759 26.5027 61.8325 26.3496 62.6617 26.3496C63.8419 26.3496 64.8073 26.5549 65.5578 26.9654C66.3083 27.3694 66.8773 27.9299 67.2646 28.6467C67.658 29.3635 67.9001 30.1879 67.9909 31.1197H65.1402C65.0797 30.644 64.9586 30.2335 64.777 29.8881C64.6015 29.5427 64.3503 29.2788 64.0235 29.0963C63.6967 28.9074 63.273 28.8129 62.7525 28.8129C62.3348 28.8129 61.9566 28.9074 61.6176 29.0963C61.2847 29.2788 61.0033 29.5558 60.7733 29.9272C60.5433 30.2986 60.3678 30.7613 60.2467 31.3152C60.1257 31.8626 60.0652 32.5012 60.0652 33.2311V34.0913C60.0652 34.8211 60.1257 35.463 60.2467 36.0169C60.3738 36.5708 60.5584 37.0335 60.8005 37.4049C61.0426 37.7699 61.3483 38.0468 61.7175 38.2358C62.0927 38.4248 62.5285 38.5193 63.0248 38.5193C63.4122 38.5193 63.739 38.4867 64.0053 38.4215C64.2717 38.3498 64.4895 38.2619 64.659 38.1576C64.8285 38.0468 64.9556 37.9458 65.0403 37.8546V35.4891H62.6889V33.2702H68Z" fill="black"/>
</svg>
