<svg width="68" height="68" viewBox="0 0 68 68" fill="none" xmlns="http://www.w3.org/2000/svg">
    <path d="M49.8131 13.5998C43.4744 13.5753 36.4477 15.5561 32.661 17.8918C31.2455 18.7649 29.7931 19.7424 28.3376 20.7741C28.3376 20.7741 15.2035 30.8872 11.1226 35.9767C10.576 36.6584 10.0784 37.3932 9.64476 38.1672C9.61554 38.2228 9.58436 38.2789 9.55567 38.3349C9.51512 38.4095 9.47444 38.4851 9.43514 38.5603C9.42583 38.5791 9.41818 38.599 9.40894 38.6179C8.76415 39.936 8.27277 41.3634 8.03069 42.8051C8.02866 42.8172 8.02745 42.8296 8.02546 42.8418C8.01821 42.8924 8.01117 42.9429 8.0045 42.9937C7.78512 44.6654 7.87547 46.4492 8.55999 47.9617C9.39211 49.8004 10.7772 51.1728 12.7838 52.3008C14.7189 53.3887 18.2601 54.3132 18.2601 54.3132L18.2025 54.3394C21.1538 54.8629 24.2111 54.6871 27.1952 54.397C28.6584 54.2548 30.1221 54.0938 31.5867 53.9097C31.5877 53.9097 31.5909 53.9096 31.5919 53.9097C31.6019 53.9098 31.6337 53.9095 31.6443 53.9097C31.5478 53.4182 31.3919 52.477 31.5814 52.4266C33.5875 51.8928 34.7818 51.5708 36.345 51.0274C37.8398 50.5078 38.9338 50.0344 40.1444 49.3662C40.4469 49.1992 40.6864 48.9209 41.0038 48.7845C42.0062 48.3538 43.1222 48.2529 44.2005 48.0875C45.0621 47.9554 45.9336 47.8688 46.8051 47.8517C47.3703 47.8406 47.9427 47.8282 48.4977 47.9355C48.9229 48.0177 49.3529 48.1368 49.724 48.36C49.9722 48.5093 50.2024 48.7114 50.3634 48.9522C50.4492 49.1352 50.5203 49.3278 50.5887 49.5181C53.758 48.3306 56.9771 46.8988 59.4242 44.5764C63.0438 41.1411 65.9198 36.6514 67.3425 31.8682C68.1154 29.2697 68.2496 26.3498 67.5155 23.7402C67.0616 22.1268 66.3618 21.0885 64.8009 19.5059C61.6078 16.2685 56.956 14.2663 52.4386 13.7466C51.6023 13.6503 50.7186 13.6033 49.8131 13.5998ZM28.3376 20.7741C27.6891 21.2337 27.0386 21.7044 26.3934 22.1838L28.3376 20.7741ZM42.01 23.8293C44.0636 23.8232 45.2015 24.1385 45.2015 24.1385C45.2015 24.1385 41.8229 24.4538 39.9453 24.7883C38.458 25.0532 36.0658 25.5139 34.2017 26.1456C30.5669 27.3773 27.1091 29.0995 23.6945 30.8515C21.07 32.1981 18.5551 33.7538 16.0434 35.3007C14.3267 36.3579 10.9758 38.6022 10.9758 38.6022C10.9758 38.6022 13.8314 34.9122 21.4254 30.6471C23.5967 29.4277 25.8127 28.2837 28.086 27.267C29.8625 26.4726 31.6637 25.7154 33.5257 25.1499C34.9403 24.7202 36.4002 24.4226 37.8595 24.1856C38.9228 24.013 40.0531 23.9042 41.072 23.8555C41.4019 23.8397 41.7166 23.8301 42.01 23.8293ZM15.9595 27.3509C15.287 27.3548 14.7102 28.1443 14.356 28.7396C13.902 29.5025 13.7003 30.8116 13.6066 31.8577C15.064 30.6112 16.5184 29.4516 17.5265 28.6662C17.137 28.0119 16.6491 27.4462 16.0958 27.3614C16.0502 27.3543 16.0044 27.3506 15.9595 27.3509ZM45.322 30.6838C45.322 30.6838 38.9814 33.0899 35.8315 34.3469C32.2028 35.795 28.5857 37.2792 24.9941 38.8171C22.4819 39.8928 19.984 41.0047 17.5002 42.1448C15.2168 43.1929 10.6876 45.3729 10.6876 45.3729C10.6876 45.3729 14.5444 42.211 21.6979 39.0843C25.8725 37.2596 28.6875 35.661 33.1798 34.195C35.2774 33.5104 37.3477 32.7396 39.4684 32.1302C41.3997 31.5753 45.322 30.6838 45.322 30.6838ZM47.523 37.1191C47.523 37.1191 46.633 38.1789 44.646 39.4931C43.6525 40.1502 42.7814 40.8391 41.8056 41.4425C40.5428 42.2236 39.2464 42.9504 37.9119 43.6016C36.2578 44.4089 34.5403 45.0837 32.8287 45.7607C31.1509 46.4243 29.4634 47.0698 27.7454 47.6211C25.6257 48.3013 23.4855 48.9306 21.3101 49.4028C19.7316 49.7455 16.5255 50.1627 16.5255 50.1627C16.5255 50.1627 20.4816 48.8225 22.4525 48.1294C24.5335 47.3976 26.5068 46.707 28.6782 45.8865C30.9229 45.0383 32.5279 44.4203 34.4375 43.6488C35.9989 43.018 37.5711 42.4082 39.0963 41.6941C40.2628 41.1479 41.3949 40.5285 42.5288 39.9176C44.2091 39.0123 47.523 37.1191 47.523 37.1191ZM52.1294 41.2748C52.1294 41.2748 52.0763 41.9322 50.4053 43.6436C49.7306 44.3345 48.5419 45.2262 47.785 45.6926C44.8518 47.5002 43.2887 47.9617 43.2887 47.9617C43.2887 47.9617 46.1845 46.0676 47.5859 45.0532C48.4111 44.4559 49.2247 43.8349 50.007 43.1824C50.7376 42.573 52.1294 41.2748 52.1294 41.2748ZM7.13981 47.5372C6.15455 47.9804 4.96737 48.5303 4.18941 48.9469C2.74694 49.7195 -0.091385 51.0709 0.00226122 51.5095C0.145406 52.18 3.35875 50.8832 5.03313 50.5505C6.09843 50.3389 7.15775 50.1168 8.21935 49.8902C7.79102 49.1412 7.41869 48.3525 7.13981 47.5372ZM46.4173 48.6115C45.9907 48.6143 45.5348 48.6393 44.9814 48.7006C43.2858 48.8886 42.8269 49.0402 41.4702 49.4815C40.9869 49.6387 40.7017 49.8914 40.3226 50.0998C39.6413 50.4743 38.9996 50.9263 38.2893 51.2423C37.2686 51.6963 36.1827 51.9874 35.1135 52.3113C34.2319 52.5784 34.11 52.6306 32.4461 53.0293C32.1573 53.0985 32.4289 53.5703 32.6872 53.9306C36.6346 54.0106 48.5742 54.2015 48.7336 53.5376L49.614 49.8797C49.6924 49.8517 49.7713 49.8244 49.8498 49.7959C49.8167 49.6702 49.7739 49.5444 49.724 49.4605C49.5785 49.216 49.3661 48.9941 49.1109 48.8683C48.682 48.6569 48.173 48.6904 47.6959 48.6587C47.2452 48.6288 46.8438 48.6088 46.4173 48.6115ZM48.5763 49.5967C49.0495 49.6046 49.4331 49.6766 49.4305 49.9112C49.4251 50.4161 48.3402 50.3913 47.8427 50.4405C44.6335 50.7578 43.508 50.7038 41.3392 50.713C40.9226 50.7147 40.092 50.671 40.092 50.671C40.092 50.671 42.176 50.1764 44.0276 49.9531C45.1042 49.8232 46.1543 49.689 47.1876 49.6544C47.5421 49.6425 48.1032 49.5889 48.5763 49.5967ZM46.1186 51.6091C46.5043 51.6017 46.8905 51.6138 47.2715 51.6667C47.5728 51.7086 47.9127 51.7238 48.1466 51.9183C48.251 52.0051 48.3722 52.1911 48.33 52.2799C48.2444 52.4603 47.9219 52.4689 47.2348 52.5157C46.4109 52.5718 45.6075 52.6381 44.7927 52.6624C42.7725 52.7227 38.7295 52.6519 38.7295 52.6519C38.7295 52.6519 39.9904 52.317 40.6318 52.2013C42.0625 51.943 43.5093 51.7554 44.9604 51.6667C45.3444 51.6433 45.7328 51.6165 46.1186 51.6091Z" fill="#3071A9"/>
</svg>
