<svg width="48" height="48" viewBox="0 0 48 48" fill="none" xmlns="http://www.w3.org/2000/svg">
    <path d="M25.4999 25.5H33.2131C33.5782 26.914 34.4464 28.1463 35.6551 28.9659C36.8637 29.7855 38.3298 30.1362 39.7786 29.9522C41.2273 29.7682 42.5592 29.0621 43.5246 27.9664C44.4899 26.8706 45.0225 25.4604 45.0225 24C45.0225 22.5396 44.4899 21.1294 43.5246 20.0337C42.5592 18.9379 41.2273 18.2318 39.7786 18.0478C38.3298 17.8638 36.8637 18.2145 35.6551 19.0341C34.4464 19.8537 33.5782 21.086 33.2131 22.5H25.4999V10.5H33.2131C33.5782 11.914 34.4464 13.1463 35.6551 13.9659C36.8637 14.7855 38.3298 15.1362 39.7786 14.9522C41.2273 14.7682 42.5592 14.0621 43.5246 12.9664C44.4899 11.8706 45.0225 10.4604 45.0225 9.00001C45.0225 7.53965 44.4899 6.12942 43.5246 5.03367C42.5592 3.93791 41.2273 3.23185 39.7786 3.04784C38.3298 2.86382 36.8637 3.21449 35.6551 4.03411C34.4464 4.85373 33.5782 6.08603 33.2131 7.50001H25.4999C24.7045 7.50093 23.942 7.81729 23.3796 8.3797C22.8172 8.94211 22.5008 9.70464 22.4999 10.5V22.5H14.7868C14.4217 21.086 13.5534 19.8537 12.3448 19.0341C11.1361 18.2145 9.66999 17.8638 8.22127 18.0478C6.77255 18.2318 5.44067 18.9379 4.47529 20.0337C3.5099 21.1294 2.97729 22.5396 2.97729 24C2.97729 25.4604 3.5099 26.8706 4.47529 27.9664C5.44067 29.0621 6.77255 29.7682 8.22127 29.9522C9.66999 30.1362 11.1361 29.7855 12.3448 28.9659C13.5534 28.1463 14.4217 26.914 14.7868 25.5H22.4999V37.5C22.5008 38.2954 22.8172 39.0579 23.3796 39.6203C23.942 40.1827 24.7045 40.4991 25.4999 40.5H33.2131C33.5782 41.914 34.4464 43.1463 35.6551 43.9659C36.8637 44.7855 38.3298 45.1362 39.7786 44.9522C41.2273 44.7682 42.5592 44.0621 43.5246 42.9664C44.4899 41.8706 45.0225 40.4604 45.0225 39C45.0225 37.5396 44.4899 36.1294 43.5246 35.0337C42.5592 33.9379 41.2273 33.2318 39.7786 33.0478C38.3298 32.8638 36.8637 33.2145 35.6551 34.0341C34.4464 34.8537 33.5782 36.086 33.2131 37.5H25.4999V25.5ZM38.9999 21C39.5933 21 40.1733 21.176 40.6666 21.5056C41.16 21.8352 41.5445 22.3038 41.7716 22.852C41.9986 23.4001 42.058 24.0033 41.9423 24.5853C41.8265 25.1672 41.5408 25.7018 41.1212 26.1213C40.7017 26.5409 40.1671 26.8266 39.5852 26.9424C39.0032 27.0581 38.4 26.9987 37.8519 26.7717C37.3037 26.5446 36.8352 26.1601 36.5055 25.6667C36.1759 25.1734 35.9999 24.5934 35.9999 24C36.0008 23.2046 36.3172 22.4421 36.8796 21.8797C37.442 21.3173 38.2045 21.0009 38.9999 21ZM38.9999 6.00001C39.5933 6.00001 40.1733 6.17596 40.6666 6.50561C41.16 6.83525 41.5445 7.30378 41.7716 7.85196C41.9986 8.40014 42.058 9.00334 41.9423 9.58528C41.8265 10.1672 41.5408 10.7018 41.1212 11.1213C40.7017 11.5409 40.1671 11.8266 39.5852 11.9424C39.0032 12.0581 38.4 11.9987 37.8519 11.7717C37.3037 11.5446 36.8352 11.1601 36.5055 10.6667C36.1759 10.1734 35.9999 9.59336 35.9999 9.00001C36.0008 8.20464 36.3172 7.44211 36.8796 6.8797C37.442 6.31729 38.2045 6.00093 38.9999 6.00001ZM8.99992 27C8.40658 27 7.82656 26.8241 7.33321 26.4944C6.83986 26.1648 6.45534 25.6962 6.22828 25.1481C6.00122 24.5999 5.94181 23.9967 6.05756 23.4147C6.17332 22.8328 6.45904 22.2982 6.8786 21.8787C7.29816 21.4591 7.83271 21.1734 8.41465 21.0577C8.99659 20.9419 9.59979 21.0013 10.148 21.2284C10.6961 21.4554 11.1647 21.84 11.4943 22.3333C11.824 22.8266 11.9999 23.4067 11.9999 24C11.999 24.7954 11.6826 25.5579 11.1202 26.1203C10.5578 26.6827 9.79529 26.9991 8.99992 27ZM38.9999 36C39.5933 36 40.1733 36.176 40.6666 36.5056C41.16 36.8352 41.5445 37.3038 41.7716 37.852C41.9986 38.4001 42.058 39.0033 41.9423 39.5853C41.8265 40.1672 41.5408 40.7018 41.1212 41.1213C40.7017 41.5409 40.1671 41.8266 39.5852 41.9424C39.0032 42.0581 38.4 41.9987 37.8519 41.7716C37.3037 41.5446 36.8352 41.1601 36.5055 40.6667C36.1759 40.1734 35.9999 39.5934 35.9999 39C36.0008 38.2046 36.3172 37.4421 36.8796 36.8797C37.442 36.3173 38.2045 36.0009 38.9999 36Z" fill="#353C45"/>
</svg>
