<svg width="40" height="40" viewBox="0 0 40 40" fill="none" xmlns="http://www.w3.org/2000/svg">
    <path d="M7.5 37.5H32.5C33.163 37.5 33.7989 37.2366 34.2678 36.7678C34.7366 36.2989 35 35.663 35 35V27.5C35 26.837 34.7366 26.2011 34.2678 25.7322C33.7989 25.2634 33.163 25 32.5 25H7.5C6.83696 25 6.20107 25.2634 5.73223 25.7322C5.26339 26.2011 5 26.837 5 27.5V35C5 35.663 5.26339 36.2989 5.73223 36.7678C6.20107 37.2366 6.83696 37.5 7.5 37.5ZM7.5 27.5H32.5V35H7.5V27.5Z" fill="#353C45"/>
    <path d="M11.25 32.5C11.9404 32.5 12.5 31.9404 12.5 31.25C12.5 30.5596 11.9404 30 11.25 30C10.5596 30 10 30.5596 10 31.25C10 31.9404 10.5596 32.5 11.25 32.5Z" fill="#353C45"/>
    <path d="M32.5 2.49995L30.7375 4.26245L33.9625 7.49995H27.8938C27.0072 5.59512 25.4635 4.07393 23.5458 3.21559C21.6281 2.35724 19.4652 2.21932 17.4541 2.82716C15.4429 3.43499 13.7184 4.74778 12.5972 6.52458C11.4759 8.30139 11.0331 10.423 11.35 12.4999H6.0375L9.2625 9.26245L7.5 7.49995L1.25 13.7499L7.5 19.9999L9.2625 18.2374L6.0375 14.9999H12.1063C12.9928 16.9048 14.5365 18.426 16.4542 19.2843C18.3719 20.1427 20.5348 20.2806 22.5459 19.6727C24.5571 19.0649 26.2816 17.7521 27.4028 15.9753C28.5241 14.1985 28.9669 12.0769 28.65 9.99995H33.9625L30.7375 13.2374L32.5 14.9999L38.75 8.74995L32.5 2.49995ZM26.25 11.2499C26.2545 12.56 25.8458 13.8381 25.0821 14.9025C24.3184 15.9669 23.2385 16.7634 21.996 17.1787C20.7536 17.594 19.4118 17.607 18.1615 17.2159C16.9112 16.8247 15.8161 16.0493 15.0319 14.9999H20V12.4999H13.8764C13.5877 11.1116 13.7812 9.66642 14.4248 8.40293C15.0685 7.13944 16.1238 6.13324 17.4165 5.55051C18.7092 4.96777 20.162 4.84335 21.535 5.19778C22.908 5.55221 24.119 6.3643 24.9681 7.49995H20V9.99995H26.1236C26.2076 10.4113 26.25 10.8301 26.25 11.2499Z" fill="#353C45"/>
</svg>
