<svg width="40" height="40" viewBox="0 0 40 40" fill="none" xmlns="http://www.w3.org/2000/svg">
    <path d="M13.75 26.25L8.75 23.5V17.875L13.75 15.125L18.75 17.875V23.5L13.75 26.25ZM11.25 22L13.75 23.375L16.25 22V19.25L13.75 17.875L11.25 19.25V22ZM7.5 37.5L2.5 34.75V29.125L7.5 26.25L12.5 29V34.625L7.5 37.5ZM5 33.25L7.5 34.625L10 33.25V30.5L7.5 29.125L5 30.5V33.25ZM20 37.5L15 34.75V29.125L20 26.375L25 29.125V34.75L20 37.5ZM17.5 33.25L20 34.625L22.5 33.25V30.5L20 29.125L17.5 30.5V33.25ZM32.5 37.5L27.5 34.75V29.125L32.5 26.375L37.5 29.125V34.75L32.5 37.5ZM30 33.25L32.5 34.625L35 33.25V30.5L32.5 29.125L30 30.5V33.25ZM30.75 14.5L27.5 17.75V11.75L31.25 9.625V4L26.25 1.25L21.25 4V9.625L25 11.75V17.625L21.75 14.375L20 16.25L26.25 22.5L32.5 16.25L30.75 14.5ZM23.75 5.5L26.25 4.125L28.75 5.5V8.25L26.25 9.625L23.75 8.25V5.5Z" fill="#353C45"/>
</svg>
