<svg width="40" height="40" viewBox="0 0 40 40" fill="none" xmlns="http://www.w3.org/2000/svg">
    <path d="M32.5 5.01245H7.5C6.83696 5.01245 6.20107 5.27584 5.73223 5.74468C5.26339 6.21353 5 6.84941 5 7.51245V32.5125C5 33.1755 5.26339 33.8114 5.73223 34.2802C6.20107 34.7491 6.83696 35.0125 7.5 35.0125H32.5C33.163 35.0125 33.7989 34.7491 34.2678 34.2802C34.7366 33.8114 35 33.1755 35 32.5125V7.51245C35 6.84941 34.7366 6.21353 34.2678 5.74468C33.7989 5.27584 33.163 5.01245 32.5 5.01245ZM32.5 7.51245V12.5125H7.5V7.51245H32.5ZM7.5 32.5125V15.0125H32.5V32.5125H7.5Z" fill="#353C45"/>
    <path d="M13.4502 20.225L16.9752 23.7625L13.4502 27.3L15.2127 29.0625L20.5127 23.7625L15.2127 18.4625L13.4502 20.225Z" fill="#353C45"/>
</svg>
