<svg width="40" height="40" viewBox="0 0 40 40" fill="none" xmlns="http://www.w3.org/2000/svg">
    <path d="M22.5 25H37.5V27.5H22.5V25ZM22.5 30H37.5V32.5H22.5V30ZM22.5 35H37.5V37.5H22.5V35ZM17.5 22.5C17.1292 22.5 16.7666 22.61 16.4583 22.816C16.15 23.022 15.9096 23.3149 15.7677 23.6575C15.6258 24.0001 15.5887 24.3771 15.661 24.7408C15.7334 25.1045 15.912 25.4386 16.1742 25.7008C16.4364 25.963 16.7705 26.1416 17.1342 26.214C17.4979 26.2863 17.8749 26.2492 18.2175 26.1073C18.5601 25.9654 18.853 25.725 19.059 25.4167C19.265 25.1084 19.375 24.7458 19.375 24.375C19.375 23.8777 19.1775 23.4008 18.8258 23.0492C18.4742 22.6975 17.9973 22.5 17.5 22.5ZM16.25 8.75H18.75V20H16.25V8.75Z" fill="#353C45"/>
    <path d="M17.5 5.00001C20.8141 5.00368 23.9914 6.32182 26.3348 8.66523C28.6782 11.0086 29.9963 14.1859 30 17.5H32.5C32.5 14.5333 31.6203 11.6332 29.972 9.16645C28.3238 6.69972 25.9811 4.77713 23.2403 3.64181C20.4994 2.5065 17.4834 2.20945 14.5737 2.78823C11.6639 3.36701 8.99119 4.79562 6.8934 6.8934C4.79562 8.99119 3.36701 11.6639 2.78823 14.5737C2.20945 17.4834 2.5065 20.4994 3.64181 23.2403C4.77713 25.9811 6.69972 28.3238 9.16645 29.972C11.6332 31.6203 14.5333 32.5 17.5 32.5V30C14.1848 30 11.0054 28.683 8.66117 26.3388C6.31697 23.9946 5.00001 20.8152 5.00001 17.5C5.00001 14.1848 6.31697 11.0054 8.66117 8.66117C11.0054 6.31697 14.1848 5.00001 17.5 5.00001Z" fill="#353C45"/>
</svg>
