<svg width="40" height="40" viewBox="0 0 40 40" fill="none" xmlns="http://www.w3.org/2000/svg">
<path d="M25.8334 27.025H23.4501V24.6417C23.4497 24.3257 23.3241 24.0228 23.1007 23.7994C22.8773 23.576 22.5744 23.4504 22.2584 23.45H17.4918C17.1758 23.4504 16.8729 23.576 16.6495 23.7994C16.4261 24.0228 16.3004 24.3257 16.3001 24.6417V27.025H13.9167V24.6417C13.9178 23.6938 14.2948 22.7851 14.965 22.1149C15.6352 21.4447 16.5439 21.0677 17.4918 21.0667H22.2584C23.2063 21.0677 24.115 21.4447 24.7852 22.1149C25.4554 22.7851 25.8324 23.6938 25.8334 24.6417V27.025ZM19.8751 19.875C19.0502 19.875 18.2438 19.6304 17.5579 19.1721C16.872 18.7138 16.3374 18.0624 16.0217 17.3003C15.7061 16.5382 15.6235 15.6995 15.7844 14.8905C15.9453 14.0814 16.3426 13.3382 16.9259 12.7549C17.5092 12.1716 18.2523 11.7744 19.0614 11.6135C19.8705 11.4525 20.7091 11.5351 21.4712 11.8508C22.2333 12.1665 22.8847 12.7011 23.343 13.387C23.8013 14.0729 24.0459 14.8793 24.0459 15.7042C24.0446 16.8099 23.6048 17.8701 22.8229 18.652C22.041 19.4339 20.9809 19.8737 19.8751 19.875ZM19.8751 13.9167C19.5216 13.9167 19.176 14.0215 18.882 14.2179C18.5881 14.4143 18.3589 14.6935 18.2237 15.0201C18.0884 15.3467 18.053 15.7061 18.1219 16.0529C18.1909 16.3996 18.3611 16.7181 18.6111 16.9681C18.8611 17.2181 19.1796 17.3884 19.5264 17.4573C19.8731 17.5263 20.2325 17.4909 20.5591 17.3556C20.8858 17.2203 21.1649 16.9912 21.3613 16.6972C21.5578 16.4033 21.6626 16.0577 21.6626 15.7042C21.6621 15.2303 21.4736 14.7759 21.1385 14.4408C20.8033 14.1057 20.349 13.9172 19.8751 13.9167Z" fill="#353C45"/>
<path d="M37.0518 21.5601C37.2732 21.3389 37.4487 21.0762 37.5685 20.787C37.6883 20.4979 37.75 20.188 37.75 19.875C37.75 19.562 37.6883 19.2521 37.5685 18.963C37.4487 18.6738 37.2732 18.4111 37.0518 18.1899L30.1558 11.2942L33.6123 7.88265C34.1221 8.00897 34.6593 7.96353 35.1406 7.75337C35.6219 7.54322 36.0204 7.1801 36.2743 6.72035C36.5282 6.26059 36.6233 5.7299 36.5448 5.21061C36.4663 4.69132 36.2186 4.21245 35.8401 3.84829C35.4617 3.48413 34.9736 3.25503 34.4517 3.19655C33.9298 3.13807 33.4031 3.25346 32.9535 3.52483C32.5038 3.7962 32.1563 4.20838 31.9648 4.69742C31.7733 5.18646 31.7486 5.72502 31.8944 6.22956L28.4704 9.60854L21.5601 2.69817C21.3389 2.47683 21.0762 2.30125 20.787 2.18145C20.4979 2.06166 20.188 2 19.875 2C19.562 2 19.2521 2.06166 18.963 2.18145C18.6738 2.30125 18.4111 2.47683 18.1899 2.69817L11.2942 9.594L7.883 6.13709C8.00925 5.62723 7.96371 5.08995 7.75344 4.60861C7.54316 4.12727 7.17992 3.72878 6.72005 3.47497C6.26018 3.22115 5.7294 3.12619 5.21006 3.20483C4.69072 3.28347 4.21184 3.5313 3.84773 3.90988C3.48362 4.28846 3.25462 4.77662 3.19627 5.29863C3.13792 5.82064 3.25347 6.34732 3.52501 6.79696C3.79654 7.24659 4.20887 7.59404 4.69803 7.78541C5.18719 7.97678 5.72584 8.00137 6.2304 7.85536L9.60878 11.2796L2.69817 18.1899C2.47683 18.4111 2.30125 18.6738 2.18145 18.963C2.06166 19.2521 2 19.562 2 19.875C2 20.188 2.06166 20.4979 2.18145 20.787C2.30125 21.0762 2.47683 21.3389 2.69817 21.5601L9.60854 28.4704L6.2304 31.8946C5.72698 31.7497 5.1898 31.7749 4.70213 31.9662C4.21446 32.1576 3.80353 32.5045 3.53304 32.9531C3.26254 33.4018 3.14759 33.9271 3.20599 34.4477C3.26439 34.9683 3.49289 35.4551 3.85606 35.8327C4.21924 36.2102 4.69681 36.4574 5.21476 36.536C5.73271 36.6145 6.26211 36.5201 6.72091 36.2672C7.1797 36.0143 7.54227 35.6171 7.75241 35.1372C7.96256 34.6574 8.00854 34.1216 7.88324 33.6129L11.2944 30.156L18.1901 37.0518C18.4114 37.2732 18.6741 37.4487 18.9632 37.5685C19.2524 37.6883 19.5623 37.75 19.8752 37.75C20.1882 37.75 20.4981 37.6883 20.7873 37.5685C21.0764 37.4487 21.3391 37.2732 21.5604 37.0518L28.4706 30.1415L31.8946 33.5204C31.7497 34.024 31.7749 34.5612 31.9664 35.049C32.1578 35.5367 32.5048 35.9477 32.9536 36.2182C33.4023 36.4887 33.9278 36.6036 34.4485 36.5451C34.9692 36.4866 35.456 36.258 35.8336 35.8947C36.2112 35.5314 36.4583 35.0537 36.5368 34.5356C36.6153 34.0175 36.5206 33.488 36.2676 33.0292C36.0146 32.5704 35.6172 32.2079 35.1372 31.9978C34.6572 31.7877 34.1213 31.7419 33.6125 31.8674L30.156 28.4558L37.0518 21.5601ZM19.875 35.3667L4.38331 19.875L19.875 4.38331L35.3667 19.875L19.875 35.3667Z" fill="#353C45"/>
</svg>
