<svg width="40" height="40" viewBox="0 0 40 40" fill="none" xmlns="http://www.w3.org/2000/svg">
    <path d="M35 10H30V5C29.9992 4.33721 29.7355 3.70181 29.2669 3.23315C28.7982 2.76448 28.1628 2.50083 27.5 2.5H5C4.33721 2.50083 3.70181 2.76448 3.23315 3.23315C2.76448 3.70181 2.50083 4.33721 2.5 5V27.5C2.50083 28.1628 2.76448 28.7982 3.23315 29.2669C3.70181 29.7355 4.33721 29.9992 5 30H10V35C10.0008 35.6628 10.2645 36.2982 10.7331 36.7669C11.2018 37.2355 11.8372 37.4992 12.5 37.5H35C35.6628 37.4992 36.2982 37.2355 36.7669 36.7669C37.2355 36.2982 37.4992 35.6628 37.5 35V12.5C37.4992 11.8372 37.2355 11.2018 36.7669 10.7331C36.2982 10.2645 35.6628 10.0008 35 10ZM27.5 27.5H17.5V21.25H27.5V27.5ZM27.5 18.75H17.5V12.5H27.5V18.75ZM15 18.75H5V12.5H15V18.75ZM27.5 5V10H5V5H27.5ZM5 27.5V21.25H15V27.5H5ZM35 35H12.5V30H27.5C28.1628 29.9992 28.7982 29.7355 29.2669 29.2669C29.7355 28.7982 29.9992 28.1628 30 27.5V12.5H35V35Z" fill="#353C45"/>
</svg>
