<svg width="40" height="40" viewBox="0 0 40 40" fill="none" xmlns="http://www.w3.org/2000/svg">
    <path d="M13.75 35H11.25C6.42513 35 2.5 31.0749 2.5 26.25V23.75H5V26.25C5 29.696 7.804 32.5 11.25 32.5H13.75V35ZM35.2125 32.5L31.9875 35.725L33.75 37.5L38.75 32.5L33.75 27.5L31.975 29.2625L35.2125 32.5ZM27.5 38.75L25.1062 38.0286L28.75 26.25L31.1436 26.9714L27.5 38.75ZM21.0375 32.5L24.2625 29.275L22.5 27.5L17.5 32.5L22.5 37.5L24.275 35.7375L21.0375 32.5ZM37.5 23.75H35V15C35 11.5483 32.2017 8.75 28.75 8.75H23.75V6.25H28.75C33.5825 6.25 37.5 10.1675 37.5 15V23.75Z" fill="#353C45"/>
    <path d="M3.75 6.25C4.44036 6.25 5 5.69036 5 5C5 4.30964 4.44036 3.75 3.75 3.75C3.05964 3.75 2.5 4.30964 2.5 5C2.5 5.69036 3.05964 6.25 3.75 6.25Z" fill="#353C45"/>
    <path d="M7.5 3.75H20V6.25H7.5V3.75Z" fill="#353C45"/>
    <path d="M3.75 16.25C4.44036 16.25 5 15.6904 5 15C5 14.3096 4.44036 13.75 3.75 13.75C3.05964 13.75 2.5 14.3096 2.5 15C2.5 15.6904 3.05964 16.25 3.75 16.25Z" fill="#353C45"/>
    <path d="M7.5 13.75H20V16.25H7.5V13.75ZM2.5 18.75H15V21.25H2.5V18.75Z" fill="#353C45"/>
    <path d="M18.75 11.25C19.4404 11.25 20 10.6904 20 10C20 9.30964 19.4404 8.75 18.75 8.75C18.0596 8.75 17.5 9.30964 17.5 10C17.5 10.6904 18.0596 11.25 18.75 11.25Z" fill="#353C45"/>
    <path d="M2.5 8.75H15V11.25H2.5V8.75Z" fill="#353C45"/>
    <path d="M18.75 21.25C19.4404 21.25 20 20.6904 20 20C20 19.3096 19.4404 18.75 18.75 18.75C18.0596 18.75 17.5 19.3096 17.5 20C17.5 20.6904 18.0596 21.25 18.75 21.25Z" fill="#353C45"/>
</svg>
