<svg width="40" height="40" viewBox="0 0 40 40" fill="none" xmlns="http://www.w3.org/2000/svg">
<path d="M35.7857 34.5714C35.7857 30.9689 33.1544 27.9764 29.7143 27.3953V26.0714H30.9286V23.6428H26.0714V26.0714H27.2857V27.3953C23.8456 27.9764 21.2143 30.9689 21.2143 34.5714H20V37H37V34.5714H35.7857ZM23.6429 34.5714C23.6429 31.8932 25.8218 29.7143 28.5 29.7143C31.1782 29.7143 33.3571 31.8932 33.3571 34.5714H23.6429Z" fill="#353C45"/>
<path d="M9.07129 18.7858H16.357V21.2144H9.07129V18.7858ZM9.07129 9.07153H23.6427V11.5001H9.07129V9.07153ZM9.07129 13.9287H23.6427V16.3572H9.07129V13.9287Z" fill="#353C45"/>
<path d="M15.1429 37H5.42857C4.78468 36.9993 4.16736 36.7432 3.71206 36.2879C3.25676 35.8326 3.00068 35.2153 3 34.5714V5.42857C3.00068 4.78468 3.25676 4.16736 3.71206 3.71206C4.16736 3.25676 4.78468 3.00068 5.42857 3H27.2857C27.9296 3.00068 28.5469 3.25676 29.0022 3.71206C29.4575 4.16736 29.7136 4.78468 29.7143 5.42857V17.5714H27.2857V5.42857H5.42857V34.5714H15.1429V37Z" fill="#353C45"/>
</svg>
