<svg width="24" height="18" viewBox="0 0 24 18" fill="none" xmlns="http://www.w3.org/2000/svg">
<g clip-path="url(#clip0_237_884)">
<path fill-rule="evenodd" clip-rule="evenodd" d="M0 0H34.2V1.3875H0V0ZM0 2.77125H34.2V4.15875H0V2.77125ZM0 5.53875H34.2V6.92625H0V5.53875ZM0 8.30625H34.2V9.69375H0V8.30625ZM0 11.0813H34.2V12.4613H0V11.0813ZM0 13.845H34.2V15.2325H0V13.845ZM0 16.6125H34.2V18H0V16.6125Z" fill="#BD3D44"/>
<path fill-rule="evenodd" clip-rule="evenodd" d="M0 1.3875H34.2V2.77125H0V1.3875ZM0 4.155H34.2V5.53875H0V4.155ZM0 6.9225H34.2V8.31H0V6.9225ZM0 9.69375H34.2V11.0813H0V9.69375ZM0 12.4613H34.2V13.8488H0V12.4613ZM0 15.2288H34.2V16.6163H0V15.2288Z" fill="white"/>
<path fill-rule="evenodd" clip-rule="evenodd" d="M0 0H13.68V9.69375H0V0Z" fill="#192F5D"/>
<path fill-rule="evenodd" clip-rule="evenodd" d="M1.14 0.4125L1.2675 0.79875H1.665L1.3425 1.035L1.46625 1.42125L1.14 1.18125L0.8175 1.4175L0.9375 1.035L0.61125 0.79875H1.02L1.14 0.4125ZM3.42 0.4125L3.54375 0.79875H3.94875L3.6225 1.035L3.7425 1.42125L3.42 1.18125L3.09375 1.4175L3.2175 1.035L2.895 0.79875H3.2925L3.42 0.4125ZM5.7 0.4125L5.82375 0.79875H6.225L5.9025 1.035L6.02625 1.42125L5.7 1.18125L5.37375 1.4175L5.4975 1.035L5.17125 0.79875H5.57625L5.7 0.4125ZM7.98 0.4125L8.10375 0.79875H8.50875L8.1825 1.035L8.30625 1.42125L7.98 1.18125L7.65375 1.4175L7.78125 1.035L7.45125 0.79875H7.8525L7.98 0.4125ZM10.26 0.4125L10.3838 0.79875H10.785L10.4625 1.035L10.5863 1.42125L10.26 1.18125L9.93375 1.4175L10.0575 1.035L9.735 0.79875H10.1362L10.26 0.4125ZM12.54 0.4125L12.6638 0.79875H13.0688L12.7388 1.035L12.8663 1.42125L12.54 1.18125L12.2138 1.4175L12.3413 1.035L12.0113 0.79875H12.4163L12.54 0.4125ZM2.28 1.3875L2.40375 1.77H2.8125L2.48625 2.0025L2.60625 2.38875L2.2875 2.1525L1.96125 2.38875L2.0775 2.0025L1.7625 1.77H2.16375L2.28 1.3875ZM4.56 1.3875L4.6875 1.77H5.08875L4.75875 2.0025L4.88625 2.38875L4.56 2.1525L4.23375 2.38875L4.3575 2.0025L4.03125 1.77H4.43625L4.56 1.3875ZM6.84 1.3875L6.96375 1.77H7.36875L7.0425 2.0025L7.16625 2.38875L6.84 2.1525L6.51375 2.38875L6.6375 2.0025L6.315 1.77H6.7125L6.84 1.3875ZM9.12 1.3875L9.2475 1.77H9.64875L9.31875 2.0025L9.44625 2.38875L9.12 2.1525L8.7975 2.38875L8.9175 2.0025L8.59125 1.77H9L9.12 1.3875ZM11.4 1.3875L11.5238 1.77H11.9288L11.6025 2.0025L11.7263 2.38875L11.4 2.1525L11.0738 2.38875L11.1975 2.0025L10.875 1.77H11.2763L11.4 1.3875ZM1.14 2.3475L1.2675 2.7375H1.665L1.3425 2.97375L1.46625 3.35625L1.14 3.12L0.8175 3.35625L0.9375 2.97375L0.61125 2.7375H1.02L1.14 2.3475ZM3.42 2.3475L3.54375 2.7375H3.94875L3.6225 2.97375L3.7425 3.35625L3.42 3.12L3.09375 3.35625L3.2175 2.97L2.895 2.73375H3.2925L3.42 2.3475ZM5.7 2.3475L5.82375 2.73375H6.225L5.9025 2.97L6.02625 3.3525L5.7 3.11625L5.37375 3.3525L5.4975 2.96625L5.17125 2.73H5.57625L5.7 2.3475ZM7.98 2.3475L8.10375 2.73375H8.50875L8.1825 2.97L8.30625 3.3525L7.98 3.11625L7.65375 3.3525L7.78125 2.96625L7.45125 2.73H7.8525L7.98 2.3475ZM10.26 2.3475L10.3838 2.73375H10.785L10.4625 2.97L10.5863 3.3525L10.26 3.11625L9.93375 3.3525L10.0575 2.96625L9.735 2.73H10.1362L10.26 2.3475ZM12.54 2.3475L12.6638 2.73375H13.0688L12.7388 2.97L12.8663 3.3525L12.54 3.11625L12.2138 3.3525L12.3413 2.96625L12.0113 2.73H12.4163L12.54 2.3475ZM2.28 3.3225L2.40375 3.705H2.8125L2.48625 3.94125L2.61 4.3275L2.28375 4.0875L1.9575 4.32375L2.08125 3.94125L1.75875 3.705H2.16L2.28 3.3225ZM4.56 3.3225L4.6875 3.705H5.08875L4.75875 3.94125L4.88625 4.3275L4.56 4.0875L4.23375 4.32375L4.3575 3.94125L4.03125 3.705H4.43625L4.56 3.3225ZM6.84 3.3225L6.96375 3.705H7.36875L7.0425 3.94125L7.16625 4.3275L6.84 4.0875L6.51375 4.32375L6.6375 3.94125L6.315 3.705H6.7125L6.84 3.3225ZM9.12 3.3225L9.2475 3.705H9.64875L9.3225 3.94125L9.44625 4.3275L9.12 4.0875L8.7975 4.32375L8.9175 3.94125L8.59125 3.705H9L9.12 3.3225ZM11.4 3.3225L11.5238 3.705H11.9288L11.6025 3.94125L11.7263 4.3275L11.4 4.0875L11.0738 4.32375L11.1975 3.94125L10.875 3.705H11.2763L11.4 3.3225ZM1.14 4.29375L1.2675 4.67625H1.665L1.3425 4.9125L1.46625 5.29875L1.14 5.05875L0.8175 5.295L0.9375 4.9125L0.61125 4.67625H1.02L1.14 4.29375ZM3.42 4.29375L3.54375 4.67625H3.94875L3.6225 4.9125L3.7425 5.295L3.42 5.05875L3.09375 5.295L3.2175 4.9125L2.895 4.67625H3.2925L3.42 4.29375ZM5.7 4.29375L5.82375 4.67625H6.225L5.9025 4.9125L6.02625 5.29875L5.7 5.05875L5.37375 5.295L5.4975 4.9125L5.17125 4.67625H5.57625L5.7 4.29375ZM7.98 4.29375L8.10375 4.67625H8.50875L8.1825 4.9125L8.30625 5.29875L7.98 5.05875L7.65375 5.295L7.78125 4.9125L7.45125 4.67625H7.8525L7.98 4.29375ZM10.26 4.29375L10.3838 4.67625H10.785L10.4625 4.9125L10.5863 5.29875L10.26 5.05875L9.93375 5.295L10.0575 4.9125L9.735 4.67625H10.1362L10.26 4.29375ZM12.54 4.29375L12.6638 4.67625H13.0688L12.7388 4.9125L12.8663 5.29875L12.54 5.05875L12.2138 5.295L12.3375 4.9125L12.0075 4.67625H12.4125L12.54 4.29375ZM2.28 5.26125L2.40375 5.6475H2.8125L2.48625 5.88L2.61 6.26625L2.28375 6.02625L1.9575 6.26625L2.08125 5.88L1.75875 5.64375H2.16L2.28 5.26125ZM4.56 5.26125L4.6875 5.6475H5.08875L4.75875 5.88L4.88625 6.26625L4.56 6.02625L4.23375 6.26625L4.3575 5.88L4.03125 5.64375H4.43625L4.56 5.26125ZM6.84 5.26125L6.96375 5.6475H7.36875L7.0425 5.88L7.16625 6.26625L6.84 6.02625L6.51375 6.26625L6.6375 5.88L6.315 5.64375H6.7125L6.84 5.26125ZM9.12 5.26125L9.2475 5.6475H9.64875L9.3225 5.88L9.44625 6.26625L9.12 6.02625L8.7975 6.26625L8.9175 5.88L8.59125 5.64375H9L9.12 5.26125ZM11.4 5.26125L11.5238 5.6475H11.9288L11.6025 5.88L11.7263 6.26625L11.4 6.02625L11.0738 6.26625L11.1975 5.88L10.875 5.64375H11.2763L11.4 5.26125ZM1.14 6.22875L1.2675 6.615H1.665L1.3425 6.85125L1.46625 7.23L1.14 6.9975L0.8175 7.23L0.9375 6.8475L0.61125 6.61125H1.02L1.14 6.22875ZM3.42 6.22875L3.54375 6.615H3.94875L3.6225 6.85125L3.74625 7.23L3.42 6.9975L3.09375 7.23L3.22125 6.8475L2.895 6.61125H3.2925L3.42 6.22875ZM5.7 6.22875L5.82375 6.615H6.225L5.9025 6.85125L6.02625 7.23L5.7 6.9975L5.37375 7.23L5.4975 6.8475L5.17125 6.61125H5.57625L5.7 6.22875ZM7.98 6.22875L8.10375 6.615H8.50875L8.1825 6.85125L8.30625 7.23L7.98 6.9975L7.65375 7.23L7.78125 6.8475L7.45125 6.61125H7.8525L7.98 6.22875ZM10.26 6.22875L10.3838 6.615H10.785L10.4625 6.85125L10.5863 7.23L10.26 6.9975L9.93375 7.23L10.0575 6.8475L9.735 6.61125H10.1362L10.26 6.22875ZM12.54 6.22875L12.6638 6.615H13.0688L12.7388 6.85125L12.8663 7.23L12.54 6.9975L12.2138 7.23L12.3413 6.8475L12.0113 6.61125H12.4163L12.54 6.22875ZM2.28 7.2L2.40375 7.5825H2.8125L2.48625 7.81875L2.61 8.205L2.28375 7.965L1.9575 8.20125L2.08125 7.81875L1.75875 7.5825H2.16L2.28 7.2ZM4.56 7.2L4.6875 7.5825H5.08875L4.75875 7.81875L4.88625 8.205L4.56 7.965L4.23375 8.20125L4.3575 7.81875L4.03125 7.5825H4.43625L4.56 7.2ZM6.84 7.2L6.96375 7.5825H7.36875L7.0425 7.81875L7.16625 8.205L6.84 7.965L6.51375 8.20125L6.6375 7.81875L6.315 7.5825H6.7125L6.84 7.2ZM9.12 7.2L9.2475 7.5825H9.64875L9.3225 7.81875L9.44625 8.205L9.12 7.965L8.7975 8.20125L8.9175 7.81875L8.59125 7.5825H9L9.12 7.2ZM11.4 7.2L11.5238 7.5825H11.9288L11.6025 7.81875L11.7263 8.205L11.4 7.965L11.0738 8.20125L11.1975 7.81875L10.875 7.5825H11.2763L11.4 7.2ZM1.14 8.17125L1.2675 8.55375H1.665L1.3425 8.79L1.46625 9.1725L1.14 8.93625L0.8175 9.1725L0.9375 8.78625L0.61125 8.55H1.02L1.14 8.17125ZM3.42 8.17125L3.54375 8.55375H3.94875L3.6225 8.79L3.74625 9.1725L3.42 8.93625L3.09375 9.1725L3.22125 8.78625L2.895 8.55H3.2925L3.42 8.17125ZM5.7 8.17125L5.82375 8.55375H6.225L5.91 8.79L6.03375 9.1725L5.7075 8.93625L5.38125 9.1725L5.505 8.78625L5.17875 8.55H5.58375L5.7 8.17125ZM7.98 8.17125L8.10375 8.55375H8.50875L8.1825 8.79L8.30625 9.1725L7.98 8.93625L7.65375 9.1725L7.78125 8.78625L7.45125 8.55H7.8525L7.98 8.17125ZM10.26 8.17125L10.3838 8.55375H10.785L10.4625 8.79L10.5863 9.1725L10.26 8.93625L9.93375 9.1725L10.0575 8.78625L9.735 8.55H10.1362L10.26 8.17125ZM12.54 8.17125L12.6638 8.55375H13.0688L12.7388 8.79L12.8663 9.1725L12.54 8.93625L12.2138 9.1725L12.3413 8.78625L12.0113 8.55H12.4163L12.54 8.17125Z" fill="white"/>
</g>
<defs>
<clipPath id="clip0_237_884">
<rect width="24" height="18" fill="white"/>
</clipPath>
</defs>
</svg>
