<svg width="24" height="18" viewBox="0 0 24 18" fill="none" xmlns="http://www.w3.org/2000/svg">
<path fill-rule="evenodd" clip-rule="evenodd" d="M0 0H24.0047V18H0V0Z" fill="white"/>
<path fill-rule="evenodd" clip-rule="evenodd" d="M2.61084 5.4751L5.09768 1.72468L5.72275 2.13915L3.23591 5.88957L2.61084 5.4751ZM3.54845 6.09681L6.03528 2.34639L6.66035 2.76086L4.17352 6.51128L3.54845 6.09681ZM4.48605 6.71852L6.97289 2.96809L7.59796 3.38257L5.11112 7.13299L4.48605 6.71852Z" fill="black"/>
<path fill-rule="evenodd" clip-rule="evenodd" d="M16.3624 14.5935L18.8492 10.8431L19.4743 11.2575L16.9875 15.008L16.3624 14.5935ZM17.3 15.2152L19.7868 11.4648L20.4119 11.8793L17.9251 15.6297L17.3 15.2152ZM18.2376 15.8369L20.7244 12.0865L21.3495 12.501L18.8627 16.2514L18.2376 15.8369Z" fill="black"/>
<path fill-rule="evenodd" clip-rule="evenodd" d="M4.6356 4.1179L5.57321 4.73961L4.6356 4.1179ZM17.2933 12.511L18.3871 13.2363L17.2933 12.511ZM19.3248 13.858L20.2624 14.4797L19.3248 13.858Z" fill="black"/>
<path d="M17.1897 12.6672L17.3969 12.3547L18.4908 13.08L18.2835 13.3926L17.1897 12.6672ZM19.2211 14.0143L19.4284 13.7017L20.366 14.3235L20.1588 14.636L19.2211 14.0143Z" fill="white"/>
<path d="M18.4908 13.08L18.2835 13.3926L19.2211 14.0143L19.4284 13.7017L18.4908 13.08Z" fill="white"/>
<path fill-rule="evenodd" clip-rule="evenodd" d="M8.24608 6.50813C9.61932 4.44904 12.4276 3.8879 14.4867 5.26114C16.5458 6.63438 17.1069 9.44265 15.7337 11.5017L8.24608 6.50813Z" fill="#CD2E3A"/>
<path fill-rule="evenodd" clip-rule="evenodd" d="M8.24608 6.50813C6.87284 8.56722 7.43398 11.3755 9.49307 12.7487C11.5522 14.122 14.3604 13.5608 15.7337 11.5017C16.4203 10.4722 16.1397 9.06806 15.1102 8.38144C14.0806 7.69482 12.6765 7.97539 11.9899 9.00493L8.24608 6.50813Z" fill="#0047A0"/>
<path d="M11.9899 9.00493C12.6793 7.97111 12.4002 6.57411 11.3664 5.88463C10.3326 5.19516 8.93555 5.47431 8.24608 6.50813C7.5566 7.54195 7.83575 8.93896 8.86957 9.62843C9.90339 10.3179 11.3004 10.0388 11.9899 9.00493Z" fill="#CD2E3A"/>
<path fill-rule="evenodd" clip-rule="evenodd" d="M5.13703 16.288L2.64023 12.5442L3.2642 12.1281L5.761 15.8719L5.13703 16.288ZM6.07298 15.6638L3.57618 11.92L4.20015 11.5039L6.69695 15.2477L6.07298 15.6638ZM7.00893 15.0396L4.51213 11.2958L5.1361 10.8797L7.6329 14.6235L7.00893 15.0396Z" fill="black"/>
<path fill-rule="evenodd" clip-rule="evenodd" d="M18.8643 7.13306L16.3675 3.38926L16.9914 2.97313L19.4882 6.71693L18.8643 7.13306ZM19.8002 6.50886L17.3034 2.76506L17.9274 2.34893L20.4242 6.09273L19.8002 6.50886ZM20.7362 5.88466L18.2394 2.14086L18.8633 1.72473L21.3601 5.46853L20.7362 5.88466Z" fill="black"/>
<path fill-rule="evenodd" clip-rule="evenodd" d="M4.66859 13.8959L5.60454 13.2717L4.66859 13.8959ZM17.3039 5.46923L18.3958 4.74099L17.3039 5.46923ZM19.3318 4.11679L20.2677 3.49259L19.3318 4.11679Z" fill="black"/>
<path d="M4.77264 14.0519L4.56457 13.7399L5.50052 13.1157L5.70859 13.4277L4.77264 14.0519ZM17.4079 5.62521L17.1999 5.31323L18.2918 4.58499L18.4999 4.89698L17.4079 5.62521ZM19.4358 4.27278L19.2278 3.96079L20.1637 3.33659L20.3718 3.64858L19.4358 4.27278Z" fill="white"/>
</svg>
