<svg width="200" height="71" viewBox="0 0 200 71" fill="none" xmlns="http://www.w3.org/2000/svg">
<path d="M90.5663 22.8226H11.3218V44.3761H90.5663V22.8226Z" fill="white"/>
<path d="M41.4738 30.996C41.7206 31.3507 41.8264 31.8472 41.8617 32.3791H37.7002C37.7707 31.8117 37.9471 31.3507 38.1587 30.996C38.5114 30.464 39.0757 30.1448 39.8163 30.1448C40.5922 30.1448 41.1211 30.4285 41.4738 30.996ZM25.0747 33.9749C24.722 34.2233 24.5457 34.6135 24.5457 35.1098C24.5457 35.429 24.6163 35.6773 24.722 35.8902C24.7926 35.9965 24.8278 36.0674 25.0747 36.2447C25.0747 36.2447 25.6038 36.6704 26.8028 36.5994C27.6492 36.5639 28.3899 36.3865 28.3899 36.3865V33.6913C28.3899 33.6913 27.6492 33.5494 26.8028 33.5494C25.5684 33.5139 25.0747 33.9749 25.0747 33.9749ZM63.3392 30.1803C62.5633 30.1803 62.0344 30.464 61.6817 30.996C61.3289 31.5634 61.1526 32.3437 61.1526 33.3366C61.1526 34.3296 61.3289 35.1453 61.6817 35.7128C62.0344 36.2802 62.5987 36.5285 63.3392 36.5285C64.1152 36.5285 64.6441 36.2447 65.032 35.7128C65.3848 35.1453 65.5963 34.3651 65.5963 33.3366C65.5963 32.3437 65.42 31.528 65.032 30.996C64.6793 30.4285 64.1152 30.1803 63.3392 30.1803ZM100.898 31.6699C100.898 43.8696 91.1647 53.7288 79.1387 53.7288C77.6576 53.7288 76.2469 53.5869 74.8362 53.3033C72.1207 58.1973 66.9012 61.4955 60.9763 61.4955C58.4723 61.4955 56.1095 60.928 54.0288 59.8996C51.278 66.425 44.8241 71 37.3475 71C29.5183 71 22.8881 66.035 20.3138 59.0484C19.1851 59.2968 18.0213 59.4031 16.8575 59.4031C7.54711 59.4386 0 51.7782 0 42.3092C0 35.961 3.38562 30.4285 8.42876 27.4851C7.40604 25.0735 6.8065 22.4491 6.8065 19.6473C6.8065 8.79521 15.5879 0 26.4148 0C32.7629 0 38.4056 3.04995 42.0029 7.73127C45.2473 4.32668 49.7967 2.19881 54.8047 2.19881C61.4701 2.19881 67.2891 5.92258 70.3574 11.4905C73.0377 10.2847 76.0352 9.61088 79.1387 9.61088C91.1647 9.61088 100.898 19.5055 100.898 31.6699ZM21.6185 35.1808C21.6185 33.5494 20.1726 32.9466 18.7973 32.4856L18.6208 32.4146C17.5981 32.0954 16.7165 31.7762 16.7165 31.1024V31.0669C16.7165 30.4995 17.2455 30.074 18.0213 30.074C18.903 30.074 19.961 30.3577 20.6664 30.7477C20.6664 30.7477 20.8779 30.8897 20.9485 30.6768C20.9838 30.5705 21.3365 29.6483 21.3717 29.542C21.407 29.4356 21.3365 29.3646 21.2659 29.2936C20.4901 28.8326 19.3968 28.4781 18.3035 28.4781H18.0919C16.1875 28.4781 14.8826 29.6128 14.8826 31.2797V31.3152C14.8826 33.0529 16.3285 33.6204 17.704 34.0105L17.9155 34.0815C18.903 34.4006 19.7846 34.6488 19.7846 35.3582V35.3937C19.7846 36.032 19.2205 36.5285 18.3387 36.5285C17.9861 36.5285 16.8928 36.5285 15.6585 35.7482C15.5174 35.6773 15.4469 35.6063 15.3058 35.5355C15.2353 35.5 15.0942 35.429 15.0237 35.6418L14.6005 36.7767C14.5299 36.954 14.6357 36.9895 14.6357 36.9895C14.8121 37.1314 15.0237 37.2377 15.2 37.3442C16.2227 37.8761 17.2103 38.0534 18.233 38.0534C20.3138 38.1244 21.6185 36.9895 21.6185 35.1808ZM30.2236 37.3442V31.9536C30.2236 30.7832 29.9063 29.8966 29.3068 29.3646C28.7071 28.8326 27.7903 28.5489 26.6265 28.5489C26.2033 28.5489 25.4979 28.6199 25.0747 28.6908C25.0747 28.6908 23.8051 28.9391 23.2761 29.3646C23.2761 29.3646 23.1704 29.4356 23.2408 29.6128L23.664 30.7477C23.6993 30.8897 23.8404 30.8542 23.8404 30.8542C23.8404 30.8542 23.8756 30.8187 23.9462 30.8187C25.0747 30.2158 26.4854 30.2158 26.4854 30.2158C27.1203 30.2158 27.6139 30.3577 27.9313 30.6058C28.2487 30.8542 28.4251 31.2089 28.4251 32.0246V32.2727C27.9313 32.2017 27.4729 32.1664 27.4729 32.1664C27.226 32.1664 26.9438 32.1309 26.5559 32.1309C26.0622 32.1309 25.5684 32.2017 25.11 32.3082C24.6515 32.4146 24.2283 32.6274 23.8756 32.8756C23.523 33.1239 23.2408 33.4431 23.0293 33.8331C22.8176 34.2233 22.7118 34.6843 22.7118 35.1808C22.7118 35.7128 22.8176 36.1384 22.9939 36.5285C23.1704 36.883 23.4173 37.2022 23.7699 37.4506C24.0872 37.6987 24.5105 37.8761 24.9689 37.9826C25.4273 38.0889 25.9564 38.1599 26.5206 38.1599C27.1203 38.1599 27.7198 38.1244 28.2839 38.0179C28.8482 37.9116 29.5535 37.7697 29.7652 37.7342C29.9415 37.6987 30.1884 37.6279 30.1884 37.6279C30.2236 37.4861 30.2236 37.3442 30.2236 37.3442ZM33.9972 25.1443C33.9972 25.038 33.9266 24.967 33.8209 24.967H32.2692C32.1634 24.967 32.0929 25.038 32.0929 25.1443V37.6987C32.0929 37.8052 32.1634 37.8761 32.2692 37.8761H33.8209C33.9266 37.8761 33.9972 37.8052 33.9972 37.6987V25.1443ZM43.5193 31.1379C43.3782 30.5705 43.0256 30.003 42.7787 29.7548C42.3907 29.3291 42.0381 29.0455 41.6854 28.9036C41.1917 28.6908 40.6274 28.5489 40.0278 28.5489C39.2872 28.5489 38.6171 28.6908 38.0882 28.9391C37.5592 29.1873 37.1007 29.542 36.748 29.9675C36.3954 30.3932 36.1132 30.925 35.9722 31.4925C35.7959 32.0599 35.7253 32.6982 35.7253 33.3721C35.7253 34.046 35.8311 34.6843 36.0074 35.2518C36.1837 35.8192 36.4659 36.3157 36.8538 36.7412C37.2418 37.1669 37.7355 37.4861 38.3351 37.7342C38.9346 37.9471 39.6398 38.0889 40.451 38.0889C42.1438 38.0889 43.0256 37.6987 43.4134 37.4861C43.484 37.4506 43.5545 37.3796 43.4488 37.2022L43.0608 36.1384C42.9902 35.961 42.8493 36.032 42.8493 36.032C42.4261 36.1739 41.8264 36.4575 40.451 36.4575C39.5341 36.4575 38.864 36.1739 38.4408 35.7482C38.0176 35.3227 37.8061 34.6843 37.7707 33.7978H43.6251C43.6251 33.7978 43.7662 33.7978 43.8014 33.6558C43.6957 33.6204 43.872 32.4501 43.5193 31.1379ZM51.9127 35.2163C51.9127 33.5494 50.4668 32.9466 49.0914 32.4856L48.9151 32.4146C47.8924 32.0954 47.0107 31.7762 47.0107 31.1024V31.0669C47.0107 30.4995 47.5396 30.074 48.3156 30.074C49.1972 30.074 50.2553 30.3577 50.9605 30.7477C50.9605 30.7477 51.1722 30.8897 51.2426 30.6768C51.278 30.5705 51.6306 29.6483 51.6658 29.542C51.7012 29.4356 51.6306 29.3646 51.5601 29.2936C50.7842 28.8326 49.691 28.4781 48.5977 28.4781H48.386C46.4817 28.4781 45.1768 29.6128 45.1768 31.2797V31.3152C45.1768 33.0529 46.6228 33.6204 47.9982 34.0105L48.2097 34.0815C49.1972 34.4006 50.079 34.6488 50.079 35.3582V35.3937C50.079 36.032 49.5146 36.5285 48.6329 36.5285C48.2803 36.5285 47.187 36.5285 45.9527 35.7482C45.8116 35.6773 45.7059 35.6063 45.6 35.5355C45.5648 35.5 45.3884 35.429 45.3179 35.6418L44.8947 36.7767C44.8241 36.954 44.9299 36.9895 44.9299 36.9895C45.1062 37.1314 45.3179 37.2377 45.4942 37.3442C46.5169 37.8761 47.5044 38.0534 48.5271 38.0534C50.6079 38.1244 51.9127 36.9895 51.9127 35.2163ZM58.9661 28.9391C58.9661 28.8326 58.9309 28.7618 58.7898 28.7618H56.9207C56.9207 28.7263 57.0264 28.0524 57.2381 27.4496C57.3439 27.1659 57.485 26.9531 57.6613 26.8112C57.8023 26.6694 57.9787 26.5629 58.1551 26.492C58.3314 26.421 58.5429 26.3855 58.7898 26.3855C58.9661 26.3855 59.1424 26.421 59.2835 26.421C59.4598 26.4565 59.5304 26.492 59.601 26.492C59.7773 26.5629 59.8125 26.492 59.8478 26.3855L60.3062 25.1443C60.3416 25.0025 60.2357 24.967 60.2005 24.9317C60.0242 24.8607 59.8478 24.8252 59.6362 24.7897C59.4246 24.7543 59.1424 24.7188 58.8251 24.7188C57.7671 24.7188 56.9207 25.038 56.3563 25.6053C55.7922 26.2084 55.369 27.0949 55.1925 28.2653L55.1221 28.6553H53.782C53.782 28.6553 53.6056 28.6553 53.5703 28.8326L53.3588 30.074C53.3588 30.1803 53.394 30.2513 53.5351 30.2513H54.8399L53.5351 37.6279C53.4292 38.2308 53.3234 38.6918 53.1825 39.082C53.0413 39.4366 52.9356 39.7203 52.7593 39.9331C52.6181 40.1103 52.477 40.2523 52.2301 40.3587C52.0186 40.4295 51.8069 40.465 51.5249 40.465C51.3838 40.465 51.2074 40.4295 51.0663 40.4295C50.9253 40.3942 50.8548 40.3587 50.749 40.3232C50.749 40.3232 50.6079 40.2523 50.5374 40.4295C50.5022 40.5715 50.1494 41.4935 50.1142 41.6354C50.079 41.7417 50.1142 41.8482 50.2199 41.8835C50.3962 41.9545 50.5374 41.99 50.749 42.0255C51.0663 42.0964 51.3485 42.0964 51.5954 42.0964C52.1244 42.0964 52.6181 42.0255 53.0413 41.8835C53.4645 41.7417 53.8172 41.4935 54.1346 41.1388C54.4872 40.7487 54.6989 40.3587 54.8752 39.8266C55.0868 39.2946 55.2631 38.6209 55.4042 37.8406L56.709 30.3577H58.6488C58.6488 30.3577 58.8251 30.3577 58.8603 30.1803L58.9661 28.9391ZM67.5713 33.3366C67.5713 32.6629 67.5007 32.0599 67.3244 31.457C67.1481 30.8897 66.9012 30.3577 66.5484 29.9321C66.1958 29.5065 65.7374 29.1518 65.2084 28.9036C64.6793 28.6553 64.0446 28.5134 63.3745 28.5134C62.6691 28.5134 62.0344 28.6553 61.5053 28.9036C60.9763 29.1518 60.5179 29.5065 60.1653 29.9321C59.8125 30.3577 59.5656 30.8542 59.3893 31.457C59.213 32.0245 59.1424 32.6629 59.1424 33.3366C59.1424 34.0105 59.213 34.6488 59.3893 35.2163C59.5656 35.7837 59.8125 36.3157 60.1653 36.7412C60.5179 37.1669 60.9763 37.5214 61.5053 37.7342C62.0344 37.9826 62.6691 38.0889 63.3745 38.0889C64.0798 38.0889 64.6793 37.9826 65.2084 37.7342C65.7374 37.4861 66.1958 37.1669 66.5484 36.7412C66.9012 36.3157 67.1481 35.8192 67.3244 35.2163C67.5007 34.6135 67.5713 34.0105 67.5713 33.3366ZM74.4482 28.8326C74.3424 28.7973 73.8487 28.6908 73.4608 28.6553C72.7202 28.6199 72.3322 28.7263 71.9444 28.9036C71.5916 29.081 71.1684 29.3291 70.9569 29.6483V28.9391C70.9569 28.8326 70.8863 28.7618 70.7806 28.7618H69.2993C69.1935 28.7618 69.123 28.8326 69.123 28.9391V37.6987C69.123 37.8052 69.1935 37.8761 69.2993 37.8761H70.8511C70.9569 37.8761 71.0274 37.8052 71.0274 37.6987V33.3366C71.0274 32.7337 71.098 32.1664 71.239 31.7762C71.3801 31.4215 71.5212 31.1379 71.7681 30.925C71.9796 30.7123 72.2265 30.5705 72.4733 30.4995C72.7554 30.4285 73.0377 30.3932 73.2492 30.3932C73.5666 30.3932 73.884 30.464 73.884 30.464C73.9898 30.464 74.0604 30.3932 74.0956 30.2867C74.2015 30.003 74.4836 29.2228 74.5188 29.0455C74.5893 28.9391 74.4836 28.8681 74.4482 28.8326ZM81.9248 37.4151L81.5016 36.2447C81.431 36.0674 81.2901 36.1384 81.2901 36.1384C81.0432 36.2447 80.7611 36.3157 80.4789 36.3512C80.1968 36.3865 79.8794 36.422 79.5267 36.422C78.6803 36.422 78.0103 36.1739 77.5517 35.6773C77.0933 35.1808 76.8112 34.4006 76.8112 33.3013C76.8112 32.3082 77.0579 31.5634 77.4813 30.996C77.9045 30.4285 78.5392 30.1448 79.3856 30.1448C80.091 30.1448 80.6552 30.2158 81.2195 30.3932C81.2195 30.3932 81.3606 30.464 81.431 30.2867C81.5721 29.8611 81.6779 29.5775 81.8544 29.1165C81.8896 28.9745 81.7838 28.9391 81.7485 28.9036C81.5369 28.7973 81.0078 28.6553 80.5846 28.6199C80.1968 28.5489 79.7736 28.5489 79.2798 28.5489C78.5392 28.5489 77.9045 28.6908 77.3402 28.9036C76.7759 29.1518 76.3175 29.5065 75.9295 29.9321C75.5768 30.3577 75.2594 30.8542 75.0831 31.457C74.9068 32.0245 74.801 32.6629 74.801 33.3366C74.801 34.7906 75.1888 35.9255 75.9647 36.7767C76.7407 37.6279 77.8691 38.0534 79.3856 38.0534C80.2674 38.0534 81.1843 37.8761 81.819 37.6279C81.8544 37.6279 81.9953 37.5924 81.9248 37.4151ZM90.3537 31.1379C90.2125 30.5705 89.8599 30.003 89.613 29.7548C89.225 29.3291 88.8724 29.0455 88.5198 28.9036C88.026 28.6908 87.4617 28.5489 86.827 28.5489C86.0863 28.5489 85.4515 28.6908 84.8873 28.9391C84.3582 29.1873 83.8998 29.542 83.5472 29.9675C83.1944 30.3932 82.9123 30.925 82.7712 31.4925C82.5949 32.0599 82.5243 32.6982 82.5243 33.3721C82.5243 34.046 82.6302 34.6843 82.7712 35.2518C82.9476 35.8192 83.2297 36.3157 83.6176 36.7412C84.0056 37.1669 84.4993 37.4861 85.0988 37.7342C85.6983 37.9471 86.4038 38.0889 87.2148 38.0889C88.9076 38.0889 89.7894 37.6987 90.142 37.4861C90.2126 37.4506 90.2831 37.3796 90.1772 37.2022L89.7894 36.1384C89.7188 35.961 89.5777 36.032 89.5777 36.032C89.1545 36.1739 88.555 36.4575 87.1796 36.4575C86.2627 36.4575 85.5926 36.1739 85.1694 35.7482C84.7462 35.3227 84.5345 34.6843 84.4993 33.7978H90.3537C90.3537 33.7978 90.4946 33.7978 90.53 33.6558C90.53 33.6204 90.7063 32.4501 90.3537 31.1379ZM86.6859 30.1448C85.91 30.1448 85.3809 30.464 85.0283 30.996C84.7814 31.3507 84.6404 31.8117 84.5699 32.3791H88.7313C88.6961 31.8472 88.5903 31.3507 88.3435 30.996C87.9555 30.4285 87.4265 30.1448 86.6859 30.1448Z" fill="#0D9DDA"/>
<path d="M199.718 26.0677L198.766 27.4152C197.778 26.706 196.685 26.3513 195.522 26.3513C194.71 26.3513 194.075 26.4932 193.616 26.8123C193.158 27.1315 192.947 27.5925 192.947 28.1601C192.947 28.5856 193.053 28.9402 193.229 29.2239C193.405 29.5076 193.723 29.7204 194.181 29.9333C194.64 30.1106 195.274 30.3233 196.12 30.5361C197.461 30.8553 198.413 31.3518 199.048 31.9547C199.683 32.593 200 33.4087 200 34.4018C200 35.6785 199.541 36.6715 198.589 37.3809C197.637 38.09 196.474 38.4447 195.062 38.4447C193.194 38.4447 191.642 37.9482 190.373 36.9197L191.36 35.5721C191.923 35.9621 192.488 36.246 193.053 36.4587C193.616 36.636 194.251 36.7423 194.957 36.7423C195.838 36.7423 196.509 36.5652 197.002 36.175C197.496 35.7848 197.742 35.253 197.742 34.5791C197.742 34.1181 197.637 33.7634 197.461 33.4797C197.285 33.1959 196.966 32.9477 196.544 32.7704C196.12 32.593 195.451 32.3804 194.605 32.1675C193.264 31.8128 192.277 31.3518 191.677 30.7843C191.077 30.217 190.76 29.4013 190.76 28.3727C190.76 27.2734 191.184 26.3868 192.03 25.713C192.877 25.0391 194.005 24.7199 195.416 24.7199C197.109 24.6844 198.518 25.1455 199.718 26.0677ZM179.757 30.6425C179.792 29.4013 180.179 28.3727 180.815 27.557C181.485 26.7413 182.402 26.3513 183.6 26.3513C184.8 26.3513 185.682 26.7413 186.317 27.5217C186.951 28.3019 187.269 29.3658 187.304 30.6425H179.757ZM189.384 32.3449C189.419 32.132 189.419 31.8483 189.419 31.4227C189.419 29.4013 188.926 27.7699 187.939 26.5287C186.951 25.2873 185.506 24.6844 183.637 24.6844C182.367 24.6844 181.274 24.9681 180.357 25.5356C179.44 26.103 178.77 26.9187 178.275 27.9472C177.818 28.9757 177.57 30.146 177.57 31.4937C177.57 33.5861 178.135 35.2883 179.227 36.5297C180.357 37.8064 181.872 38.4092 183.883 38.4092C184.871 38.4092 185.787 38.2674 186.634 37.9837C187.445 37.7 188.221 37.3099 188.962 36.7778L188.01 35.3593C187.375 35.7848 186.739 36.104 186.141 36.3168C185.506 36.5297 184.835 36.636 184.024 36.636C182.683 36.636 181.696 36.246 180.955 35.4656C180.251 34.6854 179.827 33.6216 179.757 32.2739H189.384V32.3449ZM170.728 38.09H172.88V31.0681C172.88 29.7204 173.197 28.6566 173.867 27.8054C174.538 26.9542 175.49 26.5642 176.723 26.5642C177.077 26.5642 177.359 26.5642 177.499 26.5995L177.64 24.7199C177.288 24.6844 177.042 24.6489 176.901 24.6489C174.925 24.6489 173.586 25.4646 172.81 27.096C172.775 26.2803 172.704 25.6065 172.632 25.0391H170.552C170.658 26.0322 170.728 26.9897 170.728 27.9472V38.09ZM155.881 33.0187C155.881 34.6146 156.304 35.9268 157.116 36.9197C157.927 37.9127 159.161 38.4092 160.748 38.4092C162.794 38.4092 164.311 37.5935 165.227 35.9621H165.263C165.298 36.8133 165.368 37.4872 165.439 38.0192H167.519C167.413 37.0262 167.343 36.0686 167.343 35.1111V25.0391H165.192V31.9902C165.192 33.3379 164.839 34.4373 164.133 35.3238C163.429 36.2105 162.476 36.6715 161.277 36.6715C160.184 36.6715 159.373 36.3168 158.879 35.5721C158.35 34.8628 158.103 33.8697 158.103 32.6995V25.0391H155.881V33.0187ZM150.626 21.0672L148.44 21.8473V25.0391L146.183 25.2873V26.706H148.475V34.7564C148.475 35.9268 148.793 36.8488 149.463 37.4872C150.133 38.1256 151.014 38.4447 152.143 38.4447C152.919 38.4447 153.589 38.3384 154.153 38.1255L153.836 36.5297C153.448 36.636 153.025 36.707 152.566 36.707C151.297 36.707 150.662 35.9977 150.662 34.6146V26.706H154.083V25.0391H150.662V21.0672H150.626ZM133.487 38.09H135.638V30.6071C135.638 29.4368 135.991 28.4437 136.696 27.6635C137.401 26.8833 138.354 26.4932 139.517 26.4932C140.646 26.4932 141.492 26.8478 141.986 27.5217C142.48 28.1954 142.762 29.0466 142.762 30.1106V38.09H144.913V29.6494C144.913 28.2309 144.525 27.0605 143.714 26.103C142.938 25.1455 141.704 24.6844 140.082 24.6844C139.024 24.6844 138.107 24.8973 137.366 25.2873C136.59 25.6775 135.991 26.2095 135.568 26.8833H135.532C135.497 26.103 135.426 25.5001 135.356 25.0391H133.31C133.416 26.0322 133.487 26.9897 133.487 27.9472V38.09ZM121.355 30.6425C121.39 29.4013 121.778 28.3727 122.413 27.557C123.083 26.7413 124 26.3513 125.199 26.3513C126.398 26.3513 127.28 26.7413 127.915 27.5217C128.549 28.3019 128.867 29.3658 128.902 30.6425H121.355ZM131.018 32.3449C131.053 32.132 131.053 31.8483 131.053 31.4227C131.053 29.4013 130.56 27.7699 129.572 26.5287C128.585 25.2873 127.139 24.6844 125.27 24.6844C124 24.6844 122.907 24.9681 121.99 25.5356C121.073 26.103 120.403 26.9187 119.909 27.9472C119.451 28.9757 119.204 30.146 119.204 31.4937C119.204 33.5861 119.768 35.2883 120.861 36.5297C121.99 37.8064 123.506 38.4092 125.516 38.4092C126.504 38.4092 127.421 38.2674 128.267 37.9837C129.078 37.7 129.854 37.3099 130.595 36.7778L129.643 35.3593C129.008 35.7848 128.373 36.104 127.774 36.3168C127.139 36.5297 126.469 36.636 125.658 36.636C124.317 36.636 123.33 36.246 122.589 35.4656C121.884 34.6854 121.461 33.6216 121.39 32.2739H131.018V32.3449ZM118.957 25.0391H116.735L113.032 35.8913H112.962L109.117 25.0391H106.79L111.727 38.09H114.161L118.957 25.0391Z" fill="white"/>
</svg>
