<svg width="200" height="40" viewBox="0 0 200 40" fill="none" xmlns="http://www.w3.org/2000/svg">
<path d="M0 0H40.1067V40H0V0Z" fill="#F26625"/>
<path d="M112.319 7.92079C112.685 7.9538 112.752 8.38283 112.785 8.64686C112.885 10 112.919 11.3201 112.919 12.6733C112.986 13.9604 112.985 15.2145 112.985 16.5017C113.719 15.9406 114.419 15.3465 115.286 15.0165C116.653 14.4224 118.32 14.4224 119.653 15.1155C121.087 15.8416 122.087 17.2277 122.587 18.7129C123.054 20.132 123.187 21.6502 123.087 23.1353C122.954 24.8845 122.487 26.6337 121.454 28.0528C120.853 28.8779 120.053 29.604 119.053 29.967C117.453 30.5281 115.686 30.33 114.252 29.4389C113.819 29.1749 113.419 28.7789 113.019 28.4488C112.852 28.9769 112.719 29.472 112.552 30C111.785 30 111.052 30.066 110.285 29.934C110.585 28.7459 110.585 27.4917 110.618 26.2706C110.685 21.9472 110.618 17.6238 110.585 13.3333C110.485 11.6502 110.618 9.96699 110.318 8.31683C111.018 8.11881 111.652 7.92079 112.319 7.92079ZM117.92 16.8317C117.253 16.6997 116.586 16.6997 115.919 16.7657C114.719 16.9307 113.752 17.7558 112.985 18.6139C112.952 18.9109 112.986 19.1749 112.952 19.472V26.3366C112.919 26.5677 113.119 26.7327 113.286 26.8647C114.452 27.9868 116.186 28.5149 117.786 28.1188C118.553 27.9208 119.22 27.4257 119.587 26.7327C120.153 25.7756 120.353 24.6535 120.453 23.5644C120.52 22.7393 120.62 21.8812 120.52 21.0561C120.487 20.099 120.287 19.0759 119.787 18.2508C119.387 17.5578 118.72 16.9967 117.92 16.8317ZM127.855 8.51485C128.321 8.34983 128.855 8.38284 129.322 8.58086C129.755 8.84489 130.055 9.24092 130.255 9.70297C130.555 10.6931 129.755 11.8152 128.721 11.9472C127.921 12.0462 127.054 11.5842 126.821 10.7921C126.488 9.93399 126.988 8.87789 127.855 8.51485ZM56.7428 10.33C57.8763 9.57096 59.2099 8.97689 60.6101 8.97689C62.0437 8.94389 63.5106 9.0429 64.8108 9.66996C65.3442 9.90099 65.8776 10.165 66.3444 10.5611C66.011 11.1221 65.5776 11.6172 65.1775 12.1122C64.6441 11.8152 64.144 11.4851 63.5773 11.2871C62.177 10.7921 60.5768 10.6931 59.1765 11.2541C58.0097 11.7162 57.0428 12.6073 56.4427 13.6964C56.0427 14.4554 55.6759 15.2805 55.5092 16.1386C55.3759 16.9637 55.3092 17.8218 55.2759 18.6799C55.2425 19.802 55.1759 20.9571 55.2425 22.0792C55.4426 23.6634 55.976 25.2475 57.0762 26.4356C58.0097 27.5248 59.4099 28.1518 60.8435 28.2838C61.5769 28.3168 62.3437 28.3168 63.0772 28.1518C63.9773 27.9538 64.7441 27.4917 65.5776 27.1287C66.0443 27.5908 66.4777 28.1188 66.8778 28.6799C66.2777 29.0099 65.6443 29.3399 64.9775 29.604C63.2439 30.297 61.2769 30.33 59.4432 30.132C58.1097 29.868 56.8761 29.1749 55.8426 28.3168C54.6424 27.2937 53.7756 25.9406 53.2755 24.4554C52.9088 23.4653 52.7421 22.4092 52.6421 21.3861C52.6088 20.5941 52.5087 19.835 52.6088 19.0429C52.6421 17.5578 52.8755 16.1056 53.4756 14.7195C54.1424 13.0033 55.2092 11.3861 56.7428 10.33Z" fill="#F26625"/>
<path d="M11.902 9.96699C12.0687 9.93399 12.2687 9.86799 12.4354 9.86799C13.3022 9.83498 14.169 9.90098 15.0358 9.93399C15.1692 9.90098 15.2359 10.033 15.2692 10.132C16.5694 12.8053 17.8696 15.5115 19.2032 18.1848C19.5032 18.7459 19.7366 19.3069 20.07 19.835C20.3367 19.4059 20.5701 18.9439 20.8035 18.4819C22.3037 15.6106 23.7039 12.7393 25.1708 9.86799C26.1377 9.90099 27.1045 9.80198 28.0713 9.96699C27.9046 10.5281 27.5712 10.9901 27.3379 11.5182C25.4042 15.1815 23.4372 18.8449 21.5036 22.5082C21.4369 22.6403 21.4035 22.8053 21.4035 22.9703C21.4035 25.5776 21.4035 28.2178 21.4035 30.8251C20.4701 30.8251 19.5366 30.8251 18.6031 30.8251C18.6031 28.2838 18.6031 25.7096 18.6031 23.1683C18.6031 22.9043 18.6364 22.6073 18.4697 22.3432C16.6694 19.0099 14.9025 15.6766 13.1022 12.3102C12.7021 11.5182 12.2687 10.7591 11.902 9.96699Z" fill="#FFFEFE"/>
<path d="M166.994 11.1221C167.761 10.8911 168.561 10.6931 169.362 10.5611C169.228 12.0132 169.128 13.4653 169.095 14.9505C170.328 14.9835 171.595 14.9835 172.829 15.0165C172.629 15.5776 172.395 16.1386 172.129 16.6667C171.062 16.6667 170.028 16.6667 168.962 16.6667C168.962 18.0198 168.962 19.3729 168.962 20.7261C168.962 21.7822 169.028 22.8713 168.995 23.9274C169.028 25.1485 168.961 26.3696 169.095 27.5578C169.128 28.0528 169.595 28.4158 170.028 28.5479C170.795 28.7129 171.595 28.6469 172.329 28.4818C172.529 28.9109 172.629 29.4059 172.595 29.868C171.929 30.231 171.129 30.297 170.362 30.363C169.295 30.396 168.095 30.231 167.328 29.4059C166.694 28.8119 166.761 27.8878 166.661 27.0957C166.594 25.3795 166.628 23.6304 166.594 21.9142C166.594 20.165 166.594 18.3828 166.594 16.6337C165.928 16.6337 165.261 16.6337 164.594 16.6337C164.561 16.0726 164.561 15.4785 164.594 14.9175C165.261 14.9175 165.894 14.9175 166.561 14.9175C166.794 13.6634 166.794 12.3762 166.994 11.1221ZM75.846 14.5875C76.4794 14.6205 77.1129 14.5875 77.713 14.7855C79.1132 15.2475 80.28 16.2046 81.0135 17.4587C81.6469 18.5479 82.0804 19.769 82.1137 21.0231C82.1804 22.7063 82.247 24.4555 81.7136 26.0726C81.2135 27.5908 80.1467 28.9439 78.6798 29.703C77.2462 30.429 75.5126 30.5941 73.979 30.165C72.5788 29.802 71.3786 28.8779 70.5784 27.6898C69.6783 26.4026 69.3782 24.8515 69.3449 23.3003C69.3116 21.8152 69.2782 20.297 69.7783 18.8779C70.245 17.4917 71.1452 16.2046 72.4121 15.4125C72.9788 15.0495 73.6123 14.7525 74.279 14.6205C74.8125 14.5545 75.3459 14.5875 75.846 14.5875ZM74.6458 16.5017C73.8456 16.6997 73.0788 17.1617 72.6454 17.8548C72.012 18.8779 71.912 20.099 71.8453 21.2541C71.7786 22.1122 71.8453 22.9703 71.912 23.8284C72.0453 24.8515 72.2454 25.9406 72.7455 26.8647C73.2789 27.8548 74.4124 28.3498 75.5126 28.4158C76.5461 28.4818 77.6796 28.2178 78.4131 27.4257C79.0132 26.7657 79.3466 25.9406 79.4799 25.0495C79.6466 23.9604 79.6133 22.8713 79.5799 21.7822C79.5466 20.6601 79.4466 19.4719 78.9798 18.4158C78.7131 17.7558 78.213 17.1947 77.5796 16.8647C76.7128 16.3366 75.6126 16.2706 74.6458 16.5017ZM86.281 15.0825C86.9812 14.8515 87.6813 14.6865 88.4147 14.5545C88.7148 15.2145 88.8815 15.9406 88.9482 16.6667C89.4482 16.4026 89.815 16.0066 90.2817 15.7096C91.3152 14.9505 92.5821 14.4884 93.8823 14.5545C94.1824 14.5875 94.4491 14.6535 94.7158 14.7855C95.1492 15.0165 95.6159 15.2475 95.9827 15.5776C96.3494 15.9406 96.6161 16.4026 96.8828 16.8647C97.4829 16.6007 97.9163 16.1386 98.4498 15.7756C99.3499 15.1485 100.383 14.6535 101.517 14.5545C102.55 14.4554 103.584 14.7855 104.351 15.4785C104.684 15.8086 105.051 16.1386 105.218 16.5677C105.384 16.9967 105.451 17.4587 105.484 17.9208C105.651 20.33 105.551 22.7723 105.651 25.1815C105.651 26.7987 105.651 28.3828 105.651 30C104.851 30 104.051 30.033 103.217 30C103.217 27.5908 103.217 25.1815 103.217 22.7723C103.217 21.2211 103.251 19.67 103.117 18.1188C103.051 17.6238 102.784 17.1617 102.384 16.8647C101.917 16.5677 101.317 16.6007 100.783 16.6337C99.8167 16.7327 99.0498 17.3267 98.3164 17.8878C97.983 18.1848 97.6163 18.4488 97.2829 18.7459C97.1829 18.8119 97.2162 18.9769 97.2162 19.0759C97.2162 22.7063 97.2162 26.3366 97.2162 29.967C96.4161 29.967 95.6159 29.967 94.8158 29.967V21.4851C94.8158 20.7921 94.8158 20.099 94.7825 19.4389C94.7491 18.7459 94.8158 17.9868 94.4824 17.3597C93.9823 16.6667 93.0155 16.5347 92.2487 16.7327C91.0485 17.0297 89.9817 17.7558 89.0815 18.5809C88.9482 18.6799 88.9482 18.8449 88.9482 19.0099C88.9482 22.6733 88.9482 26.3366 88.9482 30C88.248 30.033 87.5479 30.033 86.8478 30C86.7811 26.2706 86.8145 22.5083 86.7144 18.7459C86.6811 17.8878 86.6811 17.0297 86.5811 16.2046C86.4811 15.8086 86.3477 15.4455 86.281 15.0825ZM127.288 14.9505C128.055 14.8515 128.821 14.7195 129.588 14.5545C129.688 16.6667 129.655 18.7789 129.655 20.8911C129.655 23.9274 129.655 26.9637 129.655 30C128.855 30.033 128.055 30.033 127.255 30C127.221 25.6436 127.255 21.3201 127.255 16.9637C127.288 16.3036 127.255 15.6106 127.288 14.9505ZM158.193 14.6535C159.827 14.9505 161.227 16.4356 161.26 18.1188C161.36 20.6271 161.227 23.1353 161.26 25.6436V26.4026C161.26 26.8977 161.294 27.3927 161.427 27.8878C161.527 28.3828 161.994 28.6469 162.36 28.9439C162.027 29.4059 161.727 29.934 161.294 30.33C161.027 30.5611 160.693 30.297 160.493 30.165C159.927 29.736 159.527 29.1089 159.193 28.4818C158.66 28.7789 158.293 29.2079 157.76 29.505C156.893 30.066 155.859 30.396 154.792 30.363C153.859 30.396 152.892 30.231 152.059 29.802C150.692 29.0759 149.925 27.4918 149.958 26.0066C149.958 24.5545 150.692 23.1353 151.859 22.2772C153.259 21.2211 155.059 20.8911 156.759 20.7591C157.526 20.6931 158.326 20.6931 159.127 20.6601C159.16 19.901 159.093 19.1419 158.993 18.3828C158.893 17.7558 158.593 17.0957 157.993 16.7657C157.293 16.4026 156.459 16.3696 155.659 16.5017C154.192 16.6667 152.825 17.2937 151.625 18.1518C151.292 17.6898 150.958 17.2607 150.692 16.7657C150.558 16.5347 150.758 16.3366 150.959 16.2376C152.559 15.3465 154.326 14.5875 156.193 14.6205H156.993C157.393 14.5875 157.793 14.5875 158.193 14.6535ZM157.193 22.2112C156.459 22.2772 155.693 22.3102 154.992 22.5082C154.126 22.7393 153.326 23.3003 152.859 24.0594C152.592 24.4885 152.592 25.0165 152.559 25.5116C152.559 26.0396 152.492 26.6337 152.692 27.1287C152.892 27.6568 153.259 28.1518 153.792 28.3498C154.392 28.6139 155.093 28.6469 155.759 28.5809C156.559 28.4818 157.26 28.0528 157.86 27.5908C158.36 27.1617 158.86 26.6337 158.893 25.9406C158.993 24.7195 158.96 23.4984 158.993 22.2772C158.393 22.2772 157.793 22.1452 157.193 22.2112ZM183.331 14.6865C184.697 15.0165 185.931 15.8416 186.731 16.9637C187.398 17.8878 187.831 18.9439 188.031 20.066C188.198 21.1221 188.265 22.2112 188.198 23.2673C188.165 25.0165 187.631 26.7657 186.564 28.1518C185.698 29.2739 184.364 29.934 182.997 30.198C181.33 30.4951 179.53 30.198 178.13 29.2079C176.896 28.3498 176.129 26.9637 175.696 25.5776C175.463 24.8515 175.429 24.1254 175.363 23.3663C175.329 22.1122 175.329 20.8581 175.563 19.637C175.896 18.2508 176.596 16.8977 177.663 15.9076C178.463 15.1815 179.463 14.7195 180.53 14.5875C181.464 14.4884 182.397 14.5215 183.331 14.6865ZM180.697 16.4686C179.563 16.6007 178.663 17.4917 178.296 18.5148C177.83 19.604 177.896 20.7921 177.863 21.9472C177.896 23.0363 177.896 24.1254 178.096 25.2145C178.23 25.9406 178.463 26.6667 178.963 27.2277C179.43 27.7888 180.13 28.1518 180.83 28.2838C181.097 28.3498 181.397 28.3828 181.664 28.3828H181.93L182.197 28.3498C182.764 28.2838 183.297 28.1188 183.797 27.8548C184.397 27.5248 184.831 26.8977 185.064 26.2706C185.364 25.5115 185.398 24.6865 185.464 23.8944C185.498 22.9373 185.531 21.9802 185.464 21.0231C185.398 20.033 185.264 19.0099 184.797 18.1188C184.364 17.4587 183.764 16.8977 183.031 16.5677C182.33 16.3696 181.497 16.3696 180.697 16.4686ZM192.299 15.1155C193.032 14.9175 193.732 14.6865 194.466 14.5215C194.866 15.2475 194.932 16.1056 194.966 16.8977C195.333 16.6337 195.633 16.2706 195.966 15.9406C197 14.9175 198.533 14.2904 200 14.5545V14.7525C199.667 15.4455 199.467 16.2046 199.167 16.9307C199.133 17.0627 198.933 17.0297 198.833 17.0297C198.2 17.0297 197.5 17.0297 196.933 17.3597C196.366 17.6898 195.866 18.1188 195.466 18.6469C195.066 19.1419 195.133 19.835 195.133 20.429C195.099 21.2871 195.066 22.1452 195.099 23.0033C195.099 25.3135 195.099 27.6568 195.099 29.967C194.299 30 193.499 30 192.699 29.967C192.699 27.3927 192.699 24.7855 192.699 22.2112C192.699 20.462 192.699 18.6799 192.632 16.9307C192.565 16.3366 192.365 15.7426 192.299 15.1155ZM134.389 15.1485C135.089 14.9175 135.823 14.6535 136.556 14.6535C136.823 15.3465 136.99 16.0726 137.09 16.7987C137.723 16.4026 138.256 15.8746 138.923 15.5116C140.19 14.7855 141.724 14.2574 143.157 14.7855C143.991 15.0825 144.824 15.5446 145.324 16.3036C145.724 16.8317 145.824 17.5578 145.891 18.2178C146.024 20.5611 145.991 22.9043 145.991 25.2805C145.991 26.8647 146.024 28.4158 146.024 30C145.224 30.033 144.424 30.033 143.624 30C143.624 27.4257 143.557 24.8185 143.557 22.2442C143.524 20.7921 143.591 19.3729 143.424 17.9208C143.191 17.2277 142.524 16.6667 141.79 16.6337C141.257 16.6007 140.69 16.6007 140.157 16.7987C139.023 17.2277 137.99 17.9208 137.056 18.6799C137.023 22.4422 137.056 26.2376 137.056 30C136.356 30 135.656 30.033 134.956 30C134.956 27.8548 134.889 25.7096 134.889 23.5644C134.856 21.3531 134.889 19.1749 134.756 16.9637C134.722 16.3366 134.522 15.7426 134.389 15.1485Z" fill="#F26625"/>
</svg>
