<svg width="200" height="32" viewBox="0 0 200 32" fill="none" xmlns="http://www.w3.org/2000/svg">
<path d="M38.9385 23.3121H47.2686V25.7742H34.6313L43.1536 10.866H36.0252V8.39988H47.4598L38.9385 23.3091V23.3121Z" fill="white"/>
<path d="M192.198 16.0877C191.186 15.0397 190.041 14.5127 188.77 14.5127C187.293 14.5127 186.065 15.0589 185.08 16.1544C184.1 17.2499 183.61 18.6165 183.61 20.2613C183.61 21.9061 184.1 23.3283 185.08 24.4461C186.07 25.5416 187.323 26.0878 188.836 26.0878C190.036 26.0878 191.156 25.6002 192.198 24.6261V25.7742H194.739V14.8172H192.198V16.0877ZM191.491 22.86C190.914 23.5063 190.157 23.828 189.221 23.828C188.346 23.828 187.616 23.4952 187.04 22.8266C186.477 22.1671 186.197 21.3123 186.197 20.2613C186.197 19.2801 186.485 18.4537 187.062 17.7881C187.647 17.1275 188.373 16.7978 189.243 16.7978C190.166 16.7978 190.914 17.1245 191.491 17.7769C192.067 18.4446 192.355 19.2912 192.355 20.32C192.355 21.3487 192.067 22.1944 191.491 22.863V22.86Z" fill="white"/>
<path d="M197.47 8.40292H200V25.7742H197.47V8.40292Z" fill="white"/>
<path d="M153.165 16.0877C152.154 15.0397 151.009 14.5127 149.737 14.5127C148.26 14.5127 147.032 15.0589 146.048 16.1544C145.068 17.2499 144.577 18.6165 144.577 20.2613C144.577 21.9061 145.068 23.3283 146.048 24.4461C147.037 25.5416 148.291 26.0878 149.804 26.0878C151.004 26.0878 152.123 25.6002 153.165 24.6261V25.7742H155.706V14.8172H153.165V16.0877ZM152.455 22.86C151.879 23.5063 151.123 23.828 150.186 23.828C149.31 23.828 148.581 23.4952 148.005 22.8266C147.442 22.1671 147.163 21.3123 147.163 20.2613C147.163 19.2801 147.451 18.4537 148.027 17.7881C148.611 17.1275 149.338 16.7978 150.208 16.7978C151.131 16.7978 151.879 17.1245 152.455 17.7769C153.032 18.4446 153.32 19.2912 153.32 20.32C153.32 21.3487 153.032 22.1944 152.455 22.863V22.86Z" fill="white"/>
<path d="M135.643 16.201C134.487 17.3278 133.911 18.7055 133.911 20.3422C133.911 21.9779 134.481 23.3455 135.62 24.4491C136.759 25.5446 138.176 26.0908 139.872 26.0908C140.898 26.0908 141.925 25.8248 142.953 25.2917V21.9506C142.346 22.685 141.817 23.1816 141.368 23.4365C140.903 23.7006 140.368 23.831 139.761 23.831C138.811 23.831 138.026 23.5003 137.411 22.8407C136.804 22.1802 136.499 21.3376 136.499 20.3088C136.499 19.2801 136.815 18.4668 137.444 17.7992C138.073 17.1306 138.863 16.7978 139.816 16.7978C140.423 16.7978 140.952 16.9333 141.401 17.2024C141.859 17.4664 142.377 17.9489 142.953 18.6529V15.2895C141.994 14.7737 140.975 14.5127 139.897 14.5127C138.217 14.5127 136.801 15.0751 135.649 16.201H135.643Z" fill="white"/>
<path d="M123.796 23.3789C123.383 23.6783 122.862 23.828 122.232 23.828C121.423 23.828 120.762 23.564 120.243 23.04C119.725 22.5079 119.433 21.7918 119.368 20.8905H127.215L127.226 20.2947C127.226 18.487 126.761 17.0719 125.833 16.0543C124.896 15.0286 123.621 14.5127 122.011 14.5127C120.402 14.5127 119.132 15.0427 118.167 16.0988C117.209 17.172 116.73 18.5751 116.73 20.3058C116.73 22.0366 117.225 23.4558 118.215 24.5128C119.204 25.5638 120.515 26.0878 122.149 26.0878C122.721 26.0878 123.247 26.0271 123.735 25.9078C124.222 25.7884 124.674 25.5972 125.095 25.3393C125.514 25.0813 125.907 24.7516 126.276 24.349C126.642 23.9474 126.991 23.4669 127.321 22.9045L125.184 21.7119C124.666 22.5221 124.206 23.0764 123.801 23.3759L123.796 23.3789ZM119.894 17.9792C120.052 17.7324 120.241 17.519 120.462 17.344C120.684 17.169 120.928 17.0335 121.2 16.9394C121.468 16.8453 121.756 16.7978 122.063 16.7978C123.413 16.7978 124.265 17.4715 124.616 18.8219H119.534C119.617 18.5063 119.736 18.2261 119.894 17.9792Z" fill="white"/>
<path d="M70.9831 23.3789C70.5704 23.6783 70.0495 23.828 69.4203 23.828C68.6111 23.828 67.9485 23.564 67.4306 23.04C66.9127 22.5079 66.6213 21.7918 66.5546 20.8905H74.4032L74.4143 20.2947C74.4143 18.487 73.949 17.0719 73.0204 16.0543C72.0837 15.0286 70.8091 14.5127 69.1988 14.5127C67.5884 14.5127 66.3199 15.0427 65.3549 16.0988C64.3959 17.172 63.9165 18.5751 63.9165 20.3058C63.9165 22.0366 64.4131 23.4558 65.4024 24.5128C66.3917 25.5638 67.7027 26.0878 69.3373 26.0878C69.9079 26.0878 70.4349 26.0271 70.9224 25.9078C71.41 25.7884 71.8622 25.5972 72.283 25.3393C72.7018 25.0813 73.0952 24.7516 73.4634 24.349C73.8296 23.9474 74.1786 23.4669 74.5084 22.9045L72.372 21.7119C71.8541 22.5221 71.3938 23.0764 70.9892 23.3759L70.9831 23.3789ZM67.0816 17.9792C67.2394 17.7324 67.4275 17.519 67.6501 17.344C67.8716 17.169 68.1154 17.0335 68.3865 16.9394C68.6556 16.8453 68.9439 16.7978 69.2514 16.7978C70.6008 16.7978 71.4515 17.4715 71.8035 18.8219H66.7215C66.8044 18.5063 66.9238 18.2261 67.0816 17.9792Z" fill="white"/>
<path d="M171.225 14.8171H173.756V25.7742H171.225V14.8171Z" fill="white"/>
<path d="M172.483 8.62748C172.033 8.62748 171.646 8.78832 171.324 9.11302C171.003 9.4347 170.84 9.81706 170.84 10.2611C170.84 10.7275 171.001 11.1209 171.324 11.4426C171.646 11.7643 172.037 11.9251 172.494 11.9251C172.951 11.9251 173.336 11.7643 173.652 11.4426C173.974 11.1209 174.134 10.7295 174.134 10.2723C174.134 9.81504 173.974 9.42964 173.652 9.11302C173.331 8.79135 172.94 8.62748 172.483 8.62748Z" fill="white"/>
<path d="M82.3405 14.5127C81.2318 14.5127 80.2344 14.9507 79.3504 15.8297V14.8172H76.8093V25.7742H79.3504V20.4859C79.3504 19.1213 79.5223 18.1654 79.8683 17.6161C80.2203 17.0608 80.8161 16.7836 81.6557 16.7836C82.4295 16.7836 82.9616 16.995 83.2519 17.4138C83.5513 17.8265 83.701 18.573 83.701 19.6513V25.7722H86.242V19.0555C86.242 17.5109 85.9345 16.3952 85.3195 15.7134C84.6074 14.9122 83.615 14.5096 82.3405 14.5096V14.5127Z" fill="white"/>
<path d="M112.722 14.7929C112.362 14.9729 111.949 15.3057 111.486 15.7933V14.8151H108.956V25.7722H111.486V20.0893C111.486 18.0035 112.175 16.9616 113.553 16.9616C114.01 16.9616 114.756 17.1306 115.393 17.6657L116.551 15.3472C115.723 14.7929 114.906 14.5096 114.028 14.5096C113.526 14.5096 113.091 14.6037 112.722 14.7898V14.7929Z" fill="white"/>
<path d="M92.5422 10.7993H90.0113V13.6367H87.6474V15.9966H90.0113V25.7742H92.5422V15.9966H95.0772V13.6367H92.5422V10.7993Z" fill="white"/>
<path d="M180.539 10.7993H178.009V13.6367H175.645V15.9966H178.009V25.7742H180.539V15.9966H183.075V13.6367H180.539V10.7993Z" fill="white"/>
<path d="M57.693 20.9714L54.8607 14.8171H52.0293L57.6707 26.5288L63.3607 14.8171H60.5172L57.693 20.9714Z" fill="white"/>
<path d="M103.665 21.4094C103.665 22.597 102.704 23.5589 101.517 23.5589C100.331 23.5589 99.3696 22.597 99.3696 21.4094V14.8171H96.8397V21.4094C96.8397 23.9939 98.9346 26.0908 101.517 26.0908C104.1 26.0908 106.194 23.9939 106.194 21.4094V14.8171H103.665V21.4094Z" fill="white"/>
<path d="M163.647 14.5015C162.753 14.5015 161.473 15.0114 160.843 15.7832V14.8171H158.302V31.4541H160.843V25.3443C161.675 25.8076 162.628 26.0797 163.647 26.0797C166.843 26.0797 169.431 23.4871 169.431 20.2916C169.431 17.0972 166.84 14.5046 163.647 14.5046V14.5015ZM163.634 23.4982C161.863 23.4982 160.428 22.0608 160.428 20.2896C160.428 18.5174 161.863 17.081 163.634 17.081C165.405 17.081 166.84 18.5174 166.84 20.2896C166.84 22.0608 165.405 23.4982 163.634 23.4982Z" fill="white"/>
<path d="M0 0H23.566L0.102166 25.2674L23.566 16.5398V27.153H0V0Z" fill="white"/>
</svg>
