<svg width="40" height="40" viewBox="0 0 40 40" fill="none" xmlns="http://www.w3.org/2000/svg">
    <path d="M20 26.25C21.3807 26.25 22.5 25.1307 22.5 23.75C22.5 22.3693 21.3807 21.25 20 21.25C18.6193 21.25 17.5 22.3693 17.5 23.75C17.5 25.1307 18.6193 26.25 20 26.25Z" fill="#353C45"/>
    <path d="M29.7211 23.0981C28.9487 21.1306 27.6159 19.433 25.8879 18.2157C24.1599 16.9984 22.1127 16.315 20 16.25C17.8873 16.315 15.8401 16.9984 14.1121 18.2157C12.3841 19.433 11.0513 21.1306 10.2789 23.0981L10 23.75L10.2789 24.4019C11.0513 26.3694 12.3841 28.067 14.1121 29.2843C15.8401 30.5016 17.8873 31.185 20 31.25C22.1127 31.185 24.1599 30.5016 25.8879 29.2843C27.6159 28.067 28.9487 26.3694 29.7211 24.4019L30 23.75L29.7211 23.0981ZM20 28.75C19.0111 28.75 18.0444 28.4568 17.2221 27.9073C16.3999 27.3579 15.759 26.577 15.3806 25.6634C15.0022 24.7498 14.9031 23.7445 15.0961 22.7745C15.289 21.8046 15.7652 20.9137 16.4645 20.2145C17.1637 19.5152 18.0546 19.039 19.0245 18.8461C19.9945 18.6531 20.9998 18.7522 21.9134 19.1306C22.827 19.509 23.6079 20.1499 24.1573 20.9721C24.7068 21.7944 25 22.7611 25 23.75C24.9985 25.0756 24.4712 26.3465 23.5339 27.2839C22.5965 28.2212 21.3256 28.7485 20 28.75Z" fill="#353C45"/>
    <path d="M33.75 3.75H6.25C5.58696 3.75 4.95107 4.01339 4.48223 4.48223C4.01339 4.95107 3.75 5.58696 3.75 6.25V33.75C3.75 34.413 4.01339 35.0489 4.48223 35.5178C4.95107 35.9866 5.58696 36.25 6.25 36.25H33.75C34.413 36.25 35.0489 35.9866 35.5178 35.5178C35.9866 35.0489 36.25 34.413 36.25 33.75V6.25C36.25 5.58696 35.9866 4.95107 35.5178 4.48223C35.0489 4.01339 34.413 3.75 33.75 3.75ZM6.25 6.25H33.75V11.25H6.25V6.25ZM6.25 33.75V13.75H33.75V33.75H6.25Z" fill="#353C45"/>
</svg>
