<svg width="40" height="40" viewBox="0 0 40 40" fill="none" xmlns="http://www.w3.org/2000/svg">
    <path d="M20 32.5C19.6801 32.5 19.36 32.3779 19.1163 32.134L15.3663 28.384C15.1221 28.1399 15 27.82 15 27.5001C15 27.1802 15.1221 26.8604 15.3663 26.6161L19.1163 22.8661C19.3601 22.6221 19.68 22.5001 20 22.5001C20.32 22.5001 20.64 22.6222 20.8838 22.8661L24.6338 26.6161C24.8779 26.8602 25 27.1801 25 27.5C25 27.8199 24.8779 28.1397 24.6338 28.384L20.8838 32.134C20.6399 32.378 20.3197 32.5 20 32.5ZM18.0179 27.5L20 29.4822L21.9821 27.5L20 25.5177L18.0179 27.5ZM27.5 25C27.1801 25 26.86 24.8779 26.6162 24.634L22.8662 20.884C22.6221 20.6399 22.5 20.32 22.5 20.0001C22.5 19.6802 22.6221 19.3604 22.8662 19.1161L26.6162 15.3661C26.8601 15.1221 27.18 15.0001 27.5 15.0001C27.82 15.0001 28.14 15.1222 28.3838 15.3661L32.1338 19.1161C32.3779 19.3602 32.5 19.6801 32.5 20C32.5 20.3199 32.3779 20.6397 32.1338 20.884L28.3838 24.634C28.1399 24.878 27.8197 25 27.5 25ZM25.5179 20L27.5 21.9822L29.4821 20L27.5 18.0177L25.5179 20ZM20 17.5C19.6801 17.5 19.36 17.3779 19.1163 17.134L15.3663 13.384C15.1221 13.1399 15 12.82 15 12.5001C15 12.1802 15.1221 11.8604 15.3663 11.6161L19.1163 7.86612C19.3601 7.62212 19.68 7.50012 20 7.50012C20.32 7.50012 20.64 7.62225 20.8838 7.86612L24.6338 11.6161C24.8779 11.8602 25 12.1801 25 12.5C25 12.8199 24.8779 13.1397 24.6338 13.384L20.8838 17.134C20.6399 17.378 20.3197 17.5 20 17.5ZM18.0179 12.5L20 14.4822L21.9821 12.5L20 10.5177L18.0179 12.5ZM12.5 25C12.1801 25 11.86 24.8779 11.6163 24.634L7.86625 20.884C7.62213 20.6399 7.5 20.32 7.5 20.0001C7.5 19.6802 7.62213 19.3604 7.86625 19.1161L11.6163 15.3661C11.8601 15.1221 12.18 15.0001 12.5 15.0001C12.82 15.0001 13.14 15.1222 13.3837 15.3661L17.1337 19.1161C17.3779 19.3602 17.5 19.6801 17.5 20C17.5 20.3199 17.3779 20.6397 17.1337 20.884L13.3837 24.634C13.1399 24.878 12.8197 25 12.5 25ZM10.5179 20L12.5 21.9822L14.4821 20L12.5 18.0177L10.5179 20Z" fill="#353C45"/>
    <path d="M20 1.25C19.7824 1.25 19.5649 1.30675 19.3701 1.42025L4.37012 10.1702C3.98625 10.3942 3.75 10.8054 3.75 11.25V28.75C3.75 29.1946 3.98625 29.6057 4.37012 29.8298L19.3701 38.5798C19.5649 38.6932 19.7824 38.75 20 38.75C20.2176 38.75 20.4351 38.6932 20.6299 38.5798L34.3799 30.559L33.1201 28.3996L20 36.053L6.25 28.0322V11.9681L20 3.94712L33.75 11.9679V21.25H36.25V11.25C36.25 10.8054 36.0138 10.3942 35.6299 10.1702L20.6299 1.42025C20.4351 1.30675 20.2176 1.25 20 1.25Z" fill="#353C45"/>
</svg>
