<svg width="40" height="40" viewBox="0 0 40 40" fill="none" xmlns="http://www.w3.org/2000/svg">
<path d="M25.5619 17.6654C26.808 17.6654 27.8181 16.6553 27.8181 15.4092C27.8181 14.1631 26.808 13.153 25.5619 13.153C24.3158 13.153 23.3057 14.1631 23.3057 15.4092C23.3057 16.6553 24.3158 17.6654 25.5619 17.6654Z" fill="#353C45"/>
<path d="M37.0006 30.2313V27.9751H34.6303C34.4849 27.269 34.2045 26.5975 33.8047 25.9976L35.4855 24.3167L33.8904 22.7216L32.2095 24.4025C31.6096 24.0026 30.9381 23.7222 30.2319 23.5767V21.2064H27.9757V23.5767C27.2696 23.7222 26.5981 24.0025 25.9982 24.4024L24.3173 22.7215L22.7222 24.3166L24.4031 25.9975C24.0032 26.5974 23.7228 27.2689 23.5773 27.9751H21.207V30.2313H23.5773C23.7228 30.9374 24.0031 31.6089 24.403 32.2088L22.7221 33.8897L24.3172 35.4848L25.9981 33.8039C26.5981 34.2038 27.2695 34.4842 27.9757 34.6297V37H30.2319V34.6297C30.9381 34.4842 31.6095 34.2039 32.2094 33.804L33.8903 35.4849L35.4854 33.8898L33.8045 32.2089C34.2045 31.609 34.4848 30.9375 34.6303 30.2313H37.0006ZM29.1038 32.4875C28.4345 32.4875 27.7801 32.2891 27.2236 31.9172C26.667 31.5453 26.2332 31.0167 25.9771 30.3983C25.7209 29.7799 25.6539 29.0994 25.7845 28.443C25.9151 27.7865 26.2374 27.1834 26.7107 26.7101C27.184 26.2368 27.7871 25.9145 28.4436 25.7839C29.1001 25.6533 29.7805 25.7203 30.3989 25.9765C31.0173 26.2326 31.5459 26.6664 31.9178 27.223C32.2897 27.7795 32.4881 28.4338 32.4881 29.1032C32.4872 30.0005 32.1303 30.8607 31.4958 31.4952C30.8613 32.1297 30.0011 32.4866 29.1038 32.4875Z" fill="#353C45"/>
<path d="M9.76892 26.6903C11.015 26.6903 12.0251 25.6802 12.0251 24.4341C12.0251 23.188 11.015 22.1779 9.76892 22.1779C8.52284 22.1779 7.5127 23.188 7.5127 24.4341C7.5127 25.6802 8.52284 26.6903 9.76892 26.6903Z" fill="#353C45"/>
<path d="M17.6648 24.4341C16.7723 24.4341 15.8999 24.1694 15.1578 23.6736C14.4157 23.1778 13.8374 22.473 13.4958 21.6485C13.1543 20.8239 13.0649 19.9166 13.2391 19.0413C13.4132 18.166 13.8429 17.3619 14.474 16.7308C15.1051 16.0998 15.9091 15.67 16.7845 15.4959C17.6598 15.3218 18.5671 15.4111 19.3916 15.7527C20.2162 16.0942 20.9209 16.6726 21.4168 17.4146C21.9126 18.1567 22.1772 19.0292 22.1772 19.9216C22.1737 21.1173 21.6972 22.263 20.8517 23.1085C20.0062 23.954 18.8605 24.4306 17.6648 24.4341ZM17.6648 17.6654C17.2186 17.6654 16.7823 17.7977 16.4113 18.0456C16.0403 18.2936 15.7511 18.6459 15.5803 19.0582C15.4095 19.4705 15.3649 19.9241 15.4519 20.3618C15.539 20.7995 15.7539 21.2015 16.0694 21.517C16.3849 21.8326 16.787 22.0474 17.2246 22.1345C17.6623 22.2216 18.1159 22.1769 18.5282 22.0061C18.9405 21.8353 19.2929 21.5462 19.5408 21.1751C19.7887 20.8041 19.921 20.3679 19.921 19.9216C19.9193 19.3238 19.681 18.7509 19.2582 18.3282C18.8355 17.9054 18.2626 17.6672 17.6648 17.6654Z" fill="#353C45"/>
<path d="M16.5605 33.7653L5.25622 27.1707V12.6727L17.6655 5.43417L30.6343 12.9994L31.7712 11.0505L18.2339 3.15369C18.0614 3.05304 17.8652 3 17.6655 3C17.4657 3 17.2695 3.05304 17.097 3.15369L3.55966 11.0505C3.3893 11.1498 3.24797 11.292 3.14977 11.463C3.05157 11.634 2.99992 11.8278 3 12.0249V27.8185C2.99998 28.0157 3.05165 28.2096 3.14984 28.3806C3.24803 28.5517 3.38933 28.6941 3.55966 28.7935L15.4236 35.7153L16.5605 33.7653Z" fill="#353C45"/>
</svg>
