<svg width="40" height="40" viewBox="0 0 40 40" fill="none" xmlns="http://www.w3.org/2000/svg">
<path d="M38 28.1785L32.0052 34.1734L30.3266 32.4948L33.4439 29.3775H23.6123V26.9795H33.4439L30.3266 23.8622L32.0052 22.1836L38 28.1785Z" fill="#353C45"/>
<path d="M30.2065 3.83928C29.727 3.35969 29.1275 3 28.4081 3H25.1708C24.4514 3 23.852 3.35969 23.6122 3.95918L22.8928 5.39796H21.2142V4.79847C21.2142 3.83928 20.3749 3 19.4157 3H13.4208C12.4617 3 11.6224 3.83928 11.6224 4.79847V5.39796H9.94381L9.22442 3.95918C8.98463 3.35969 8.38514 3 7.66575 3H4.42851C3.70912 3 3.10963 3.35969 2.63004 3.83928C2.15045 4.43877 1.91066 5.15816 2.03055 5.87755L2.86984 10.7934C3.22953 12.4719 4.66831 13.7908 6.46677 13.7908H6.82647V28.1785C4.7882 28.1785 3.22953 29.7372 3.22953 31.7755V36.5714H26.0101V34.1734H20.0152V25.7806C20.0152 23.7423 18.4566 22.1837 16.4183 22.1837C14.38 22.1837 12.8214 23.7423 12.8214 25.7806V34.1734H5.62749V31.7755C5.62749 31.0561 6.10708 30.5765 6.82647 30.5765H9.22442V13.7908H23.6122V22.1837H26.0101V13.7908H26.3698C28.1683 13.7908 29.6071 12.4719 29.9667 10.7934L30.806 5.87755C30.9259 5.15816 30.6861 4.43877 30.2065 3.83928ZM15.2193 25.7806C15.2193 25.0612 15.6989 24.5816 16.4183 24.5816C17.1377 24.5816 17.6173 25.0612 17.6173 25.7806V34.1734H15.2193V25.7806ZM27.5688 10.4337C27.4489 11.0332 26.9693 11.3928 26.3698 11.3928H6.46677C5.86728 11.3928 5.38769 10.9133 5.2678 10.4337L4.42851 5.39796H7.30606L8.50504 7.79591H14.0203V5.39796H18.8162V7.79591H24.3316L25.5305 5.39796H28.4081L27.5688 10.4337Z" fill="#353C45"/>
</svg>
